<svg xmlns="http://www.w3.org/2000/svg" width="420" height="1288" viewBox="0 0 420 1288" role="img" aria-labelledby="title desc">
<title id="title">Codex Usage Dashboard Mobile</title>
<desc id="desc">Mobile Codex usage: 71.6B tokens, 93.89% cache hit, $74,361 cost, peak chart, token mix, agents, and all 22 models.</desc>
<defs>
    <linearGradient id="panel" x1="0" x2="1" y1="0" y2="1">
      <stop offset="0%" stop-color="#160b04"/>
      <stop offset="64%" stop-color="#0c0806"/>
      <stop offset="100%" stop-color="#221004"/>
    </linearGradient>
    <linearGradient id="peakArea" x1="0" x2="0" y1="0" y2="1">
      <stop offset="0%" stop-color="#ffb057" stop-opacity="0.95"/>
      <stop offset="40%" stop-color="#ff7a1a" stop-opacity="0.50"/>
      <stop offset="100%" stop-color="#ff4d00" stop-opacity="0.02"/>
    </linearGradient>
    <linearGradient id="peakStroke" x1="0" x2="1" y1="0" y2="0">
      <stop offset="0%" stop-color="#ff7a1a"/>
      <stop offset="80%" stop-color="#ffb057"/>
      <stop offset="100%" stop-color="#ffd08a"/>
    </linearGradient>
    <linearGradient id="cacheBar" x1="0" x2="1" y1="0" y2="0">
      <stop offset="0%" stop-color="#0f5b48"/>
      <stop offset="100%" stop-color="#2dd4a3"/>
    </linearGradient>
    <filter id="peakGlow" x="-60%" y="-60%" width="220%" height="220%">
      <feGaussianBlur stdDeviation="3.5" result="b"/>
      <feMerge><feMergeNode in="b"/><feMergeNode in="SourceGraphic"/></feMerge>
    </filter>
  </defs>
<rect width="420" height="1288" rx="16" fill="#050403"/>
<rect x="12" y="12" width="396" height="1264" rx="16" fill="url(#panel)" stroke="#ff7a1a" stroke-width="1.6"/>
<g stroke="#3b2111" stroke-width="1" opacity="0.20"><path d="M18 58 H402"/><path d="M18 90 H402"/><path d="M18 122 H402"/><path d="M18 154 H402"/><path d="M18 186 H402"/><path d="M18 218 H402"/><path d="M18 250 H402"/><path d="M18 282 H402"/><path d="M18 314 H402"/><path d="M18 346 H402"/><path d="M18 378 H402"/><path d="M18 410 H402"/><path d="M18 442 H402"/><path d="M18 474 H402"/><path d="M18 506 H402"/><path d="M18 538 H402"/><path d="M18 570 H402"/><path d="M18 602 H402"/><path d="M18 634 H402"/><path d="M18 666 H402"/><path d="M18 698 H402"/><path d="M18 730 H402"/><path d="M18 762 H402"/><path d="M18 794 H402"/><path d="M18 826 H402"/><path d="M18 858 H402"/><path d="M18 890 H402"/><path d="M18 922 H402"/><path d="M18 954 H402"/><path d="M18 986 H402"/><path d="M18 1018 H402"/><path d="M18 1050 H402"/><path d="M18 1082 H402"/><path d="M18 1114 H402"/><path d="M18 1146 H402"/><path d="M18 1178 H402"/><path d="M18 1210 H402"/><path d="M18 1242 H402"/><path d="M18 1274 H402"/></g>
<g font-family="ui-monospace, SFMono-Regular, Menlo, Consolas, monospace">
    <text x="24" y="42" font-size="22" font-weight="900" fill="#ff8a22">:: CODEX_USAGE</text>
    <text x="24" y="62" font-size="10" font-weight="750" fill="#ffca88">&gt; 248d · 88 active · 22 models · 6 agents</text>
    <g>
      <circle cx="378" cy="38" r="3" fill="#ff7a1a">
        <animate attributeName="opacity" values="0.25;1;0.25" dur="2s" repeatCount="indefinite"/>
      </circle>
      <text x="388" y="42" font-size="10" font-weight="900" fill="#ff8a22" text-anchor="end">LIVE</text>
    </g>
    </g>
<g font-family="ui-monospace, SFMono-Regular, Menlo, Consolas, monospace">
    <rect x="24" y="82" width="372" height="86" rx="10" fill="#15100c" stroke="#ff8a22" stroke-opacity="0.78"/>
    <rect x="36" y="94" width="348" height="2" fill="#ff8a22" opacity="0.75"/>
    <text x="40" y="120" font-size="11" font-weight="850" fill="#ffb057">TOTAL TOKENS</text>
    <text x="40" y="152" font-size="34" font-weight="900" fill="#fff2df">71.6B</text>
    <text x="380" y="120" font-size="10" font-weight="800" fill="#2dd4a3" text-anchor="end">▲▲ accelerating</text>
    <text x="380" y="138" font-size="9" font-weight="800" fill="#ffd08a" text-anchor="end">88 active / 248d</text>
    <text x="380" y="156" font-size="9" font-weight="800" fill="#ffd08a" text-anchor="end">peak 32.4B · 05-20</text>
    </g>
<g font-family="ui-monospace, SFMono-Regular, Menlo, Consolas, monospace">
    <g>
      <rect x="24" y="180" width="181" height="60" rx="8" fill="#15100c" stroke="#16745b" stroke-opacity="0.85"/>
      <text x="38" y="208" font-size="10" font-weight="800" fill="#ffb057">CACHE HIT</text>
      <text x="38" y="230" font-size="20" font-weight="900" fill="#fff2df">93.89%</text>
      <text x="197" y="234" font-size="8" font-weight="800" fill="#2dd4a3" text-anchor="end">66.9B cached</text>
    </g>
    <g>
      <rect x="215" y="180" width="181" height="60" rx="8" fill="#15100c" stroke="#ff4d00" stroke-opacity="0.72"/>
      <text x="229" y="208" font-size="10" font-weight="800" fill="#ffb057">COST</text>
      <text x="229" y="230" font-size="18" font-weight="900" fill="#fff2df">$74,361</text>
      <text x="388" y="208" font-size="8" font-weight="800" fill="#ffd08a" text-anchor="end">$845 / day</text>
    </g>
    <g>
      <rect x="24" y="250" width="181" height="60" rx="8" fill="#15100c" stroke="#f06d19" stroke-opacity="0.72"/>
      <text x="38" y="278" font-size="10" font-weight="800" fill="#ffb057">SESSIONS</text>
      <text x="38" y="300" font-size="20" font-weight="900" fill="#fff2df">4,147</text>
      <text x="197" y="278" font-size="8" font-weight="800" fill="#ffd08a" text-anchor="end">6 agents</text>
    </g>
    <g>
      <rect x="215" y="250" width="181" height="60" rx="8" fill="#15100c" stroke="#ff8a22" stroke-opacity="0.72"/>
      <text x="229" y="278" font-size="10" font-weight="800" fill="#ffb057">MODELS</text>
      <text x="229" y="300" font-size="20" font-weight="900" fill="#fff2df">22</text>
      <text x="388" y="278" font-size="8" font-weight="800" fill="#ffd08a" text-anchor="end">across 6 agents</text>
    </g>
    </g>
<g font-family="ui-monospace, SFMono-Regular, Menlo, Consolas, monospace">
<rect x="24" y="322" width="372" height="184" rx="10" fill="#0d0907" stroke="#ff7a1a" stroke-opacity="0.76"/>
<path d="M38 358 H382" stroke="#ff7a1a" stroke-width="1" opacity="0.7"/>
<text x="38" y="348" font-size="13" font-weight="900" fill="#ff8a22">[01] PEAK CHART · 14d</text>
<text x="382" y="348" font-size="9" font-weight="800" fill="#ffd08a" text-anchor="end">↑ 32.4B · 05-20</text>
<g font-size="8" font-weight="800" fill="#7a4318">
      <text x="40" y="365" text-anchor="end">35B</text>
      <text x="40" y="418" text-anchor="end">17.5B</text>
      <text x="40" y="473" text-anchor="end">0</text>
    </g>
<g stroke="#4b2a13" stroke-width="1" opacity="0.55" stroke-dasharray="2 4">
      <path d="M46 362 H388"/>
      <path d="M46 416 H388"/>
    </g>
<path d="M46 470 H388" stroke="#6c3a16" stroke-width="1"/>
<path d="M46,470 L46.00,468.42 L72.31,467.59 L98.62,468.33 L124.92,468.60 L151.23,465.41 L177.54,468.34 L203.85,468.14 L230.15,468.89 L256.46,468.08 L282.77,465.57 L309.08,453.35 L335.38,415.34 L361.69,370.12 L388.00,449.55 L388,470 Z" fill="url(#peakArea)"/>
<path d="M46.00,468.42 L72.31,467.59 L98.62,468.33 L124.92,468.60 L151.23,465.41 L177.54,468.34 L203.85,468.14 L230.15,468.89 L256.46,468.08 L282.77,465.57 L309.08,453.35 L335.38,415.34 L361.69,370.12 L388.00,449.55" fill="none" stroke="url(#peakStroke)" stroke-width="2" stroke-linejoin="round" stroke-linecap="round"/>
<g fill="#0d0907" stroke="#ffb057" stroke-width="1.1">
<circle cx="46.00" cy="468.42" r="1.8"/>
<circle cx="72.31" cy="467.59" r="1.8"/>
<circle cx="98.62" cy="468.33" r="1.8"/>
<circle cx="124.92" cy="468.60" r="1.8"/>
<circle cx="151.23" cy="465.41" r="1.8"/>
<circle cx="177.54" cy="468.34" r="1.8"/>
<circle cx="203.85" cy="468.14" r="1.8"/>
<circle cx="230.15" cy="468.89" r="1.8"/>
<circle cx="256.46" cy="468.08" r="1.8"/>
<circle cx="282.77" cy="465.57" r="1.8"/>
<circle cx="309.08" cy="453.35" r="1.8"/>
</g>
<circle cx="335.38" cy="415.34" r="3" fill="#1b0e07" stroke="#ffb057" stroke-width="1.2"/>
<g>
      <circle cx="361.69" cy="370.12" r="9" fill="#ff4d00" opacity="0.30"/>
      <circle cx="361.69" cy="370.12" r="5.5" fill="#ff8a22" filter="url(#peakGlow)"/>
      <circle cx="361.69" cy="370.12" r="2.5" fill="#fff2df"/>
    </g>
<circle cx="388.00" cy="449.55" r="3" fill="#1b0e07" stroke="#ffd08a" stroke-width="1.2"/>
<g font-size="9" font-weight="800" fill="#ffca88">
      <text x="46" y="484" text-anchor="middle">05-08</text>
      <text x="124.92" y="484" text-anchor="middle">05-11</text>
      <text x="203.85" y="484" text-anchor="middle">05-14</text>
      <text x="282.77" y="484" text-anchor="middle">05-17</text>
      <text x="361.69" y="484" text-anchor="middle">05-20</text>
    </g>
<g font-size="9" font-weight="850">
      <text x="38" y="499" fill="#cc6b2c">avg</text>
      <text x="62" y="499" fill="#fff2df">4.96B</text>
      <text x="116" y="499" fill="#cc6b2c">7d</text>
      <text x="134" y="499" fill="#fff2df">64.5B</text>
      <text x="194" y="499" fill="#cc6b2c">peak vs avg</text>
      <text x="270" y="499" fill="#2dd4a3">+553%</text>
      <text x="382" y="499" fill="#2dd4a3" text-anchor="end">▲▲</text>
    </g>
</g>
<g font-family="ui-monospace, SFMono-Regular, Menlo, Consolas, monospace">
<rect x="24" y="516" width="372" height="140" rx="10" fill="#0d0907" stroke="#ff7a1a" stroke-opacity="0.76"/>
<path d="M38 550 H382" stroke="#ff7a1a" stroke-width="1" opacity="0.7"/>
<text x="38" y="540" font-size="13" font-weight="900" fill="#ff8a22">[02] TOKEN MIX</text>
<text x="382" y="540" font-size="9" font-weight="800" fill="#ffd08a" text-anchor="end">71.6B total</text>
<rect x="38" y="560" width="344" height="12" rx="4" fill="#24160d" stroke="#4b2a13"/>
<rect x="38.00" y="560" width="321.68" height="12" fill="#2dd4a3"/>
<rect x="359.68" y="560" width="20.90" height="12" fill="#58a6ff"/>
<rect x="380.58" y="560" width="1.40" height="12" fill="#ff8a22"/>
<rect x="381.98" y="560" width="1.00" height="12" fill="#b779ff"/>
<rect x="38" y="579" width="9" height="9" rx="2" fill="#2dd4a3"/>
<text x="52" y="588" font-size="11" font-weight="800" fill="#fff2df">Cached read</text>
<text x="380" y="588" font-size="11" font-weight="900" fill="#fff2df" text-anchor="end">66.91B · 93.51%</text>
<rect x="38" y="595" width="9" height="9" rx="2" fill="#58a6ff"/>
<text x="52" y="604" font-size="11" font-weight="800" fill="#fff2df">Non-cached input</text>
<text x="380" y="604" font-size="11" font-weight="900" fill="#fff2df" text-anchor="end">4.35B · 6.08%</text>
<rect x="38" y="611" width="9" height="9" rx="2" fill="#ff8a22"/>
<text x="52" y="620" font-size="11" font-weight="800" fill="#fff2df">Output</text>
<text x="380" y="620" font-size="11" font-weight="900" fill="#fff2df" text-anchor="end">291.2M · 0.41%</text>
<rect x="38" y="627" width="9" height="9" rx="2" fill="#b779ff"/>
<text x="52" y="636" font-size="11" font-weight="800" fill="#fff2df">Cache create</text>
<text x="380" y="636" font-size="11" font-weight="900" fill="#fff2df" text-anchor="end">3.7M · 0.01%</text>
</g>
<g font-family="ui-monospace, SFMono-Regular, Menlo, Consolas, monospace">
<rect x="24" y="666" width="372" height="160" rx="10" fill="#0d0907" stroke="#ff7a1a" stroke-opacity="0.76"/>
<path d="M38 700 H382" stroke="#ff7a1a" stroke-width="1" opacity="0.7"/>
<text x="38" y="690" font-size="13" font-weight="900" fill="#ff8a22">[03] AGENT BREAKDOWN</text>
<text x="382" y="690" font-size="9" font-weight="800" fill="#ffd08a" text-anchor="end">6 · $74,361</text>
<rect x="38" y="710" width="344" height="12" rx="4" fill="#24160d" stroke="#4b2a13"/>
<rect x="38.00" y="710" width="334.00" height="12" fill="#ff7a1a"/>
<rect x="372.00" y="710" width="2.00" height="12" fill="#d97757"/>
<rect x="374.00" y="710" width="2.00" height="12" fill="#58a6ff"/>
<rect x="376.00" y="710" width="2.00" height="12" fill="#2dd4a3"/>
<rect x="378.00" y="710" width="2.00" height="12" fill="#b779ff"/>
<rect x="380.00" y="710" width="2.00" height="12" fill="#ffb057"/>
<rect x="38" y="731" width="9" height="9" rx="2" fill="#ff7a1a"/>
<text x="52" y="740" font-size="11" font-weight="800" fill="#fff2df">Codex</text>
<text x="380" y="740" font-size="11" font-weight="900" fill="#fff2df" text-anchor="end">$74,296.24 · 99.913%</text>
<rect x="38" y="745" width="9" height="9" rx="2" fill="#d97757"/>
<text x="52" y="754" font-size="11" font-weight="800" fill="#fff2df">Claude</text>
<text x="380" y="754" font-size="11" font-weight="900" fill="#fff2df" text-anchor="end">$56.94 · 0.077%</text>
<rect x="38" y="759" width="9" height="9" rx="2" fill="#58a6ff"/>
<text x="52" y="768" font-size="11" font-weight="800" fill="#fff2df">Qwen</text>
<text x="380" y="768" font-size="11" font-weight="900" fill="#fff2df" text-anchor="end">$6.60 · 0.009%</text>
<rect x="38" y="773" width="9" height="9" rx="2" fill="#2dd4a3"/>
<text x="52" y="782" font-size="11" font-weight="800" fill="#fff2df">Gemini</text>
<text x="380" y="782" font-size="11" font-weight="900" fill="#fff2df" text-anchor="end">$1.37 · 0.002%</text>
<rect x="38" y="787" width="9" height="9" rx="2" fill="#b779ff"/>
<text x="52" y="796" font-size="11" font-weight="800" fill="#fff2df">Opencode</text>
<text x="380" y="796" font-size="11" font-weight="900" fill="#fff2df" text-anchor="end">$0.05 · 0.000%</text>
<rect x="38" y="801" width="9" height="9" rx="2" fill="#ffb057"/>
<text x="52" y="810" font-size="11" font-weight="800" fill="#fff2df">Droid</text>
<text x="380" y="810" font-size="11" font-weight="900" fill="#fff2df" text-anchor="end">$0.02 · 0.000%</text>
</g>
<g font-family="ui-monospace, SFMono-Regular, Menlo, Consolas, monospace">
<rect x="24" y="836" width="372" height="408" rx="10" fill="#0d0907" stroke="#ff7a1a" stroke-opacity="0.76"/>
<path d="M38 870 H382" stroke="#ff7a1a" stroke-width="1" opacity="0.7"/>
<text x="38" y="860" font-size="13" font-weight="900" fill="#ff8a22">[04] ALL MODELS</text>
<text x="382" y="860" font-size="9" font-weight="800" fill="#ffd08a" text-anchor="end">22 · sorted by cost</text>
<g font-size="8" font-weight="800" fill="#7a4318">
<text x="34" y="888">#</text>
<text x="54" y="888">MODEL</text>
<text x="270" y="888" text-anchor="end">TOKENS</text>
<text x="380" y="888" text-anchor="end">COST</text>
</g>
<path d="M34 893 H384" stroke="#4b2a13" stroke-width="1" stroke-dasharray="2 4"/>
<rect x="30" y="895" width="358" height="16" fill="#120904" opacity="0.55"/>
<text x="46" y="906" font-size="9" font-weight="800" fill="#7a4318" text-anchor="end">01</text>
<rect x="50" y="898" width="8" height="8" rx="1.5" fill="#ff7a1a"/>
<text x="62" y="906" font-size="10" font-weight="800" fill="#fff2df">gpt-5.5</text>
<text x="270" y="906" font-size="9" font-weight="700" fill="#ffca88" text-anchor="end">23.30B</text>
<text x="380" y="906" font-size="10" font-weight="900" fill="#fff2df" text-anchor="end">$51,802.84</text>
<rect x="280" y="901" width="80" height="3" fill="#24160d"/>
<rect x="280" y="901" width="80.00" height="3" fill="#ff7a1a" opacity="0.85"/>
<text x="46" y="922" font-size="9" font-weight="800" fill="#7a4318" text-anchor="end">02</text>
<rect x="50" y="914" width="8" height="8" rx="1.5" fill="#ff7a1a"/>
<text x="62" y="922" font-size="10" font-weight="800" fill="#fff2df">gpt-5</text>
<text x="270" y="922" font-size="9" font-weight="700" fill="#ffca88" text-anchor="end">47.63B</text>
<text x="380" y="922" font-size="10" font-weight="900" fill="#fff2df" text-anchor="end">$22,145.25</text>
<rect x="280" y="917" width="80" height="3" fill="#24160d"/>
<rect x="280" y="917" width="52.31" height="3" fill="#ff7a1a" opacity="0.85"/>
<rect x="30" y="927" width="358" height="16" fill="#120904" opacity="0.55"/>
<text x="46" y="938" font-size="9" font-weight="800" fill="#7a4318" text-anchor="end">03</text>
<rect x="50" y="930" width="8" height="8" rx="1.5" fill="#ff7a1a"/>
<text x="62" y="938" font-size="10" font-weight="800" fill="#fff2df">gpt-5-codex</text>
<text x="270" y="938" font-size="9" font-weight="700" fill="#ffca88" text-anchor="end">292.6M</text>
<text x="380" y="938" font-size="10" font-weight="900" fill="#fff2df" text-anchor="end">$170.37</text>
<rect x="280" y="933" width="80" height="3" fill="#24160d"/>
<rect x="280" y="933" width="4.59" height="3" fill="#ff7a1a" opacity="0.85"/>
<text x="46" y="954" font-size="9" font-weight="800" fill="#7a4318" text-anchor="end">04</text>
<rect x="50" y="946" width="8" height="8" rx="1.5" fill="#ff7a1a"/>
<text x="62" y="954" font-size="10" font-weight="800" fill="#fff2df">gpt-5.1-codex-max</text>
<text x="270" y="954" font-size="9" font-weight="700" fill="#ffca88" text-anchor="end">98.5M</text>
<text x="380" y="954" font-size="10" font-weight="900" fill="#fff2df" text-anchor="end">$79.05</text>
<rect x="280" y="949" width="80" height="3" fill="#24160d"/>
<rect x="280" y="949" width="3.13" height="3" fill="#ff7a1a" opacity="0.85"/>
<rect x="30" y="959" width="358" height="16" fill="#120904" opacity="0.55"/>
<text x="46" y="970" font-size="9" font-weight="800" fill="#7a4318" text-anchor="end">05</text>
<rect x="50" y="962" width="8" height="8" rx="1.5" fill="#d97757"/>
<text x="62" y="970" font-size="10" font-weight="800" fill="#fff2df">claude-opus-4-7</text>
<text x="270" y="970" font-size="9" font-weight="700" fill="#ffca88" text-anchor="end">55.7M</text>
<text x="380" y="970" font-size="10" font-weight="900" fill="#fff2df" text-anchor="end">$52.58</text>
<rect x="280" y="965" width="80" height="3" fill="#24160d"/>
<rect x="280" y="965" width="2.55" height="3" fill="#d97757" opacity="0.85"/>
<text x="46" y="986" font-size="9" font-weight="800" fill="#7a4318" text-anchor="end">06</text>
<rect x="50" y="978" width="8" height="8" rx="1.5" fill="#ff7a1a"/>
<text x="62" y="986" font-size="10" font-weight="800" fill="#fff2df">gpt-5.2-codex</text>
<text x="270" y="986" font-size="9" font-weight="700" fill="#ffca88" text-anchor="end">77.7M</text>
<text x="380" y="986" font-size="10" font-weight="900" fill="#fff2df" text-anchor="end">$51.13</text>
<rect x="280" y="981" width="80" height="3" fill="#24160d"/>
<rect x="280" y="981" width="2.51" height="3" fill="#ff7a1a" opacity="0.85"/>
<rect x="30" y="991" width="358" height="16" fill="#120904" opacity="0.55"/>
<text x="46" y="1002" font-size="9" font-weight="800" fill="#7a4318" text-anchor="end">07</text>
<rect x="50" y="994" width="8" height="8" rx="1.5" fill="#ff7a1a"/>
<text x="62" y="1002" font-size="10" font-weight="800" fill="#fff2df">gpt-5.2</text>
<text x="270" y="1002" font-size="9" font-weight="700" fill="#ffca88" text-anchor="end">32.4M</text>
<text x="380" y="1002" font-size="10" font-weight="900" fill="#fff2df" text-anchor="end">$24.55</text>
<rect x="280" y="997" width="80" height="3" fill="#24160d"/>
<rect x="280" y="997" width="1.74" height="3" fill="#ff7a1a" opacity="0.85"/>
<text x="46" y="1018" font-size="9" font-weight="800" fill="#7a4318" text-anchor="end">08</text>
<rect x="50" y="1010" width="8" height="8" rx="1.5" fill="#ff7a1a"/>
<text x="62" y="1018" font-size="10" font-weight="800" fill="#fff2df">gpt-5.3-codex</text>
<text x="270" y="1018" font-size="9" font-weight="700" fill="#ffca88" text-anchor="end">24.6M</text>
<text x="380" y="1018" font-size="10" font-weight="900" fill="#fff2df" text-anchor="end">$16.43</text>
<rect x="280" y="1013" width="80" height="3" fill="#24160d"/>
<rect x="280" y="1013" width="1.42" height="3" fill="#ff7a1a" opacity="0.85"/>
<rect x="30" y="1023" width="358" height="16" fill="#120904" opacity="0.55"/>
<text x="46" y="1034" font-size="9" font-weight="800" fill="#7a4318" text-anchor="end">09</text>
<rect x="50" y="1026" width="8" height="8" rx="1.5" fill="#ff7a1a"/>
<text x="62" y="1034" font-size="10" font-weight="800" fill="#fff2df">gpt-5.4</text>
<text x="270" y="1034" font-size="9" font-weight="700" fill="#ffca88" text-anchor="end">5.2M</text>
<text x="380" y="1034" font-size="10" font-weight="900" fill="#fff2df" text-anchor="end">$5.83</text>
<rect x="280" y="1029" width="80" height="3" fill="#24160d"/>
<rect x="280" y="1029" width="1.00" height="3" fill="#ff7a1a" opacity="0.85"/>
<text x="46" y="1050" font-size="9" font-weight="800" fill="#7a4318" text-anchor="end">10</text>
<rect x="50" y="1042" width="8" height="8" rx="1.5" fill="#58a6ff"/>
<text x="62" y="1050" font-size="10" font-weight="800" fill="#fff2df">MiniMax-M2.5</text>
<text x="270" y="1050" font-size="9" font-weight="700" fill="#ffca88" text-anchor="end">26.6M</text>
<text x="380" y="1050" font-size="10" font-weight="900" fill="#fff2df" text-anchor="end">$4.97</text>
<rect x="280" y="1045" width="80" height="3" fill="#24160d"/>
<rect x="280" y="1045" width="1.00" height="3" fill="#58a6ff" opacity="0.85"/>
<rect x="30" y="1055" width="358" height="16" fill="#120904" opacity="0.55"/>
<text x="46" y="1066" font-size="9" font-weight="800" fill="#7a4318" text-anchor="end">11</text>
<rect x="50" y="1058" width="8" height="8" rx="1.5" fill="#d97757"/>
<text x="62" y="1066" font-size="10" font-weight="800" fill="#fff2df">claude-opus-4-6</text>
<text x="270" y="1066" font-size="9" font-weight="700" fill="#ffca88" text-anchor="end">1.5M</text>
<text x="380" y="1066" font-size="10" font-weight="900" fill="#fff2df" text-anchor="end">$2.17</text>
<rect x="280" y="1061" width="80" height="3" fill="#24160d"/>
<rect x="280" y="1061" width="1.00" height="3" fill="#d97757" opacity="0.85"/>
<text x="46" y="1082" font-size="9" font-weight="800" fill="#7a4318" text-anchor="end">12</text>
<rect x="50" y="1074" width="8" height="8" rx="1.5" fill="#58a6ff"/>
<text x="62" y="1082" font-size="10" font-weight="800" fill="#fff2df">MiniMax-M2.1</text>
<text x="270" y="1082" font-size="9" font-weight="700" fill="#ffca88" text-anchor="end">4.0M</text>
<text x="380" y="1082" font-size="10" font-weight="900" fill="#fff2df" text-anchor="end">$1.69</text>
<rect x="280" y="1077" width="80" height="3" fill="#24160d"/>
<rect x="280" y="1077" width="1.00" height="3" fill="#58a6ff" opacity="0.85"/>
<rect x="30" y="1087" width="358" height="16" fill="#120904" opacity="0.55"/>
<text x="46" y="1098" font-size="9" font-weight="800" fill="#7a4318" text-anchor="end">13</text>
<rect x="50" y="1090" width="8" height="8" rx="1.5" fill="#d97757"/>
<text x="62" y="1098" font-size="10" font-weight="800" fill="#fff2df">claude-sonnet-4-6</text>
<text x="270" y="1098" font-size="9" font-weight="700" fill="#ffca88" text-anchor="end">2.3M</text>
<text x="380" y="1098" font-size="10" font-weight="900" fill="#fff2df" text-anchor="end">$1.62</text>
<rect x="280" y="1093" width="80" height="3" fill="#24160d"/>
<rect x="280" y="1093" width="1.00" height="3" fill="#d97757" opacity="0.85"/>
<text x="46" y="1114" font-size="9" font-weight="800" fill="#7a4318" text-anchor="end">14</text>
<rect x="50" y="1106" width="8" height="8" rx="1.5" fill="#2dd4a3"/>
<text x="62" y="1114" font-size="10" font-weight="800" fill="#fff2df">gemini-3-pro-preview</text>
<text x="270" y="1114" font-size="9" font-weight="700" fill="#ffca88" text-anchor="end">450.7K</text>
<text x="380" y="1114" font-size="10" font-weight="900" fill="#fff2df" text-anchor="end">$0.82</text>
<rect x="280" y="1109" width="80" height="3" fill="#24160d"/>
<rect x="280" y="1109" width="1.00" height="3" fill="#2dd4a3" opacity="0.85"/>
<rect x="30" y="1119" width="358" height="16" fill="#120904" opacity="0.55"/>
<text x="46" y="1130" font-size="9" font-weight="800" fill="#7a4318" text-anchor="end">15</text>
<rect x="50" y="1122" width="8" height="8" rx="1.5" fill="#ff7a1a"/>
<text x="62" y="1130" font-size="10" font-weight="800" fill="#fff2df">gpt-5.3-codex-spark</text>
<text x="270" y="1130" font-size="9" font-weight="700" fill="#ffca88" text-anchor="end">226.6K</text>
<text x="380" y="1130" font-size="10" font-weight="900" fill="#fff2df" text-anchor="end">$0.61</text>
<rect x="280" y="1125" width="80" height="3" fill="#24160d"/>
<rect x="280" y="1125" width="1.00" height="3" fill="#ff7a1a" opacity="0.85"/>
<text x="46" y="1146" font-size="9" font-weight="800" fill="#7a4318" text-anchor="end">16</text>
<rect x="50" y="1138" width="8" height="8" rx="1.5" fill="#2dd4a3"/>
<text x="62" y="1146" font-size="10" font-weight="800" fill="#fff2df">gemini-2.5-pro</text>
<text x="270" y="1146" font-size="9" font-weight="700" fill="#ffca88" text-anchor="end">636.3K</text>
<text x="380" y="1146" font-size="10" font-weight="900" fill="#fff2df" text-anchor="end">$0.54</text>
<rect x="280" y="1141" width="80" height="3" fill="#24160d"/>
<rect x="280" y="1141" width="1.00" height="3" fill="#2dd4a3" opacity="0.85"/>
<rect x="30" y="1151" width="358" height="16" fill="#120904" opacity="0.55"/>
<text x="46" y="1162" font-size="9" font-weight="800" fill="#7a4318" text-anchor="end">17</text>
<rect x="50" y="1154" width="8" height="8" rx="1.5" fill="#d97757"/>
<text x="62" y="1162" font-size="10" font-weight="800" fill="#fff2df">claude-haiku-4-5</text>
<text x="270" y="1162" font-size="9" font-weight="700" fill="#ffca88" text-anchor="end">2.5M</text>
<text x="380" y="1162" font-size="10" font-weight="900" fill="#fff2df" text-anchor="end">$0.47</text>
<rect x="280" y="1157" width="80" height="3" fill="#24160d"/>
<rect x="280" y="1157" width="1.00" height="3" fill="#d97757" opacity="0.85"/>
<text x="46" y="1178" font-size="9" font-weight="800" fill="#7a4318" text-anchor="end">18</text>
<rect x="50" y="1170" width="8" height="8" rx="1.5" fill="#ff7a1a"/>
<text x="62" y="1178" font-size="10" font-weight="800" fill="#fff2df">gpt-5.1-codex</text>
<text x="270" y="1178" font-size="9" font-weight="700" fill="#ffca88" text-anchor="end">160.9K</text>
<text x="380" y="1178" font-size="10" font-weight="900" fill="#fff2df" text-anchor="end">$0.17</text>
<rect x="280" y="1173" width="80" height="3" fill="#24160d"/>
<rect x="280" y="1173" width="1.00" height="3" fill="#ff7a1a" opacity="0.85"/>
<rect x="30" y="1183" width="358" height="16" fill="#120904" opacity="0.55"/>
<text x="46" y="1194" font-size="9" font-weight="800" fill="#7a4318" text-anchor="end">19</text>
<rect x="50" y="1186" width="8" height="8" rx="1.5" fill="#d97757"/>
<text x="62" y="1194" font-size="10" font-weight="800" fill="#fff2df">claude-sonnet-4-5</text>
<text x="270" y="1194" font-size="9" font-weight="700" fill="#ffca88" text-anchor="end">25.2K</text>
<text x="380" y="1194" font-size="10" font-weight="900" fill="#fff2df" text-anchor="end">$0.09</text>
<rect x="280" y="1189" width="80" height="3" fill="#24160d"/>
<rect x="280" y="1189" width="1.00" height="3" fill="#d97757" opacity="0.85"/>
<text x="46" y="1210" font-size="9" font-weight="800" fill="#7a4318" text-anchor="end">20</text>
<rect x="50" y="1202" width="8" height="8" rx="1.5" fill="#ffb057"/>
<text x="62" y="1210" font-size="10" font-weight="800" fill="#fff2df">claude-opus-4-5</text>
<text x="270" y="1210" font-size="9" font-weight="700" fill="#ffca88" text-anchor="end">15.6K</text>
<text x="380" y="1210" font-size="10" font-weight="900" fill="#fff2df" text-anchor="end">$0.02</text>
<rect x="280" y="1205" width="80" height="3" fill="#24160d"/>
<rect x="280" y="1205" width="1.00" height="3" fill="#ffb057" opacity="0.85"/>
<rect x="30" y="1215" width="358" height="16" fill="#120904" opacity="0.55"/>
<text x="46" y="1226" font-size="9" font-weight="800" fill="#7a4318" text-anchor="end">21</text>
<rect x="50" y="1218" width="8" height="8" rx="1.5" fill="#2dd4a3"/>
<text x="62" y="1226" font-size="10" font-weight="800" fill="#fff2df">gemini-2.5-flash</text>
<text x="270" y="1226" font-size="9" font-weight="700" fill="#ffca88" text-anchor="end">24.0K</text>
<text x="380" y="1226" font-size="10" font-weight="900" fill="#fff2df" text-anchor="end">$0.01</text>
<rect x="280" y="1221" width="80" height="3" fill="#24160d"/>
<rect x="280" y="1221" width="1.00" height="3" fill="#2dd4a3" opacity="0.85"/>
<text x="46" y="1242" font-size="9" font-weight="800" fill="#7a4318" text-anchor="end">22</text>
<rect x="50" y="1234" width="8" height="8" rx="1.5" fill="#888888"/>
<text x="62" y="1242" font-size="10" font-weight="800" fill="#fff2df">big-pickle</text>
<text x="270" y="1242" font-size="9" font-weight="700" fill="#ffca88" text-anchor="end">34.9K</text>
<text x="380" y="1242" font-size="10" font-weight="900" fill="#fff2df" text-anchor="end">$0.00</text>
<rect x="280" y="1237" width="80" height="3" fill="#24160d"/>
<rect x="280" y="1237" width="1.00" height="3" fill="#888888" opacity="0.85"/>
</g>
<text x="28" y="1270" font-size="9" font-weight="650" fill="#cc6b2c" font-family="ui-monospace, SFMono-Regular, Menlo, Consolas, monospace">01001100 // 22 models · 6 agents · cost-by-model</text>
</svg>