<svg xmlns="http://www.w3.org/2000/svg" width="420" height="1040" viewBox="0 0 420 1040" role="img" aria-labelledby="title desc">
  <title id="title">Codex Usage Dashboard Mobile</title>
  <desc id="desc">Mobile Codex usage snapshot: 14.4B tokens, 93.5% cache hit, $13,437.98 cost with peak chart, token mix, model share, and per-model cost breakdown.</desc>
  <defs>
    <linearGradient id="panel" x1="0" x2="1" y1="0" y2="1">
      <stop offset="0%" stop-color="#160b04"/>
      <stop offset="64%" stop-color="#0c0806"/>
      <stop offset="100%" stop-color="#221004"/>
    </linearGradient>
    <linearGradient id="peakArea" x1="0" x2="0" y1="0" y2="1">
      <stop offset="0%" stop-color="#ffb057" stop-opacity="0.95"/>
      <stop offset="40%" stop-color="#ff7a1a" stop-opacity="0.50"/>
      <stop offset="100%" stop-color="#ff4d00" stop-opacity="0.02"/>
    </linearGradient>
    <linearGradient id="peakStroke" x1="0" x2="1" y1="0" y2="0">
      <stop offset="0%" stop-color="#ff7a1a"/>
      <stop offset="80%" stop-color="#ffb057"/>
      <stop offset="100%" stop-color="#ffd08a"/>
    </linearGradient>
    <linearGradient id="cacheBar" x1="0" x2="1" y1="0" y2="0">
      <stop offset="0%" stop-color="#0f5b48"/>
      <stop offset="100%" stop-color="#2dd4a3"/>
    </linearGradient>
    <linearGradient id="m1" x1="0" x2="1" y1="0" y2="0"><stop offset="0%" stop-color="#cc3a00"/><stop offset="100%" stop-color="#ff7a1a"/></linearGradient>
    <filter id="peakGlow" x="-60%" y="-60%" width="220%" height="220%">
      <feGaussianBlur stdDeviation="3.5" result="b"/>
      <feMerge><feMergeNode in="b"/><feMergeNode in="SourceGraphic"/></feMerge>
    </filter>
  </defs>

  <rect width="420" height="1040" rx="16" fill="#050403"/>
  <rect x="12" y="12" width="396" height="1016" rx="16" fill="url(#panel)" stroke="#ff7a1a" stroke-width="1.6"/>

  <g stroke="#3b2111" stroke-width="1" opacity="0.22">
    <path d="M18 58 H402"/><path d="M18 90 H402"/><path d="M18 122 H402"/><path d="M18 154 H402"/><path d="M18 186 H402"/><path d="M18 218 H402"/><path d="M18 250 H402"/><path d="M18 282 H402"/><path d="M18 314 H402"/><path d="M18 346 H402"/><path d="M18 378 H402"/><path d="M18 410 H402"/><path d="M18 442 H402"/><path d="M18 474 H402"/><path d="M18 506 H402"/><path d="M18 538 H402"/><path d="M18 570 H402"/><path d="M18 602 H402"/><path d="M18 634 H402"/><path d="M18 666 H402"/><path d="M18 698 H402"/><path d="M18 730 H402"/><path d="M18 762 H402"/><path d="M18 794 H402"/><path d="M18 826 H402"/><path d="M18 858 H402"/><path d="M18 890 H402"/><path d="M18 922 H402"/><path d="M18 954 H402"/><path d="M18 986 H402"/><path d="M18 1018 H402"/>
  </g>
  <g stroke="#3b2111" stroke-width="1" opacity="0.16">
    <path d="M28 42 L-180 1024"/><path d="M76 42 L-132 1024"/><path d="M124 42 L-84 1024"/><path d="M172 42 L-36 1024"/><path d="M220 42 L12 1024"/><path d="M268 42 L60 1024"/><path d="M316 42 L108 1024"/><path d="M364 42 L156 1024"/><path d="M412 42 L204 1024"/>
  </g>

  <g font-family="ui-monospace, SFMono-Regular, Menlo, Consolas, monospace">
    <text x="24" y="42" font-size="22" font-weight="900" fill="#ff8a22">:: CODEX_USAGE</text>
    <text x="24" y="62" font-size="10" font-weight="750" fill="#ffca88">&gt; Past 20 days · 20 active · 05-21 13:00</text>
    <g>
      <circle cx="378" cy="38" r="3" fill="#ff7a1a">
        <animate attributeName="opacity" values="0.25;1;0.25" dur="2s" repeatCount="indefinite"/>
      </circle>
      <text x="388" y="42" font-size="10" font-weight="900" fill="#ff8a22" text-anchor="end">LIVE</text>
    </g>
  </g>

  <g font-family="ui-monospace, SFMono-Regular, Menlo, Consolas, monospace">
    <rect x="24" y="82" width="372" height="86" rx="10" fill="#15100c" stroke="#ff8a22" stroke-opacity="0.78"/>
    <rect x="36" y="94" width="348" height="2" fill="#ff8a22" opacity="0.75"/>
    <text x="40" y="120" font-size="11" font-weight="850" fill="#ffb057">TOTAL TOKENS</text>
    <text x="40" y="152" font-size="34" font-weight="900" fill="#fff2df">14.4B</text>
    <text x="380" y="120" font-size="10" font-weight="800" fill="#2dd4a3" text-anchor="end">▲ accelerating</text>
    <text x="380" y="138" font-size="9" font-weight="800" fill="#ffd08a" text-anchor="end">955.4M / day</text>
    <text x="380" y="156" font-size="9" font-weight="800" fill="#ffd08a" text-anchor="end">peak 3.6B · today</text>
  </g>

  <g font-family="ui-monospace, SFMono-Regular, Menlo, Consolas, monospace">
    <g>
      <rect x="24" y="180" width="181" height="60" rx="8" fill="#15100c" stroke="#16745b" stroke-opacity="0.85"/>
      <rect x="32" y="188" width="165" height="2" fill="#2dd4a3" opacity="0.85"/>
      <text x="38" y="208" font-size="10" font-weight="800" fill="#ffb057">CACHE HIT</text>
      <text x="38" y="230" font-size="20" font-weight="900" fill="#fff2df">93.5%</text>
      <text x="197" y="234" font-size="8" font-weight="800" fill="#2dd4a3" text-anchor="end">13.4B cached</text>
    </g>
    <g>
      <rect x="215" y="180" width="181" height="60" rx="8" fill="#15100c" stroke="#ff4d00" stroke-opacity="0.72"/>
      <rect x="223" y="188" width="165" height="2" fill="#ff4d00" opacity="0.7"/>
      <text x="229" y="208" font-size="10" font-weight="800" fill="#ffb057">COST</text>
      <text x="229" y="230" font-size="18" font-weight="900" fill="#fff2df">$13,437.98</text>
      <text x="388" y="208" font-size="8" font-weight="800" fill="#ffd08a" text-anchor="end">$672 / day</text>
    </g>
    <g>
      <rect x="24" y="250" width="181" height="60" rx="8" fill="#15100c" stroke="#f06d19" stroke-opacity="0.72"/>
      <rect x="32" y="258" width="165" height="2" fill="#f06d19" opacity="0.7"/>
      <text x="38" y="278" font-size="10" font-weight="800" fill="#ffb057">SAVINGS</text>
      <text x="38" y="300" font-size="18" font-weight="900" fill="#fff2df">$60,427.68</text>
      <text x="197" y="278" font-size="8" font-weight="800" fill="#ffd08a" text-anchor="end">vs no-cache</text>
    </g>
    <g>
      <rect x="215" y="250" width="181" height="60" rx="8" fill="#15100c" stroke="#ff8a22" stroke-opacity="0.72"/>
      <rect x="223" y="258" width="165" height="2" fill="#ff8a22" opacity="0.7"/>
      <text x="229" y="278" font-size="10" font-weight="800" fill="#ffb057">SESSIONS</text>
      <text x="229" y="300" font-size="20" font-weight="900" fill="#fff2df">3,858</text>
      <text x="388" y="304" font-size="8" font-weight="800" fill="#ffd08a" text-anchor="end">193 / day</text>
    </g>
  </g>

  <g font-family="ui-monospace, SFMono-Regular, Menlo, Consolas, monospace">
    <rect x="24" y="322" width="372" height="184" rx="10" fill="#0d0907" stroke="#ff7a1a" stroke-opacity="0.76"/>
    <path d="M38 358 H382" stroke="#ff7a1a" stroke-width="1" opacity="0.7"/>
    <text x="38" y="348" font-size="13" font-weight="900" fill="#ff8a22">[01] PEAK CHART · 14d</text>
    <text x="382" y="348" font-size="9" font-weight="800" fill="#ffd08a" text-anchor="end">↑ 3.6B · today</text>

    <g font-size="8" font-weight="800" fill="#7a4318">
      <text x="40" y="365" text-anchor="end">5B</text>
      <text x="40" y="418" text-anchor="end">2.5B</text>
      <text x="40" y="473" text-anchor="end">0</text>
    </g>
    <g stroke="#4b2a13" stroke-width="1" opacity="0.55" stroke-dasharray="2 4">
      <path d="M46 362 H388"/>
      <path d="M46 416 H388"/>
    </g>
    <path d="M46 470 H388" stroke="#6c3a16" stroke-width="1"/>

    <path d="M46,470 L46,458.68 L72.31,456.49 L98.62,462.40 L124.92,466.22 L151.23,456.91 L177.54,460.37 L203.85,451.82 L230.15,459.17 L256.46,458.94 L282.77,450.02 L309.08,457.09 L335.38,453.39 L361.69,407.36 L388,392.24 L388,470 Z" fill="url(#peakArea)"/>
    <path d="M46,458.68 L72.31,456.49 L98.62,462.40 L124.92,466.22 L151.23,456.91 L177.54,460.37 L203.85,451.82 L230.15,459.17 L256.46,458.94 L282.77,450.02 L309.08,457.09 L335.38,453.39 L361.69,407.36 L388,392.24" fill="none" stroke="url(#peakStroke)" stroke-width="2" stroke-linejoin="round" stroke-linecap="round"/>

    <g fill="#0d0907" stroke="#ffb057" stroke-width="1.1">
      <circle cx="46" cy="458.68" r="1.8"/>
      <circle cx="72.31" cy="456.49" r="1.8"/>
      <circle cx="98.62" cy="462.40" r="1.8"/>
      <circle cx="151.23" cy="456.91" r="1.8"/>
      <circle cx="177.54" cy="460.37" r="1.8"/>
      <circle cx="203.85" cy="451.82" r="1.8"/>
      <circle cx="230.15" cy="459.17" r="1.8"/>
      <circle cx="256.46" cy="458.94" r="1.8"/>
      <circle cx="282.77" cy="450.02" r="1.8"/>
      <circle cx="309.08" cy="457.09" r="1.8"/>
      <circle cx="335.38" cy="453.39" r="1.8"/>
    </g>
    <circle cx="124.92" cy="466.22" r="3" fill="#1b0e07" stroke="#7a4318" stroke-width="1.2"/>
    <circle cx="361.69" cy="407.36" r="3" fill="#1b0e07" stroke="#ffb057" stroke-width="1.2"/>

    <g>
      <circle cx="388" cy="392.24" r="9" fill="#ff4d00" opacity="0.30"/>
      <circle cx="388" cy="392.24" r="5.5" fill="#ff8a22" filter="url(#peakGlow)"/>
      <circle cx="388" cy="392.24" r="2.5" fill="#fff2df"/>
    </g>

    <g font-size="9" font-weight="800" fill="#ffca88">
      <text x="46" y="484" text-anchor="middle">05-08</text>
      <text x="124.92" y="484" text-anchor="middle">05-11</text>
      <text x="203.85" y="484" text-anchor="middle">05-14</text>
      <text x="282.77" y="484" text-anchor="middle">05-17</text>
      <text x="361.69" y="484" text-anchor="middle">05-20</text>
    </g>
    <g font-size="9" font-weight="850">
      <text x="38" y="499" fill="#cc6b2c">avg</text>
      <text x="64" y="499" fill="#fff2df">955.4M</text>
      <text x="124" y="499" fill="#cc6b2c">7d</text>
      <text x="142" y="499" fill="#fff2df">9.80B</text>
      <text x="194" y="499" fill="#cc6b2c">peak vs avg</text>
      <text x="270" y="499" fill="#2dd4a3">+277%</text>
      <text x="382" y="499" fill="#2dd4a3" text-anchor="end">▲</text>
    </g>
  </g>

  <g font-family="ui-monospace, SFMono-Regular, Menlo, Consolas, monospace">
    <rect x="24" y="516" width="372" height="146" rx="10" fill="#0d0907" stroke="#ff7a1a" stroke-opacity="0.76"/>
    <path d="M38 550 H382" stroke="#ff7a1a" stroke-width="1" opacity="0.7"/>
    <text x="38" y="540" font-size="13" font-weight="900" fill="#ff8a22">[02] TOKEN MIX</text>
    <text x="382" y="540" font-size="9" font-weight="800" fill="#ffd08a" text-anchor="end">14.4B total</text>

    <rect x="38" y="560" width="344" height="12" rx="4" fill="#24160d" stroke="#4b2a13"/>
    <rect x="38" y="560" width="320" height="12" rx="4" fill="url(#cacheBar)"/>
    <rect x="358" y="560" width="22" height="12" fill="#58a6ff"/>
    <rect x="380" y="560" width="2" height="12" fill="#ff8a22"/>

    <g>
      <rect x="38" y="586" width="9" height="9" rx="2" fill="#2dd4a3"/>
      <text x="52" y="595" font-size="11" font-weight="800" fill="#fff2df">Cached</text>
      <text x="380" y="595" font-size="11" font-weight="900" fill="#fff2df" text-anchor="end">13.40B · 92.91%</text>
    </g>
    <g>
      <rect x="38" y="608" width="9" height="9" rx="2" fill="#58a6ff"/>
      <text x="52" y="617" font-size="11" font-weight="800" fill="#fff2df">Non-cached</text>
      <text x="380" y="617" font-size="11" font-weight="900" fill="#fff2df" text-anchor="end">928.3M · 6.44%</text>
    </g>
    <g>
      <rect x="38" y="630" width="9" height="9" rx="2" fill="#ff8a22"/>
      <text x="52" y="639" font-size="11" font-weight="800" fill="#fff2df">Output</text>
      <text x="380" y="639" font-size="11" font-weight="900" fill="#fff2df" text-anchor="end">69.6M · 0.48%</text>
    </g>
    <g>
      <rect x="38" y="652" width="9" height="9" rx="2" fill="#b779ff"/>
      <text x="52" y="661" font-size="11" font-weight="800" fill="#fff2df">Reasoning</text>
      <text x="380" y="661" font-size="11" font-weight="900" fill="#fff2df" text-anchor="end">24.9M · 0.17%</text>
    </g>
  </g>

  <g font-family="ui-monospace, SFMono-Regular, Menlo, Consolas, monospace">
    <rect x="24" y="672" width="372" height="160" rx="10" fill="#0d0907" stroke="#ff7a1a" stroke-opacity="0.76"/>
    <path d="M38 706 H382" stroke="#ff7a1a" stroke-width="1" opacity="0.7"/>
    <text x="38" y="696" font-size="13" font-weight="900" fill="#ff8a22">[03] MODEL SHARE</text>
    <text x="382" y="696" font-size="9" font-weight="800" fill="#ffd08a" text-anchor="end">5 · 14.4B total</text>

    <rect x="38" y="716" width="344" height="12" rx="4" fill="#24160d" stroke="#4b2a13"/>
    <rect x="38" y="716" width="332" height="12" rx="4" fill="url(#m1)"/>
    <rect x="370" y="716" width="5" height="12" fill="#ffb057"/>
    <rect x="375" y="716" width="3" height="12" fill="#ffd08a"/>
    <rect x="378" y="716" width="2" height="12" fill="#58a6ff"/>
    <rect x="380" y="716" width="2" height="12" fill="#2dd4a3"/>

    <g>
      <rect x="38" y="744" width="9" height="9" rx="2" fill="#ff7a1a"/>
      <text x="52" y="753" font-size="11" font-weight="800" fill="#fff2df">gpt-5.5</text>
      <text x="380" y="753" font-size="11" font-weight="900" fill="#fff2df" text-anchor="end">14.4B · 99.85%</text>
    </g>
    <g>
      <rect x="38" y="762" width="9" height="9" rx="2" fill="#ffb057"/>
      <text x="52" y="771" font-size="11" font-weight="800" fill="#fff2df">gpt-5.2</text>
      <text x="380" y="771" font-size="11" font-weight="900" fill="#fff2df" text-anchor="end">17.8M · 0.123%</text>
    </g>
    <g>
      <rect x="38" y="780" width="9" height="9" rx="2" fill="#ffd08a"/>
      <text x="52" y="789" font-size="11" font-weight="800" fill="#fff2df">gpt-5.4</text>
      <text x="380" y="789" font-size="11" font-weight="900" fill="#fff2df" text-anchor="end">3.8M · 0.026%</text>
    </g>
    <g>
      <rect x="38" y="798" width="9" height="9" rx="2" fill="#58a6ff"/>
      <text x="52" y="807" font-size="11" font-weight="800" fill="#fff2df">gpt-5.3-codex</text>
      <text x="380" y="807" font-size="11" font-weight="900" fill="#fff2df" text-anchor="end">308.8K · &lt;0.01%</text>
    </g>
    <g>
      <rect x="38" y="816" width="9" height="9" rx="2" fill="#2dd4a3"/>
      <text x="52" y="825" font-size="11" font-weight="800" fill="#fff2df">gpt-5.3-codex-spark</text>
      <text x="380" y="825" font-size="11" font-weight="900" fill="#fff2df" text-anchor="end">164.2K · &lt;0.01%</text>
    </g>
  </g>

  <g font-family="ui-monospace, SFMono-Regular, Menlo, Consolas, monospace">
    <rect x="24" y="842" width="372" height="160" rx="10" fill="#0d0907" stroke="#ff7a1a" stroke-opacity="0.76"/>
    <path d="M38 876 H382" stroke="#ff7a1a" stroke-width="1" opacity="0.7"/>
    <text x="38" y="866" font-size="13" font-weight="900" fill="#ff8a22">[04] COST BY MODEL</text>
    <text x="382" y="866" font-size="9" font-weight="800" fill="#ffd08a" text-anchor="end">5 · $13,437.98</text>

    <rect x="38" y="886" width="344" height="12" rx="4" fill="#24160d" stroke="#4b2a13"/>
    <rect x="38" y="886" width="332" height="12" rx="4" fill="url(#m1)"/>
    <rect x="370" y="886" width="5" height="12" fill="#ffb057"/>
    <rect x="375" y="886" width="3" height="12" fill="#ffd08a"/>
    <rect x="378" y="886" width="2" height="12" fill="#58a6ff"/>
    <rect x="380" y="886" width="2" height="12" fill="#2dd4a3"/>

    <g>
      <rect x="38" y="914" width="9" height="9" rx="2" fill="#ff7a1a"/>
      <text x="52" y="923" font-size="11" font-weight="800" fill="#fff2df">gpt-5.5</text>
      <text x="380" y="923" font-size="11" font-weight="900" fill="#fff2df" text-anchor="end">$13,417.41 · 99.85%</text>
    </g>
    <g>
      <rect x="38" y="932" width="9" height="9" rx="2" fill="#ffb057"/>
      <text x="52" y="941" font-size="11" font-weight="800" fill="#fff2df">gpt-5.2</text>
      <text x="380" y="941" font-size="11" font-weight="900" fill="#fff2df" text-anchor="end">$16.59 · 0.123%</text>
    </g>
    <g>
      <rect x="38" y="950" width="9" height="9" rx="2" fill="#ffd08a"/>
      <text x="52" y="959" font-size="11" font-weight="800" fill="#fff2df">gpt-5.4</text>
      <text x="380" y="959" font-size="11" font-weight="900" fill="#fff2df" text-anchor="end">$3.54 · 0.026%</text>
    </g>
    <g>
      <rect x="38" y="968" width="9" height="9" rx="2" fill="#58a6ff"/>
      <text x="52" y="977" font-size="11" font-weight="800" fill="#fff2df">gpt-5.3-codex</text>
      <text x="380" y="977" font-size="11" font-weight="900" fill="#fff2df" text-anchor="end">$0.29 · &lt;0.01%</text>
    </g>
    <g>
      <rect x="38" y="986" width="9" height="9" rx="2" fill="#2dd4a3"/>
      <text x="52" y="995" font-size="11" font-weight="800" fill="#fff2df">gpt-5.3-codex-spark</text>
      <text x="380" y="995" font-size="11" font-weight="900" fill="#fff2df" text-anchor="end">$0.15 · &lt;0.01%</text>
    </g>
  </g>

  <text x="28" y="1024" font-size="9" font-weight="650" fill="#cc6b2c" font-family="ui-monospace, SFMono-Regular, Menlo, Consolas, monospace">01001100 // peak.chart · cost-by-model · README_MOBILE_RENDER</text>
</svg>
