<svg xmlns="http://www.w3.org/2000/svg" width="1040" height="650" viewBox="0 0 1040 650" role="img" aria-labelledby="title desc">
  <title id="title">Codex Usage Dashboard</title>
  <desc id="desc">Public aggregate Codex usage snapshot with totals, daily volume, model share, token mix, and update time.</desc>
  <defs>
    <linearGradient id="header" x1="0" x2="1" y1="0" y2="1">
      <stop offset="0%" stop-color="#f5faf7"/>
      <stop offset="100%" stop-color="#eef4fb"/>
    </linearGradient>
  </defs>
  <rect width="1040" height="650" rx="18" fill="#f7f9f8"/>
  <rect x="24" y="24" width="992" height="602" rx="16" fill="url(#header)" stroke="#d6e0dc"/>
  <text x="48" y="66" font-size="28" font-weight="850" fill="#14211f" text-anchor="start">Codex Usage Dashboard</text>
  <text x="48" y="96" font-size="14" font-weight="600" fill="#5a6770" text-anchor="start">Past 14 days · Updated just now · 2026-05-13T16:14:12+08:00</text>
  
  <g>
    <rect x="48" y="126" width="148" height="76" rx="10" fill="#ffffff" stroke="#d9e2dc"/>
    <rect x="48" y="126" width="5" height="76" rx="3" fill="#16745b"/>
    <text x="66" y="154" font-size="13" font-weight="700" fill="#5a6770" text-anchor="start">Total tokens</text>
    <text x="66" y="184" font-size="23" font-weight="800" fill="#172026" text-anchor="start">4.4B</text>
  </g>
  
  <g>
    <rect x="212" y="126" width="148" height="76" rx="10" fill="#ffffff" stroke="#d9e2dc"/>
    <rect x="212" y="126" width="5" height="76" rx="3" fill="#2f80ed"/>
    <text x="230" y="154" font-size="13" font-weight="700" fill="#5a6770" text-anchor="start">Est. cost</text>
    <text x="230" y="184" font-size="23" font-weight="800" fill="#172026" text-anchor="start">$3,735.60</text>
  </g>
  
  <g>
    <rect x="376" y="126" width="148" height="76" rx="10" fill="#ffffff" stroke="#d9e2dc"/>
    <rect x="376" y="126" width="5" height="76" rx="3" fill="#c77d21"/>
    <text x="394" y="154" font-size="13" font-weight="700" fill="#5a6770" text-anchor="start">Cache hit</text>
    <text x="394" y="184" font-size="23" font-weight="800" fill="#172026" text-anchor="start">95.1%</text>
  </g>
  
  <g>
    <rect x="540" y="126" width="148" height="76" rx="10" fill="#ffffff" stroke="#d9e2dc"/>
    <rect x="540" y="126" width="5" height="76" rx="3" fill="#9a5bd7"/>
    <text x="558" y="154" font-size="13" font-weight="700" fill="#5a6770" text-anchor="start">Cache savings</text>
    <text x="558" y="184" font-size="23" font-weight="800" fill="#172026" text-anchor="start">$18,741.26</text>
  </g>
  
  <g>
    <rect x="704" y="126" width="128" height="76" rx="10" fill="#ffffff" stroke="#d9e2dc"/>
    <rect x="704" y="126" width="5" height="76" rx="3" fill="#0f8b8d"/>
    <text x="722" y="154" font-size="13" font-weight="700" fill="#5a6770" text-anchor="start">Sessions</text>
    <text x="722" y="184" font-size="23" font-weight="800" fill="#172026" text-anchor="start">944</text>
  </g>
  
  <g>
    <rect x="848" y="126" width="128" height="76" rx="10" fill="#ffffff" stroke="#d9e2dc"/>
    <rect x="848" y="126" width="5" height="76" rx="3" fill="#b85c38"/>
    <text x="866" y="154" font-size="13" font-weight="700" fill="#5a6770" text-anchor="start">Active days</text>
    <text x="866" y="184" font-size="23" font-weight="800" fill="#172026" text-anchor="start">13</text>
  </g>
  <rect x="48" y="252" width="530" height="322" rx="12" fill="#ffffff" stroke="#d9e2dc"/>
  <text x="72" y="288" font-size="17" font-weight="800" fill="#172026" text-anchor="start">Daily token volume</text>
  
  <g>
    <text x="48" y="320" font-size="12" font-weight="650" fill="#43515a" text-anchor="start">04-30</text>
    <rect x="102" y="310" width="400" height="13" rx="5" fill="#edf2ef"/>
    <rect x="102" y="310" width="3" height="13" rx="5" fill="#16745b"/>
    <text x="532" y="320" font-size="12" font-weight="700" fill="#1f2933" text-anchor="end">50.5K</text>
  </g>
  <g>
    <text x="48" y="339" font-size="12" font-weight="650" fill="#43515a" text-anchor="start">05-01</text>
    <rect x="102" y="329" width="400" height="13" rx="5" fill="#edf2ef"/>
    <rect x="102" y="329" width="0" height="13" rx="5" fill="#16745b"/>
    <text x="532" y="339" font-size="12" font-weight="700" fill="#1f2933" text-anchor="end">0</text>
  </g>
  <g>
    <text x="48" y="358" font-size="12" font-weight="650" fill="#43515a" text-anchor="start">05-02</text>
    <rect x="102" y="348" width="400" height="13" rx="5" fill="#edf2ef"/>
    <rect x="102" y="348" width="12" height="13" rx="5" fill="#16745b"/>
    <text x="532" y="358" font-size="12" font-weight="700" fill="#1f2933" text-anchor="end">25.2M</text>
  </g>
  <g>
    <text x="48" y="377" font-size="12" font-weight="650" fill="#43515a" text-anchor="start">05-03</text>
    <rect x="102" y="367" width="400" height="13" rx="5" fill="#edf2ef"/>
    <rect x="102" y="367" width="51" height="13" rx="5" fill="#16745b"/>
    <text x="532" y="377" font-size="12" font-weight="700" fill="#1f2933" text-anchor="end">107.5M</text>
  </g>
  <g>
    <text x="48" y="396" font-size="12" font-weight="650" fill="#43515a" text-anchor="start">05-04</text>
    <rect x="102" y="386" width="400" height="13" rx="5" fill="#edf2ef"/>
    <rect x="102" y="386" width="73" height="13" rx="5" fill="#16745b"/>
    <text x="532" y="396" font-size="12" font-weight="700" fill="#1f2933" text-anchor="end">153.3M</text>
  </g>
  <g>
    <text x="48" y="415" font-size="12" font-weight="650" fill="#43515a" text-anchor="start">05-05</text>
    <rect x="102" y="405" width="400" height="13" rx="5" fill="#edf2ef"/>
    <rect x="102" y="405" width="105" height="13" rx="5" fill="#16745b"/>
    <text x="532" y="415" font-size="12" font-weight="700" fill="#1f2933" text-anchor="end">220.9M</text>
  </g>
  <g>
    <text x="48" y="434" font-size="12" font-weight="650" fill="#43515a" text-anchor="start">05-06</text>
    <rect x="102" y="424" width="400" height="13" rx="5" fill="#edf2ef"/>
    <rect x="102" y="424" width="50" height="13" rx="5" fill="#16745b"/>
    <text x="532" y="434" font-size="12" font-weight="700" fill="#1f2933" text-anchor="end">105.6M</text>
  </g>
  <g>
    <text x="48" y="453" font-size="12" font-weight="650" fill="#43515a" text-anchor="start">05-07</text>
    <rect x="102" y="443" width="400" height="13" rx="5" fill="#edf2ef"/>
    <rect x="102" y="443" width="207" height="13" rx="5" fill="#16745b"/>
    <text x="532" y="453" font-size="12" font-weight="700" fill="#1f2933" text-anchor="end">433.9M</text>
  </g>
  <g>
    <text x="48" y="472" font-size="12" font-weight="650" fill="#43515a" text-anchor="start">05-08</text>
    <rect x="102" y="462" width="400" height="13" rx="5" fill="#edf2ef"/>
    <rect x="102" y="462" width="251" height="13" rx="5" fill="#16745b"/>
    <text x="532" y="472" font-size="12" font-weight="700" fill="#1f2933" text-anchor="end">524.2M</text>
  </g>
  <g>
    <text x="48" y="491" font-size="12" font-weight="650" fill="#43515a" text-anchor="start">05-09</text>
    <rect x="102" y="481" width="400" height="13" rx="5" fill="#edf2ef"/>
    <rect x="102" y="481" width="299" height="13" rx="5" fill="#16745b"/>
    <text x="532" y="491" font-size="12" font-weight="700" fill="#1f2933" text-anchor="end">625.3M</text>
  </g>
  <g>
    <text x="48" y="510" font-size="12" font-weight="650" fill="#43515a" text-anchor="start">05-10</text>
    <rect x="102" y="500" width="400" height="13" rx="5" fill="#edf2ef"/>
    <rect x="102" y="500" width="168" height="13" rx="5" fill="#16745b"/>
    <text x="532" y="510" font-size="12" font-weight="700" fill="#1f2933" text-anchor="end">352.0M</text>
  </g>
  <g>
    <text x="48" y="529" font-size="12" font-weight="650" fill="#43515a" text-anchor="start">05-11</text>
    <rect x="102" y="519" width="400" height="13" rx="5" fill="#edf2ef"/>
    <rect x="102" y="519" width="93" height="13" rx="5" fill="#16745b"/>
    <text x="532" y="529" font-size="12" font-weight="700" fill="#1f2933" text-anchor="end">196.1M</text>
  </g>
  <g>
    <text x="48" y="548" font-size="12" font-weight="650" fill="#43515a" text-anchor="start">05-12</text>
    <rect x="102" y="538" width="400" height="13" rx="5" fill="#edf2ef"/>
    <rect x="102" y="538" width="391" height="13" rx="5" fill="#16745b"/>
    <text x="532" y="548" font-size="12" font-weight="700" fill="#1f2933" text-anchor="end">818.1M</text>
  </g>
  <g>
    <text x="48" y="567" font-size="12" font-weight="650" fill="#43515a" text-anchor="start">05-13</text>
    <rect x="102" y="557" width="400" height="13" rx="5" fill="#edf2ef"/>
    <rect x="102" y="557" width="400" height="13" rx="5" fill="#16745b"/>
    <text x="532" y="567" font-size="12" font-weight="700" fill="#1f2933" text-anchor="end">835.3M</text>
  </g>
  <rect x="616" y="252" width="376" height="160" rx="12" fill="#ffffff" stroke="#d9e2dc"/>
  <text x="640" y="288" font-size="17" font-weight="800" fill="#172026" text-anchor="start">Model share</text>
  
  <g>
    <text x="640" y="320" font-size="12" font-weight="650" fill="#43515a" text-anchor="start">gpt-5.5</text>
    <rect x="776" y="310" width="210" height="14" rx="5" fill="#edf2ef"/>
    <rect x="776" y="310" width="210" height="14" rx="5" fill="#2f80ed"/>
    <text x="970" y="320" font-size="12" font-weight="700" fill="#1f2933" text-anchor="end">4.4B</text>
  </g>
  <g>
    <text x="640" y="344" font-size="12" font-weight="650" fill="#43515a" text-anchor="start">gpt-5.3-codex-s...</text>
    <rect x="776" y="334" width="210" height="14" rx="5" fill="#edf2ef"/>
    <rect x="776" y="334" width="3" height="14" rx="5" fill="#2f80ed"/>
    <text x="970" y="344" font-size="12" font-weight="700" fill="#1f2933" text-anchor="end">164.2K</text>
  </g>
  <rect x="616" y="436" width="376" height="138" rx="12" fill="#ffffff" stroke="#d9e2dc"/>
  <text x="640" y="462" font-size="17" font-weight="800" fill="#172026" text-anchor="start">Token mix</text>
  
  <g>
    <text x="640" y="494" font-size="12" font-weight="650" fill="#43515a" text-anchor="start">Cached input</text>
    <rect x="776" y="484" width="210" height="14" rx="5" fill="#edf2ef"/>
    <rect x="776" y="484" width="210" height="14" rx="5" fill="#16745b"/>
    <text x="970" y="494" font-size="12" font-weight="700" fill="#1f2933" text-anchor="end">4.2B</text>
  </g>
  <g>
    <text x="640" y="522" font-size="12" font-weight="650" fill="#43515a" text-anchor="start">Non-cached input</text>
    <rect x="776" y="512" width="210" height="14" rx="5" fill="#edf2ef"/>
    <rect x="776" y="512" width="10" height="14" rx="5" fill="#2f80ed"/>
    <text x="970" y="522" font-size="12" font-weight="700" fill="#1f2933" text-anchor="end">212.9M</text>
  </g>
  <g>
    <text x="640" y="550" font-size="12" font-weight="650" fill="#43515a" text-anchor="start">Output</text>
    <rect x="776" y="540" width="210" height="14" rx="5" fill="#edf2ef"/>
    <rect x="776" y="540" width="3" height="14" rx="5" fill="#c77d21"/>
    <text x="970" y="550" font-size="12" font-weight="700" fill="#1f2933" text-anchor="end">19.6M</text>
  </g>
  <g>
    <text x="640" y="578" font-size="12" font-weight="650" fill="#43515a" text-anchor="start">Reasoning</text>
    <rect x="776" y="568" width="210" height="14" rx="5" fill="#edf2ef"/>
    <rect x="776" y="568" width="3" height="14" rx="5" fill="#9a5bd7"/>
    <text x="970" y="578" font-size="12" font-weight="700" fill="#1f2933" text-anchor="end">6.7M</text>
  </g>
  <text x="48" y="606" font-size="12" font-weight="600" fill="#64727a" text-anchor="start">Public aggregate snapshot. Local paths, prompts, transcripts, session ids, and secrets are not published.</text>
</svg>
