<svg xmlns="http://www.w3.org/2000/svg" width="420" height="1320" viewBox="0 0 420 1320" role="img" aria-labelledby="title desc">
<title id="title">Codex Usage Dashboard Mobile</title>
<desc id="desc">Mobile Codex usage: 71.6B tokens, 93.89% cache, $74,361 across 22 models and 6 agents.</desc>
<defs>
    <linearGradient id="panel" x1="0" x2="1" y1="0" y2="1"><stop offset="0%" stop-color="#160b04"/><stop offset="64%" stop-color="#0c0806"/><stop offset="100%" stop-color="#221004"/></linearGradient>
    <linearGradient id="peakArea" x1="0" x2="0" y1="0" y2="1"><stop offset="0%" stop-color="#ffb057" stop-opacity="0.95"/><stop offset="40%" stop-color="#ff7a1a" stop-opacity="0.50"/><stop offset="100%" stop-color="#ff4d00" stop-opacity="0.02"/></linearGradient>
    <linearGradient id="peakStroke" x1="0" x2="1" y1="0" y2="0"><stop offset="0%" stop-color="#ff7a1a"/><stop offset="80%" stop-color="#ffb057"/><stop offset="100%" stop-color="#ffd08a"/></linearGradient>
    <linearGradient id="cacheBar" x1="0" x2="1" y1="0" y2="0"><stop offset="0%" stop-color="#0f5b48"/><stop offset="100%" stop-color="#2dd4a3"/></linearGradient>
    <filter id="peakGlow" x="-60%" y="-60%" width="220%" height="220%"><feGaussianBlur stdDeviation="3.5" result="b"/><feMerge><feMergeNode in="b"/><feMergeNode in="SourceGraphic"/></feMerge></filter>
  </defs>
<rect width="420" height="1320" rx="16" fill="#050403"/>
<rect x="12" y="12" width="396" height="1296" rx="16" fill="url(#panel)" stroke="#ff7a1a" stroke-width="1.6"/>
<g stroke="#3b2111" stroke-width="1" opacity="0.20"><path d="M18 58 H402"/><path d="M18 90 H402"/><path d="M18 122 H402"/><path d="M18 154 H402"/><path d="M18 186 H402"/><path d="M18 218 H402"/><path d="M18 250 H402"/><path d="M18 282 H402"/><path d="M18 314 H402"/><path d="M18 346 H402"/><path d="M18 378 H402"/><path d="M18 410 H402"/><path d="M18 442 H402"/><path d="M18 474 H402"/><path d="M18 506 H402"/><path d="M18 538 H402"/><path d="M18 570 H402"/><path d="M18 602 H402"/><path d="M18 634 H402"/><path d="M18 666 H402"/><path d="M18 698 H402"/><path d="M18 730 H402"/><path d="M18 762 H402"/><path d="M18 794 H402"/><path d="M18 826 H402"/><path d="M18 858 H402"/><path d="M18 890 H402"/><path d="M18 922 H402"/><path d="M18 954 H402"/><path d="M18 986 H402"/><path d="M18 1018 H402"/><path d="M18 1050 H402"/><path d="M18 1082 H402"/><path d="M18 1114 H402"/><path d="M18 1146 H402"/><path d="M18 1178 H402"/><path d="M18 1210 H402"/><path d="M18 1242 H402"/><path d="M18 1274 H402"/><path d="M18 1306 H402"/></g>
<g font-family="ui-monospace, SFMono-Regular, Menlo, Consolas, monospace">
<text x="24" y="42" font-size="22" font-weight="900" fill="#ff8a22">:: CODEX_USAGE</text>
<text x="24" y="62" font-size="10" font-weight="750" fill="#ffca88">&gt; 248d · 88 active · 22 models · 6 agents</text>
<g><circle cx="378" cy="38" r="3" fill="#ff7a1a"><animate attributeName="opacity" values="0.25;1;0.25" dur="2s" repeatCount="indefinite"/></circle><text x="388" y="42" font-size="10" font-weight="900" fill="#ff8a22" text-anchor="end">LIVE</text></g>
</g>
<g font-family="ui-monospace, SFMono-Regular, Menlo, Consolas, monospace">
<rect x="24" y="82" width="372" height="86" rx="10" fill="#15100c" stroke="#ff8a22" stroke-opacity="0.78"/>
<rect x="36" y="94" width="348" height="2" fill="#ff8a22" opacity="0.75"/>
<text x="40" y="120" font-size="11" font-weight="850" fill="#ffb057">TOTAL TOKENS</text>
<text x="40" y="152" font-size="34" font-weight="900" fill="#fff2df">71.6B</text>
<text x="380" y="120" font-size="10" font-weight="800" fill="#2dd4a3" text-anchor="end">▲▲ accelerating</text>
<text x="380" y="138" font-size="9" font-weight="800" fill="#ffd08a" text-anchor="end">88 active / 248d</text>
<text x="380" y="156" font-size="9" font-weight="800" fill="#ffd08a" text-anchor="end">peak 32.4B · 05-20</text>
</g>
<g font-family="ui-monospace, SFMono-Regular, Menlo, Consolas, monospace">
    <g>
      <rect x="24" y="180" width="181" height="60" rx="8" fill="#15100c" stroke="#16745b" stroke-opacity="0.85"/>
      <text x="38" y="208" font-size="10" font-weight="800" fill="#ffb057">CACHE HIT</text>
      <text x="38" y="230" font-size="20" font-weight="900" fill="#fff2df">93.89%</text>
      <text x="197" y="234" font-size="8" font-weight="800" fill="#2dd4a3" text-anchor="end">66.9B cached</text>
    </g>
    <g>
      <rect x="215" y="180" width="181" height="60" rx="8" fill="#15100c" stroke="#ff4d00" stroke-opacity="0.72"/>
      <text x="229" y="208" font-size="10" font-weight="800" fill="#ffb057">COST</text>
      <text x="229" y="230" font-size="18" font-weight="900" fill="#fff2df">$74,361</text>
      <text x="388" y="208" font-size="8" font-weight="800" fill="#ffd08a" text-anchor="end">$845 / day</text>
    </g>
    <g>
      <rect x="24" y="250" width="181" height="60" rx="8" fill="#15100c" stroke="#f06d19" stroke-opacity="0.72"/>
      <text x="38" y="278" font-size="10" font-weight="800" fill="#ffb057">SESSIONS</text>
      <text x="38" y="300" font-size="20" font-weight="900" fill="#fff2df">4,147</text>
      <text x="197" y="278" font-size="8" font-weight="800" fill="#ffd08a" text-anchor="end">6 agents</text>
    </g>
    <g>
      <rect x="215" y="250" width="181" height="60" rx="8" fill="#15100c" stroke="#ff8a22" stroke-opacity="0.72"/>
      <text x="229" y="278" font-size="10" font-weight="800" fill="#ffb057">MODELS</text>
      <text x="229" y="300" font-size="20" font-weight="900" fill="#fff2df">22</text>
      <text x="388" y="278" font-size="8" font-weight="800" fill="#ffd08a" text-anchor="end">across 6 agents</text>
    </g>
    </g>
<g font-family="ui-monospace, SFMono-Regular, Menlo, Consolas, monospace">
<rect x="24" y="322" width="372" height="184" rx="10" fill="#0d0907" stroke="#ff7a1a" stroke-opacity="0.76"/>
<path d="M38 358 H382" stroke="#ff7a1a" stroke-width="1" opacity="0.7"/>
<text x="38" y="348" font-size="13" font-weight="900" fill="#ff8a22">[01] PEAK CHART · 14d · √</text>
<text x="382" y="348" font-size="9" font-weight="800" fill="#ffd08a" text-anchor="end">↑ 32.4B · 05-20</text>
<g font-size="8" font-weight="800" fill="#7a4318">
<text x="40" y="473.0" text-anchor="end">0</text>
<text x="40" y="460.1" text-anchor="end">500M</text>
<text x="40" y="447.2" text-anchor="end">2B</text>
<text x="40" y="432.2" text-anchor="end">5B</text>
<text x="40" y="402.3" text-anchor="end">15B</text>
<text x="40" y="365.0" text-anchor="end">35B</text>
</g>
<g stroke="#4b2a13" stroke-width="1" opacity="0.55" stroke-dasharray="2 4">
<path d="M46 457.1 H388"/>
<path d="M46 444.2 H388"/>
<path d="M46 429.2 H388"/>
<path d="M46 399.3 H388"/>
<path d="M46 362.0 H388"/>
</g>
<path d="M46 470 H388" stroke="#6c3a16" stroke-width="1"/>
<path d="M46,470 L46.00,456.95 L72.31,453.88 L98.62,456.58 L124.92,457.70 L151.23,447.75 L177.54,456.60 L203.85,455.81 L230.15,459.05 L256.46,455.60 L282.77,448.13 L309.08,427.59 L335.38,393.17 L361.69,366.14 L388.00,423.01 L388,470 Z" fill="url(#peakArea)"/>
<path d="M46.00,456.95 L72.31,453.88 L98.62,456.58 L124.92,457.70 L151.23,447.75 L177.54,456.60 L203.85,455.81 L230.15,459.05 L256.46,455.60 L282.77,448.13 L309.08,427.59 L335.38,393.17 L361.69,366.14 L388.00,423.01" fill="none" stroke="url(#peakStroke)" stroke-width="2" stroke-linejoin="round" stroke-linecap="round"/>
<g fill="#0d0907" stroke="#ffb057" stroke-width="1.1">
<circle cx="46.00" cy="456.95" r="1.8"/>
<circle cx="72.31" cy="453.88" r="1.8"/>
<circle cx="98.62" cy="456.58" r="1.8"/>
<circle cx="124.92" cy="457.70" r="1.8"/>
<circle cx="151.23" cy="447.75" r="1.8"/>
<circle cx="177.54" cy="456.60" r="1.8"/>
<circle cx="203.85" cy="455.81" r="1.8"/>
<circle cx="230.15" cy="459.05" r="1.8"/>
<circle cx="256.46" cy="455.60" r="1.8"/>
<circle cx="282.77" cy="448.13" r="1.8"/>
<circle cx="309.08" cy="427.59" r="1.8"/>
</g>
<circle cx="335.38" cy="393.17" r="3" fill="#1b0e07" stroke="#ffb057" stroke-width="1.2"/>
<g><circle cx="361.69" cy="366.14" r="9" fill="#ff4d00" opacity="0.30"/><circle cx="361.69" cy="366.14" r="5.5" fill="#ff8a22" filter="url(#peakGlow)"/><circle cx="361.69" cy="366.14" r="2.5" fill="#fff2df"/></g>
<circle cx="388.00" cy="423.01" r="3" fill="#1b0e07" stroke="#ffd08a" stroke-width="1.2"/>
<g font-size="9" font-weight="800" fill="#ffca88">
<text x="46.00" y="484" text-anchor="middle">05-08</text>
<text x="124.92" y="484" text-anchor="middle">05-11</text>
<text x="203.85" y="484" text-anchor="middle">05-14</text>
<text x="282.77" y="484" text-anchor="middle">05-17</text>
<text x="361.69" y="484" text-anchor="middle">05-20</text>
</g>
<g font-size="9" font-weight="850">
      <text x="38" y="499" fill="#cc6b2c">avg</text>
      <text x="62" y="499" fill="#fff2df">4.96B</text>
      <text x="116" y="499" fill="#cc6b2c">7d</text>
      <text x="134" y="499" fill="#fff2df">64.5B</text>
      <text x="194" y="499" fill="#cc6b2c">peak vs avg</text>
      <text x="270" y="499" fill="#2dd4a3">+553%</text>
      <text x="382" y="499" fill="#2dd4a3" text-anchor="end">▲▲</text>
    </g>
</g>
<g font-family="ui-monospace, SFMono-Regular, Menlo, Consolas, monospace">
<rect x="24" y="516" width="372" height="140" rx="10" fill="#0d0907" stroke="#ff7a1a" stroke-opacity="0.76"/>
<path d="M38 550 H382" stroke="#ff7a1a" stroke-width="1" opacity="0.7"/>
<text x="38" y="540" font-size="13" font-weight="900" fill="#ff8a22">[02] TOKEN MIX</text>
<text x="382" y="540" font-size="9" font-weight="800" fill="#ffd08a" text-anchor="end">71.6B total</text>
<rect x="38" y="560" width="344" height="12" rx="4" fill="#24160d" stroke="#4b2a13"/>
<rect x="38.00" y="560" width="321.68" height="12" fill="#2dd4a3"/>
<rect x="359.68" y="560" width="20.90" height="12" fill="#58a6ff"/>
<rect x="380.58" y="560" width="1.40" height="12" fill="#ff8a22"/>
<rect x="381.98" y="560" width="1.00" height="12" fill="#b779ff"/>
<rect x="38" y="579" width="9" height="9" rx="2" fill="#2dd4a3"/>
<text x="52" y="588" font-size="11" font-weight="800" fill="#fff2df">Cached read</text>
<text x="380" y="588" font-size="11" font-weight="900" fill="#fff2df" text-anchor="end">66.91B · 93.51%</text>
<rect x="38" y="595" width="9" height="9" rx="2" fill="#58a6ff"/>
<text x="52" y="604" font-size="11" font-weight="800" fill="#fff2df">Non-cached input</text>
<text x="380" y="604" font-size="11" font-weight="900" fill="#fff2df" text-anchor="end">4.35B · 6.08%</text>
<rect x="38" y="611" width="9" height="9" rx="2" fill="#ff8a22"/>
<text x="52" y="620" font-size="11" font-weight="800" fill="#fff2df">Output</text>
<text x="380" y="620" font-size="11" font-weight="900" fill="#fff2df" text-anchor="end">291.2M · 0.41%</text>
<rect x="38" y="627" width="9" height="9" rx="2" fill="#b779ff"/>
<text x="52" y="636" font-size="11" font-weight="800" fill="#fff2df">Cache create</text>
<text x="380" y="636" font-size="11" font-weight="900" fill="#fff2df" text-anchor="end">3.7M · 0.01%</text>
</g>
<g font-family="ui-monospace, SFMono-Regular, Menlo, Consolas, monospace">
<rect x="24" y="666" width="372" height="160" rx="10" fill="#0d0907" stroke="#ff7a1a" stroke-opacity="0.76"/>
<path d="M38 700 H382" stroke="#ff7a1a" stroke-width="1" opacity="0.7"/>
<text x="38" y="690" font-size="13" font-weight="900" fill="#ff8a22">[03] AGENT BREAKDOWN</text>
<text x="382" y="690" font-size="9" font-weight="800" fill="#ffd08a" text-anchor="end">6 · $74,361</text>
<rect x="38" y="710" width="344" height="12" rx="4" fill="#24160d" stroke="#4b2a13"/>
<rect x="38.00" y="710" width="334.00" height="12" fill="#ff7a1a"/>
<rect x="372.00" y="710" width="2.00" height="12" fill="#d97757"/>
<rect x="374.00" y="710" width="2.00" height="12" fill="#58a6ff"/>
<rect x="376.00" y="710" width="2.00" height="12" fill="#2dd4a3"/>
<rect x="378.00" y="710" width="2.00" height="12" fill="#b779ff"/>
<rect x="380.00" y="710" width="2.00" height="12" fill="#ffb057"/>
<rect x="38" y="731" width="9" height="9" rx="2" fill="#ff7a1a"/>
<text x="52" y="740" font-size="11" font-weight="800" fill="#fff2df">Codex</text>
<text x="380" y="740" font-size="11" font-weight="900" fill="#fff2df" text-anchor="end">$74,296.24 · 99.913%</text>
<rect x="38" y="745" width="9" height="9" rx="2" fill="#d97757"/>
<text x="52" y="754" font-size="11" font-weight="800" fill="#fff2df">Claude</text>
<text x="380" y="754" font-size="11" font-weight="900" fill="#fff2df" text-anchor="end">$56.94 · 0.077%</text>
<rect x="38" y="759" width="9" height="9" rx="2" fill="#58a6ff"/>
<text x="52" y="768" font-size="11" font-weight="800" fill="#fff2df">Qwen</text>
<text x="380" y="768" font-size="11" font-weight="900" fill="#fff2df" text-anchor="end">$6.60 · 0.009%</text>
<rect x="38" y="773" width="9" height="9" rx="2" fill="#2dd4a3"/>
<text x="52" y="782" font-size="11" font-weight="800" fill="#fff2df">Gemini</text>
<text x="380" y="782" font-size="11" font-weight="900" fill="#fff2df" text-anchor="end">$1.37 · 0.002%</text>
<rect x="38" y="787" width="9" height="9" rx="2" fill="#b779ff"/>
<text x="52" y="796" font-size="11" font-weight="800" fill="#fff2df">Opencode</text>
<text x="380" y="796" font-size="11" font-weight="900" fill="#fff2df" text-anchor="end">$0.05 · 0.000%</text>
<rect x="38" y="801" width="9" height="9" rx="2" fill="#ffb057"/>
<text x="52" y="810" font-size="11" font-weight="800" fill="#fff2df">Droid</text>
<text x="380" y="810" font-size="11" font-weight="900" fill="#fff2df" text-anchor="end">$0.02 · 0.000%</text>
</g>
<g font-family="ui-monospace, SFMono-Regular, Menlo, Consolas, monospace">
<rect x="24" y="836" width="372" height="462" rx="10" fill="#0d0907" stroke="#ff7a1a" stroke-opacity="0.76"/>
<path d="M38 870 H382" stroke="#ff7a1a" stroke-width="1" opacity="0.7"/>
<text x="38" y="860" font-size="13" font-weight="900" fill="#ff8a22">[04] ALL MODELS · COST</text>
<text x="382" y="860" font-size="9" font-weight="800" fill="#ffd08a" text-anchor="end">22 · sorted by $</text>
<g font-size="8" font-weight="800" fill="#7a4318">
<text x="36" y="886">#</text>
<text x="54" y="886">MODEL</text>
<text x="252" y="886" text-anchor="end">TOKENS</text>
<text x="332" y="886" text-anchor="end">COST</text>
<text x="380" y="886" text-anchor="end">%</text>
</g>
<path d="M30 891 H384" stroke="#4b2a13" stroke-width="1" stroke-dasharray="2 4"/>
<rect x="30" y="891" width="354" height="16" fill="#120904" opacity="0.6"/>
<text x="48" y="902" font-size="9" font-weight="800" fill="#7a4318" text-anchor="end">01</text>
<rect x="54" y="894" width="9" height="9" rx="2" fill="#ff7a1a"/>
<text x="68" y="902" font-size="10" font-weight="800" fill="#fff2df">gpt-5.5</text>
<text x="252" y="902" font-size="9" font-weight="700" fill="#ffca88" text-anchor="end">23.30B</text>
<text x="332" y="902" font-size="10" font-weight="900" fill="#fff2df" text-anchor="end">$51,802.84</text>
<text x="380" y="902" font-size="9" font-weight="800" fill="#ffd08a" text-anchor="end">69.7%</text>
<rect x="30" y="906" width="354" height="1.5" fill="#1f1109"/>
<rect x="30" y="906" width="354.00" height="1.5" fill="#ff7a1a" opacity="0.9"/>
<text x="48" y="920" font-size="9" font-weight="800" fill="#7a4318" text-anchor="end">02</text>
<rect x="54" y="912" width="9" height="9" rx="2" fill="#ff7a1a"/>
<text x="68" y="920" font-size="10" font-weight="800" fill="#fff2df">gpt-5</text>
<text x="252" y="920" font-size="9" font-weight="700" fill="#ffca88" text-anchor="end">47.63B</text>
<text x="332" y="920" font-size="10" font-weight="900" fill="#fff2df" text-anchor="end">$22,145.25</text>
<text x="380" y="920" font-size="9" font-weight="800" fill="#ffd08a" text-anchor="end">29.8%</text>
<rect x="30" y="924" width="354" height="1.5" fill="#1f1109"/>
<rect x="30" y="924" width="231.46" height="1.5" fill="#ff7a1a" opacity="0.9"/>
<rect x="30" y="927" width="354" height="16" fill="#120904" opacity="0.6"/>
<text x="48" y="938" font-size="9" font-weight="800" fill="#7a4318" text-anchor="end">03</text>
<rect x="54" y="930" width="9" height="9" rx="2" fill="#ff7a1a"/>
<text x="68" y="938" font-size="10" font-weight="800" fill="#fff2df">gpt-5-codex</text>
<text x="252" y="938" font-size="9" font-weight="700" fill="#ffca88" text-anchor="end">292.6M</text>
<text x="332" y="938" font-size="10" font-weight="900" fill="#fff2df" text-anchor="end">$170.37</text>
<text x="380" y="938" font-size="9" font-weight="800" fill="#7a4318" text-anchor="end">0.23%</text>
<rect x="30" y="942" width="354" height="1.5" fill="#1f1109"/>
<rect x="30" y="942" width="20.30" height="1.5" fill="#ff7a1a" opacity="0.9"/>
<text x="48" y="956" font-size="9" font-weight="800" fill="#7a4318" text-anchor="end">04</text>
<rect x="54" y="948" width="9" height="9" rx="2" fill="#ff7a1a"/>
<text x="68" y="956" font-size="10" font-weight="800" fill="#fff2df">gpt-5.1-codex-max</text>
<text x="252" y="956" font-size="9" font-weight="700" fill="#ffca88" text-anchor="end">98.5M</text>
<text x="332" y="956" font-size="10" font-weight="900" fill="#fff2df" text-anchor="end">$79.05</text>
<text x="380" y="956" font-size="9" font-weight="800" fill="#7a4318" text-anchor="end">0.11%</text>
<rect x="30" y="960" width="354" height="1.5" fill="#1f1109"/>
<rect x="30" y="960" width="13.83" height="1.5" fill="#ff7a1a" opacity="0.9"/>
<rect x="30" y="963" width="354" height="16" fill="#120904" opacity="0.6"/>
<text x="48" y="974" font-size="9" font-weight="800" fill="#7a4318" text-anchor="end">05</text>
<rect x="54" y="966" width="9" height="9" rx="2" fill="#d97757"/>
<text x="68" y="974" font-size="10" font-weight="800" fill="#fff2df">claude-opus-4-7</text>
<text x="252" y="974" font-size="9" font-weight="700" fill="#ffca88" text-anchor="end">55.7M</text>
<text x="332" y="974" font-size="10" font-weight="900" fill="#fff2df" text-anchor="end">$52.58</text>
<text x="380" y="974" font-size="9" font-weight="800" fill="#7a4318" text-anchor="end">0.07%</text>
<rect x="30" y="978" width="354" height="1.5" fill="#1f1109"/>
<rect x="30" y="978" width="11.28" height="1.5" fill="#d97757" opacity="0.9"/>
<text x="48" y="992" font-size="9" font-weight="800" fill="#7a4318" text-anchor="end">06</text>
<rect x="54" y="984" width="9" height="9" rx="2" fill="#ff7a1a"/>
<text x="68" y="992" font-size="10" font-weight="800" fill="#fff2df">gpt-5.2-codex</text>
<text x="252" y="992" font-size="9" font-weight="700" fill="#ffca88" text-anchor="end">77.7M</text>
<text x="332" y="992" font-size="10" font-weight="900" fill="#fff2df" text-anchor="end">$51.13</text>
<text x="380" y="992" font-size="9" font-weight="800" fill="#7a4318" text-anchor="end">0.07%</text>
<rect x="30" y="996" width="354" height="1.5" fill="#1f1109"/>
<rect x="30" y="996" width="11.12" height="1.5" fill="#ff7a1a" opacity="0.9"/>
<rect x="30" y="999" width="354" height="16" fill="#120904" opacity="0.6"/>
<text x="48" y="1010" font-size="9" font-weight="800" fill="#7a4318" text-anchor="end">07</text>
<rect x="54" y="1002" width="9" height="9" rx="2" fill="#ff7a1a"/>
<text x="68" y="1010" font-size="10" font-weight="800" fill="#fff2df">gpt-5.2</text>
<text x="252" y="1010" font-size="9" font-weight="700" fill="#ffca88" text-anchor="end">32.4M</text>
<text x="332" y="1010" font-size="10" font-weight="900" fill="#fff2df" text-anchor="end">$24.55</text>
<text x="380" y="1010" font-size="9" font-weight="800" fill="#7a4318" text-anchor="end">0.03%</text>
<rect x="30" y="1014" width="354" height="1.5" fill="#1f1109"/>
<rect x="30" y="1014" width="7.71" height="1.5" fill="#ff7a1a" opacity="0.9"/>
<text x="48" y="1028" font-size="9" font-weight="800" fill="#7a4318" text-anchor="end">08</text>
<rect x="54" y="1020" width="9" height="9" rx="2" fill="#ff7a1a"/>
<text x="68" y="1028" font-size="10" font-weight="800" fill="#fff2df">gpt-5.3-codex</text>
<text x="252" y="1028" font-size="9" font-weight="700" fill="#ffca88" text-anchor="end">24.6M</text>
<text x="332" y="1028" font-size="10" font-weight="900" fill="#fff2df" text-anchor="end">$16.43</text>
<text x="380" y="1028" font-size="9" font-weight="800" fill="#7a4318" text-anchor="end">0.02%</text>
<rect x="30" y="1032" width="354" height="1.5" fill="#1f1109"/>
<rect x="30" y="1032" width="6.30" height="1.5" fill="#ff7a1a" opacity="0.9"/>
<rect x="30" y="1035" width="354" height="16" fill="#120904" opacity="0.6"/>
<text x="48" y="1046" font-size="9" font-weight="800" fill="#7a4318" text-anchor="end">09</text>
<rect x="54" y="1038" width="9" height="9" rx="2" fill="#ff7a1a"/>
<text x="68" y="1046" font-size="10" font-weight="800" fill="#fff2df">gpt-5.4</text>
<text x="252" y="1046" font-size="9" font-weight="700" fill="#ffca88" text-anchor="end">5.2M</text>
<text x="332" y="1046" font-size="10" font-weight="900" fill="#fff2df" text-anchor="end">$5.83</text>
<text x="380" y="1046" font-size="9" font-weight="800" fill="#7a4318" text-anchor="end">&lt;.01</text>
<rect x="30" y="1050" width="354" height="1.5" fill="#1f1109"/>
<rect x="30" y="1050" width="3.76" height="1.5" fill="#ff7a1a" opacity="0.9"/>
<text x="48" y="1064" font-size="9" font-weight="800" fill="#7a4318" text-anchor="end">10</text>
<rect x="54" y="1056" width="9" height="9" rx="2" fill="#58a6ff"/>
<text x="68" y="1064" font-size="10" font-weight="800" fill="#fff2df">MiniMax-M2.5</text>
<text x="252" y="1064" font-size="9" font-weight="700" fill="#ffca88" text-anchor="end">26.6M</text>
<text x="332" y="1064" font-size="10" font-weight="900" fill="#fff2df" text-anchor="end">$4.97</text>
<text x="380" y="1064" font-size="9" font-weight="800" fill="#7a4318" text-anchor="end">&lt;.01</text>
<rect x="30" y="1068" width="354" height="1.5" fill="#1f1109"/>
<rect x="30" y="1068" width="3.47" height="1.5" fill="#58a6ff" opacity="0.9"/>
<rect x="30" y="1071" width="354" height="16" fill="#120904" opacity="0.6"/>
<text x="48" y="1082" font-size="9" font-weight="800" fill="#7a4318" text-anchor="end">11</text>
<rect x="54" y="1074" width="9" height="9" rx="2" fill="#d97757"/>
<text x="68" y="1082" font-size="10" font-weight="800" fill="#fff2df">claude-opus-4-6</text>
<text x="252" y="1082" font-size="9" font-weight="700" fill="#ffca88" text-anchor="end">1.5M</text>
<text x="332" y="1082" font-size="10" font-weight="900" fill="#fff2df" text-anchor="end">$2.17</text>
<text x="380" y="1082" font-size="9" font-weight="800" fill="#7a4318" text-anchor="end">&lt;.01</text>
<rect x="30" y="1086" width="354" height="1.5" fill="#1f1109"/>
<rect x="30" y="1086" width="2.29" height="1.5" fill="#d97757" opacity="0.9"/>
<text x="48" y="1100" font-size="9" font-weight="800" fill="#7a4318" text-anchor="end">12</text>
<rect x="54" y="1092" width="9" height="9" rx="2" fill="#58a6ff"/>
<text x="68" y="1100" font-size="10" font-weight="800" fill="#fff2df">MiniMax-M2.1</text>
<text x="252" y="1100" font-size="9" font-weight="700" fill="#ffca88" text-anchor="end">4.0M</text>
<text x="332" y="1100" font-size="10" font-weight="900" fill="#fff2df" text-anchor="end">$1.69</text>
<text x="380" y="1100" font-size="9" font-weight="800" fill="#7a4318" text-anchor="end">&lt;.01</text>
<rect x="30" y="1104" width="354" height="1.5" fill="#1f1109"/>
<rect x="30" y="1104" width="2.02" height="1.5" fill="#58a6ff" opacity="0.9"/>
<rect x="30" y="1107" width="354" height="16" fill="#120904" opacity="0.6"/>
<text x="48" y="1118" font-size="9" font-weight="800" fill="#7a4318" text-anchor="end">13</text>
<rect x="54" y="1110" width="9" height="9" rx="2" fill="#d97757"/>
<text x="68" y="1118" font-size="10" font-weight="800" fill="#fff2df">claude-sonnet-4-6</text>
<text x="252" y="1118" font-size="9" font-weight="700" fill="#ffca88" text-anchor="end">2.3M</text>
<text x="332" y="1118" font-size="10" font-weight="900" fill="#fff2df" text-anchor="end">$1.62</text>
<text x="380" y="1118" font-size="9" font-weight="800" fill="#7a4318" text-anchor="end">&lt;.01</text>
<rect x="30" y="1122" width="354" height="1.5" fill="#1f1109"/>
<rect x="30" y="1122" width="1.98" height="1.5" fill="#d97757" opacity="0.9"/>
<text x="48" y="1136" font-size="9" font-weight="800" fill="#7a4318" text-anchor="end">14</text>
<rect x="54" y="1128" width="9" height="9" rx="2" fill="#2dd4a3"/>
<text x="68" y="1136" font-size="10" font-weight="800" fill="#fff2df">gemini-3-pro-preview</text>
<text x="252" y="1136" font-size="9" font-weight="700" fill="#ffca88" text-anchor="end">450.7K</text>
<text x="332" y="1136" font-size="10" font-weight="900" fill="#fff2df" text-anchor="end">$0.82</text>
<text x="380" y="1136" font-size="9" font-weight="800" fill="#7a4318" text-anchor="end">&lt;.01</text>
<rect x="30" y="1140" width="354" height="1.5" fill="#1f1109"/>
<rect x="30" y="1140" width="1.41" height="1.5" fill="#2dd4a3" opacity="0.9"/>
<rect x="30" y="1143" width="354" height="16" fill="#120904" opacity="0.6"/>
<text x="48" y="1154" font-size="9" font-weight="800" fill="#7a4318" text-anchor="end">15</text>
<rect x="54" y="1146" width="9" height="9" rx="2" fill="#ff7a1a"/>
<text x="68" y="1154" font-size="10" font-weight="800" fill="#fff2df">gpt-5.3-codex-spark</text>
<text x="252" y="1154" font-size="9" font-weight="700" fill="#ffca88" text-anchor="end">226.6K</text>
<text x="332" y="1154" font-size="10" font-weight="900" fill="#fff2df" text-anchor="end">$0.61</text>
<text x="380" y="1154" font-size="9" font-weight="800" fill="#7a4318" text-anchor="end">&lt;.01</text>
<rect x="30" y="1158" width="354" height="1.5" fill="#1f1109"/>
<rect x="30" y="1158" width="1.21" height="1.5" fill="#ff7a1a" opacity="0.9"/>
<text x="48" y="1172" font-size="9" font-weight="800" fill="#7a4318" text-anchor="end">16</text>
<rect x="54" y="1164" width="9" height="9" rx="2" fill="#2dd4a3"/>
<text x="68" y="1172" font-size="10" font-weight="800" fill="#fff2df">gemini-2.5-pro</text>
<text x="252" y="1172" font-size="9" font-weight="700" fill="#ffca88" text-anchor="end">636.3K</text>
<text x="332" y="1172" font-size="10" font-weight="900" fill="#fff2df" text-anchor="end">$0.54</text>
<text x="380" y="1172" font-size="9" font-weight="800" fill="#7a4318" text-anchor="end">&lt;.01</text>
<rect x="30" y="1176" width="354" height="1.5" fill="#1f1109"/>
<rect x="30" y="1176" width="1.14" height="1.5" fill="#2dd4a3" opacity="0.9"/>
<rect x="30" y="1179" width="354" height="16" fill="#120904" opacity="0.6"/>
<text x="48" y="1190" font-size="9" font-weight="800" fill="#7a4318" text-anchor="end">17</text>
<rect x="54" y="1182" width="9" height="9" rx="2" fill="#d97757"/>
<text x="68" y="1190" font-size="10" font-weight="800" fill="#fff2df">claude-haiku-4-5</text>
<text x="252" y="1190" font-size="9" font-weight="700" fill="#ffca88" text-anchor="end">2.5M</text>
<text x="332" y="1190" font-size="10" font-weight="900" fill="#fff2df" text-anchor="end">$0.47</text>
<text x="380" y="1190" font-size="9" font-weight="800" fill="#7a4318" text-anchor="end">&lt;.01</text>
<rect x="30" y="1194" width="354" height="1.5" fill="#1f1109"/>
<rect x="30" y="1194" width="1.07" height="1.5" fill="#d97757" opacity="0.9"/>
<text x="48" y="1208" font-size="9" font-weight="800" fill="#7a4318" text-anchor="end">18</text>
<rect x="54" y="1200" width="9" height="9" rx="2" fill="#ff7a1a"/>
<text x="68" y="1208" font-size="10" font-weight="800" fill="#fff2df">gpt-5.1-codex</text>
<text x="252" y="1208" font-size="9" font-weight="700" fill="#ffca88" text-anchor="end">160.9K</text>
<text x="332" y="1208" font-size="10" font-weight="900" fill="#fff2df" text-anchor="end">$0.17</text>
<text x="380" y="1208" font-size="9" font-weight="800" fill="#7a4318" text-anchor="end">&lt;.01</text>
<rect x="30" y="1212" width="354" height="1.5" fill="#1f1109"/>
<rect x="30" y="1212" width="1.00" height="1.5" fill="#ff7a1a" opacity="0.9"/>
<rect x="30" y="1215" width="354" height="16" fill="#120904" opacity="0.6"/>
<text x="48" y="1226" font-size="9" font-weight="800" fill="#7a4318" text-anchor="end">19</text>
<rect x="54" y="1218" width="9" height="9" rx="2" fill="#d97757"/>
<text x="68" y="1226" font-size="10" font-weight="800" fill="#fff2df">claude-sonnet-4-5</text>
<text x="252" y="1226" font-size="9" font-weight="700" fill="#ffca88" text-anchor="end">25.2K</text>
<text x="332" y="1226" font-size="10" font-weight="900" fill="#fff2df" text-anchor="end">$0.09</text>
<text x="380" y="1226" font-size="9" font-weight="800" fill="#7a4318" text-anchor="end">&lt;.01</text>
<rect x="30" y="1230" width="354" height="1.5" fill="#1f1109"/>
<rect x="30" y="1230" width="1.00" height="1.5" fill="#d97757" opacity="0.9"/>
<text x="48" y="1244" font-size="9" font-weight="800" fill="#7a4318" text-anchor="end">20</text>
<rect x="54" y="1236" width="9" height="9" rx="2" fill="#ffb057"/>
<text x="68" y="1244" font-size="10" font-weight="800" fill="#fff2df">claude-opus-4-5</text>
<text x="252" y="1244" font-size="9" font-weight="700" fill="#ffca88" text-anchor="end">15.6K</text>
<text x="332" y="1244" font-size="10" font-weight="900" fill="#fff2df" text-anchor="end">$0.02</text>
<text x="380" y="1244" font-size="9" font-weight="800" fill="#7a4318" text-anchor="end">&lt;.01</text>
<rect x="30" y="1248" width="354" height="1.5" fill="#1f1109"/>
<rect x="30" y="1248" width="1.00" height="1.5" fill="#ffb057" opacity="0.9"/>
<rect x="30" y="1251" width="354" height="16" fill="#120904" opacity="0.6"/>
<text x="48" y="1262" font-size="9" font-weight="800" fill="#7a4318" text-anchor="end">21</text>
<rect x="54" y="1254" width="9" height="9" rx="2" fill="#2dd4a3"/>
<text x="68" y="1262" font-size="10" font-weight="800" fill="#fff2df">gemini-2.5-flash</text>
<text x="252" y="1262" font-size="9" font-weight="700" fill="#ffca88" text-anchor="end">24.0K</text>
<text x="332" y="1262" font-size="10" font-weight="900" fill="#fff2df" text-anchor="end">$0.01</text>
<text x="380" y="1262" font-size="9" font-weight="800" fill="#7a4318" text-anchor="end">&lt;.01</text>
<rect x="30" y="1266" width="354" height="1.5" fill="#1f1109"/>
<rect x="30" y="1266" width="1.00" height="1.5" fill="#2dd4a3" opacity="0.9"/>
<text x="48" y="1280" font-size="9" font-weight="800" fill="#7a4318" text-anchor="end">22</text>
<rect x="54" y="1272" width="9" height="9" rx="2" fill="#888888"/>
<text x="68" y="1280" font-size="10" font-weight="800" fill="#fff2df">big-pickle</text>
<text x="252" y="1280" font-size="9" font-weight="700" fill="#ffca88" text-anchor="end">34.9K</text>
<text x="332" y="1280" font-size="10" font-weight="900" fill="#fff2df" text-anchor="end">$0.00</text>
<text x="380" y="1280" font-size="9" font-weight="800" fill="#7a4318" text-anchor="end">&lt;.01</text>
<rect x="30" y="1284" width="354" height="1.5" fill="#1f1109"/>
<rect x="30" y="1284" width="1.00" height="1.5" fill="#888888" opacity="0.9"/>
<text x="38" y="1286" font-size="8" font-weight="700" fill="#cc6b2c">&gt; thin bar = sqrt scale of cost share so long tail is visible</text>
</g>
<text x="28" y="1302" font-size="9" font-weight="650" fill="#cc6b2c" font-family="ui-monospace, SFMono-Regular, Menlo, Consolas, monospace">01001100 // 22 models · 6 agents · √ scale</text>
</svg>