<svg xmlns="http://www.w3.org/2000/svg" width="420" height="760" viewBox="0 0 420 760" role="img" aria-labelledby="title desc">
  <title id="title">Codex Usage Dashboard Mobile</title>
  <desc id="desc">Mobile public aggregate Codex usage snapshot with totals, token mix, recent daily volume, and model share.</desc>
  <defs>
    <linearGradient id="panel" x1="0" x2="1" y1="0" y2="1">
      <stop offset="0%" stop-color="#160b04"/>
      <stop offset="64%" stop-color="#0c0806"/>
      <stop offset="100%" stop-color="#221004"/>
    </linearGradient>
  </defs>
  <rect width="420" height="760" rx="16" fill="#050403"/>
  <rect x="12" y="12" width="396" height="736" rx="16" fill="url(#panel)" stroke="#ff7a1a" stroke-width="1.6"/>
  <path d="M18 58 H402" stroke="#3b2111" stroke-width="1" opacity="0.22"/><path d="M18 90 H402" stroke="#3b2111" stroke-width="1" opacity="0.22"/><path d="M18 122 H402" stroke="#3b2111" stroke-width="1" opacity="0.22"/><path d="M18 154 H402" stroke="#3b2111" stroke-width="1" opacity="0.22"/><path d="M18 186 H402" stroke="#3b2111" stroke-width="1" opacity="0.22"/><path d="M18 218 H402" stroke="#3b2111" stroke-width="1" opacity="0.22"/><path d="M18 250 H402" stroke="#3b2111" stroke-width="1" opacity="0.22"/><path d="M18 282 H402" stroke="#3b2111" stroke-width="1" opacity="0.22"/><path d="M18 314 H402" stroke="#3b2111" stroke-width="1" opacity="0.22"/><path d="M18 346 H402" stroke="#3b2111" stroke-width="1" opacity="0.22"/><path d="M18 378 H402" stroke="#3b2111" stroke-width="1" opacity="0.22"/><path d="M18 410 H402" stroke="#3b2111" stroke-width="1" opacity="0.22"/><path d="M18 442 H402" stroke="#3b2111" stroke-width="1" opacity="0.22"/><path d="M18 474 H402" stroke="#3b2111" stroke-width="1" opacity="0.22"/><path d="M18 506 H402" stroke="#3b2111" stroke-width="1" opacity="0.22"/><path d="M18 538 H402" stroke="#3b2111" stroke-width="1" opacity="0.22"/><path d="M18 570 H402" stroke="#3b2111" stroke-width="1" opacity="0.22"/><path d="M18 602 H402" stroke="#3b2111" stroke-width="1" opacity="0.22"/><path d="M18 634 H402" stroke="#3b2111" stroke-width="1" opacity="0.22"/><path d="M18 666 H402" stroke="#3b2111" stroke-width="1" opacity="0.22"/><path d="M18 698 H402" stroke="#3b2111" stroke-width="1" opacity="0.22"/><path d="M18 730 H402" stroke="#3b2111" stroke-width="1" opacity="0.22"/><path d="M28 42 L-136 744" stroke="#3b2111" stroke-width="1" opacity="0.18"/><path d="M76 42 L-88 744" stroke="#3b2111" stroke-width="1" opacity="0.18"/><path d="M124 42 L-40 744" stroke="#3b2111" stroke-width="1" opacity="0.18"/><path d="M172 42 L8 744" stroke="#3b2111" stroke-width="1" opacity="0.18"/><path d="M220 42 L56 744" stroke="#3b2111" stroke-width="1" opacity="0.18"/><path d="M268 42 L104 744" stroke="#3b2111" stroke-width="1" opacity="0.18"/><path d="M316 42 L152 744" stroke="#3b2111" stroke-width="1" opacity="0.18"/><path d="M364 42 L200 744" stroke="#3b2111" stroke-width="1" opacity="0.18"/><path d="M412 42 L248 744" stroke="#3b2111" stroke-width="1" opacity="0.18"/>
  <text x="28" y="42" font-size="22" font-weight="900" fill="#ff8a22" text-anchor="start" font-family="ui-monospace, SFMono-Regular, Menlo, Consolas, monospace">:: CODEX_USAGE</text>
  <text x="28" y="62" font-size="10" font-weight="750" fill="#ffca88" text-anchor="start" font-family="ui-monospace, SFMono-Regular, Menlo, Consolas, monospace">&gt; Past 16 days | 16 active | 05-17T18:06</text>
  <rect x="24" y="82" width="372" height="82" rx="10" fill="#15100c" stroke="#ff8a22" stroke-opacity="0.78"/>
  <rect x="36" y="94" width="348" height="2" fill="#ff8a22" opacity="0.75"/>
  <text x="40" y="122" font-size="11" font-weight="850" fill="#ffb057" text-anchor="start" font-family="ui-monospace, SFMono-Regular, Menlo, Consolas, monospace">TOTAL TOKENS</text>
  <text x="40" y="152" font-size="34" font-weight="900" fill="#fff2df" text-anchor="start" font-family="ui-monospace, SFMono-Regular, Menlo, Consolas, monospace">6.9B</text>
  
  <g>
    <rect x="24" y="182" width="181" height="58" rx="8" fill="#15100c" stroke="#ffb057" stroke-opacity="0.72"/>
    <rect x="32" y="190" width="165" height="2" fill="#ffb057" opacity="0.7"/>
    <text x="38" y="210" font-size="10" font-weight="800" fill="#ffb057" text-anchor="start" font-family="ui-monospace, SFMono-Regular, Menlo, Consolas, monospace">CACHE HIT</text>
    <text x="38" y="232" font-size="20" font-weight="850" fill="#fff2df" text-anchor="start" font-family="ui-monospace, SFMono-Regular, Menlo, Consolas, monospace">94.8%</text>
  </g>
  
  <g>
    <rect x="215" y="182" width="181" height="58" rx="8" fill="#15100c" stroke="#ff4d00" stroke-opacity="0.72"/>
    <rect x="223" y="190" width="165" height="2" fill="#ff4d00" opacity="0.7"/>
    <text x="229" y="210" font-size="10" font-weight="800" fill="#ffb057" text-anchor="start" font-family="ui-monospace, SFMono-Regular, Menlo, Consolas, monospace">COST</text>
    <text x="229" y="232" font-size="18" font-weight="850" fill="#fff2df" text-anchor="start" font-family="ui-monospace, SFMono-Regular, Menlo, Consolas, monospace">$6,006.19</text>
  </g>
  
  <g>
    <rect x="24" y="250" width="181" height="58" rx="8" fill="#15100c" stroke="#f06d19" stroke-opacity="0.72"/>
    <rect x="32" y="258" width="165" height="2" fill="#f06d19" opacity="0.7"/>
    <text x="38" y="278" font-size="10" font-weight="800" fill="#ffb057" text-anchor="start" font-family="ui-monospace, SFMono-Regular, Menlo, Consolas, monospace">SAVINGS</text>
    <text x="38" y="300" font-size="18" font-weight="850" fill="#fff2df" text-anchor="start" font-family="ui-monospace, SFMono-Regular, Menlo, Consolas, monospace">$29,203.49</text>
  </g>
  
  <g>
    <rect x="215" y="250" width="181" height="58" rx="8" fill="#15100c" stroke="#ff8a22" stroke-opacity="0.72"/>
    <rect x="223" y="258" width="165" height="2" fill="#ff8a22" opacity="0.7"/>
    <text x="229" y="278" font-size="10" font-weight="800" fill="#ffb057" text-anchor="start" font-family="ui-monospace, SFMono-Regular, Menlo, Consolas, monospace">SESSIONS</text>
    <text x="229" y="300" font-size="20" font-weight="850" fill="#fff2df" text-anchor="start" font-family="ui-monospace, SFMono-Regular, Menlo, Consolas, monospace">1,721</text>
  </g>
  <rect x="24" y="330" width="372" height="112" rx="10" fill="#0d0907" stroke="#ff7a1a" stroke-opacity="0.76"/>
  <path d="M38 362 H382" stroke="#ff7a1a" stroke-width="1" opacity="0.7"/>
  <text x="38" y="354" font-size="14" font-weight="900" fill="#ff8a22" text-anchor="start" font-family="ui-monospace, SFMono-Regular, Menlo, Consolas, monospace">[01] TOKEN MIX</text>
  
  <g>
    <text x="34" y="386" font-size="12" font-weight="700" fill="#ffca88" text-anchor="start" font-family="ui-monospace, SFMono-Regular, Menlo, Consolas, monospace">Cached</text>
    <rect x="108" y="376" width="142" height="14" rx="4" fill="#24160d" stroke="#4b2a13" stroke-width="1"/>
    <rect x="108" y="376" width="142" height="14" rx="4" fill="#2dd4a3"/>
    <text x="384" y="386" font-size="12" font-weight="800" fill="#fff2df" text-anchor="end" font-family="ui-monospace, SFMono-Regular, Menlo, Consolas, monospace">6.5B</text>
  </g>
  <g>
    <text x="34" y="408" font-size="12" font-weight="700" fill="#ffca88" text-anchor="start" font-family="ui-monospace, SFMono-Regular, Menlo, Consolas, monospace">Fresh</text>
    <rect x="108" y="398" width="142" height="14" rx="4" fill="#24160d" stroke="#4b2a13" stroke-width="1"/>
    <rect x="108" y="398" width="7" height="14" rx="4" fill="#58a6ff"/>
    <text x="384" y="408" font-size="12" font-weight="800" fill="#fff2df" text-anchor="end" font-family="ui-monospace, SFMono-Regular, Menlo, Consolas, monospace">355.8M</text>
  </g>
  <g>
    <text x="34" y="430" font-size="12" font-weight="700" fill="#ffca88" text-anchor="start" font-family="ui-monospace, SFMono-Regular, Menlo, Consolas, monospace">Output</text>
    <rect x="108" y="420" width="142" height="14" rx="4" fill="#24160d" stroke="#4b2a13" stroke-width="1"/>
    <rect x="108" y="420" width="5" height="14" rx="4" fill="#ff8a22"/>
    <text x="384" y="430" font-size="12" font-weight="800" fill="#fff2df" text-anchor="end" font-family="ui-monospace, SFMono-Regular, Menlo, Consolas, monospace">32.8M</text>
  </g>
  <g>
    <text x="34" y="452" font-size="12" font-weight="700" fill="#ffca88" text-anchor="start" font-family="ui-monospace, SFMono-Regular, Menlo, Consolas, monospace">Reason</text>
    <rect x="108" y="442" width="142" height="14" rx="4" fill="#24160d" stroke="#4b2a13" stroke-width="1"/>
    <rect x="108" y="442" width="5" height="14" rx="4" fill="#b779ff"/>
    <text x="384" y="452" font-size="12" font-weight="800" fill="#fff2df" text-anchor="end" font-family="ui-monospace, SFMono-Regular, Menlo, Consolas, monospace">11.5M</text>
  </g>
  <rect x="24" y="468" width="372" height="194" rx="10" fill="#0d0907" stroke="#ff7a1a" stroke-opacity="0.76"/>
  <path d="M38 502 H382" stroke="#ff7a1a" stroke-width="1" opacity="0.7"/>
  <text x="38" y="494" font-size="14" font-weight="900" fill="#ff8a22" text-anchor="start" font-family="ui-monospace, SFMono-Regular, Menlo, Consolas, monospace">[02] LAST 7 DAYS</text>
  
  <g>
    <text x="34" y="524" font-size="12" font-weight="700" fill="#ffca88" text-anchor="start" font-family="ui-monospace, SFMono-Regular, Menlo, Consolas, monospace">05-11</text>
    <rect x="84" y="514" width="210" height="14" rx="4" fill="#24160d" stroke="#4b2a13" stroke-width="1"/>
    <rect x="84" y="514" width="30" height="14" rx="4" fill="#ff8a22"/>
    <text x="384" y="524" font-size="12" font-weight="800" fill="#fff2df" text-anchor="end" font-family="ui-monospace, SFMono-Regular, Menlo, Consolas, monospace">175.1M</text>
  </g>
  <g>
    <text x="34" y="546" font-size="12" font-weight="700" fill="#ffca88" text-anchor="start" font-family="ui-monospace, SFMono-Regular, Menlo, Consolas, monospace">05-12</text>
    <rect x="84" y="536" width="210" height="14" rx="4" fill="#24160d" stroke="#4b2a13" stroke-width="1"/>
    <rect x="84" y="536" width="103" height="14" rx="4" fill="#ff8a22"/>
    <text x="384" y="546" font-size="12" font-weight="800" fill="#fff2df" text-anchor="end" font-family="ui-monospace, SFMono-Regular, Menlo, Consolas, monospace">606.2M</text>
  </g>
  <g>
    <text x="34" y="568" font-size="12" font-weight="700" fill="#ffca88" text-anchor="start" font-family="ui-monospace, SFMono-Regular, Menlo, Consolas, monospace">05-13</text>
    <rect x="84" y="558" width="210" height="14" rx="4" fill="#24160d" stroke="#4b2a13" stroke-width="1"/>
    <rect x="84" y="558" width="76" height="14" rx="4" fill="#ff8a22"/>
    <text x="384" y="568" font-size="12" font-weight="800" fill="#fff2df" text-anchor="end" font-family="ui-monospace, SFMono-Regular, Menlo, Consolas, monospace">445.9M</text>
  </g>
  <g>
    <text x="34" y="590" font-size="12" font-weight="700" fill="#ffca88" text-anchor="start" font-family="ui-monospace, SFMono-Regular, Menlo, Consolas, monospace">05-14</text>
    <rect x="84" y="580" width="210" height="14" rx="4" fill="#24160d" stroke="#4b2a13" stroke-width="1"/>
    <rect x="84" y="580" width="144" height="14" rx="4" fill="#ff8a22"/>
    <text x="384" y="590" font-size="12" font-weight="800" fill="#fff2df" text-anchor="end" font-family="ui-monospace, SFMono-Regular, Menlo, Consolas, monospace">841.9M</text>
  </g>
  <g>
    <text x="34" y="612" font-size="12" font-weight="700" fill="#ffca88" text-anchor="start" font-family="ui-monospace, SFMono-Regular, Menlo, Consolas, monospace">05-15</text>
    <rect x="84" y="602" width="210" height="14" rx="4" fill="#24160d" stroke="#4b2a13" stroke-width="1"/>
    <rect x="84" y="602" width="89" height="14" rx="4" fill="#ff8a22"/>
    <text x="384" y="612" font-size="12" font-weight="800" fill="#fff2df" text-anchor="end" font-family="ui-monospace, SFMono-Regular, Menlo, Consolas, monospace">523.9M</text>
  </g>
  <g>
    <text x="34" y="634" font-size="12" font-weight="700" fill="#ffca88" text-anchor="start" font-family="ui-monospace, SFMono-Regular, Menlo, Consolas, monospace">05-16</text>
    <rect x="84" y="624" width="210" height="14" rx="4" fill="#24160d" stroke="#4b2a13" stroke-width="1"/>
    <rect x="84" y="624" width="87" height="14" rx="4" fill="#ff8a22"/>
    <text x="384" y="634" font-size="12" font-weight="800" fill="#fff2df" text-anchor="end" font-family="ui-monospace, SFMono-Regular, Menlo, Consolas, monospace">511.9M</text>
  </g>
  <g>
    <text x="34" y="656" font-size="12" font-weight="700" fill="#ffca88" text-anchor="start" font-family="ui-monospace, SFMono-Regular, Menlo, Consolas, monospace">05-17</text>
    <rect x="84" y="646" width="210" height="14" rx="4" fill="#24160d" stroke="#4b2a13" stroke-width="1"/>
    <rect x="84" y="646" width="210" height="14" rx="4" fill="#ff8a22"/>
    <text x="384" y="656" font-size="12" font-weight="800" fill="#fff2df" text-anchor="end" font-family="ui-monospace, SFMono-Regular, Menlo, Consolas, monospace">1.2B</text>
  </g>
  <rect x="24" y="676" width="372" height="50" rx="10" fill="#0d0907" stroke="#ff7a1a" stroke-opacity="0.76"/>
  <path d="M38 670 H382" stroke="#ff8a22" stroke-width="1.5" opacity="0.7"/>
  
  <g>
    <text x="34" y="696" font-size="12" font-weight="700" fill="#ffca88" text-anchor="start" font-family="ui-monospace, SFMono-Regular, Menlo, Consolas, monospace">gpt-5.5</text>
    <rect x="150" y="686" width="142" height="14" rx="4" fill="#24160d" stroke="#4b2a13" stroke-width="1"/>
    <rect x="150" y="686" width="142" height="14" rx="4" fill="#ff4d00"/>
    <text x="384" y="696" font-size="12" font-weight="800" fill="#fff2df" text-anchor="end" font-family="ui-monospace, SFMono-Regular, Menlo, Consolas, monospace">6.9B</text>
  </g>
  <g>
    <text x="34" y="718" font-size="12" font-weight="700" fill="#ffca88" text-anchor="start" font-family="ui-monospace, SFMono-Regular, Menlo, Consolas, monospace">Other</text>
    <rect x="150" y="708" width="142" height="14" rx="4" fill="#24160d" stroke="#4b2a13" stroke-width="1"/>
    <rect x="150" y="708" width="5" height="14" rx="4" fill="#ffb057"/>
    <text x="384" y="718" font-size="12" font-weight="800" fill="#fff2df" text-anchor="end" font-family="ui-monospace, SFMono-Regular, Menlo, Consolas, monospace">164.2K</text>
  </g>
  <text x="28" y="744" font-size="9" font-weight="650" fill="#cc6b2c" text-anchor="start" font-family="ui-monospace, SFMono-Regular, Menlo, Consolas, monospace">01001100 // README_MOBILE_RENDER</text>
</svg>
