<svg xmlns="http://www.w3.org/2000/svg" width="1160" height="760" viewBox="0 0 1160 760" role="img" aria-labelledby="title desc">
  <title id="title">Codex Usage Dashboard</title>
  <desc id="desc">Public aggregate Codex usage snapshot with totals, daily volume wave chart, model share, and token mix.</desc>
  <defs>
    <linearGradient id="panel" x1="0" x2="1" y1="0" y2="1">
      <stop offset="0%" stop-color="#160b04"/>
      <stop offset="62%" stop-color="#0c0806"/>
      <stop offset="100%" stop-color="#221004"/>
    </linearGradient>
    <linearGradient id="waveFill" x1="0" x2="0" y1="0" y2="1">
      <stop offset="0%" stop-color="#ff8a22" stop-opacity="0.62"/>
      <stop offset="55%" stop-color="#ff8a22" stop-opacity="0.20"/>
      <stop offset="100%" stop-color="#ff8a22" stop-opacity="0.02"/>
    </linearGradient>
    <radialGradient id="peakGlow" cx="0.5" cy="0.5" r="0.5">
      <stop offset="0%" stop-color="#ffe2b5" stop-opacity="0.85"/>
      <stop offset="55%" stop-color="#ff8a22" stop-opacity="0.30"/>
      <stop offset="100%" stop-color="#ff8a22" stop-opacity="0"/>
    </radialGradient>
    <filter id="glow" x="-40%" y="-40%" width="180%" height="180%">
      <feGaussianBlur stdDeviation="3.5" result="blur"/>
      <feColorMatrix in="blur" type="matrix" values="1 0 0 0 1  0 0.35 0 0 0.26  0 0 0.08 0 0  0 0 0 0.9 0"/>
      <feMerge><feMergeNode/><feMergeNode in="SourceGraphic"/></feMerge>
    </filter>
  </defs>
  <rect width="1160" height="760" rx="18" fill="#050403"/>
  <rect x="20" y="20" width="1120" height="720" rx="18" fill="url(#panel)" stroke="#ff7a1a" stroke-width="2"/>

  <path d="M150 40 L-86 724" stroke="#3b2111" stroke-width="1" opacity="0.34"/>
  <path d="M312 40 L76 724" stroke="#3b2111" stroke-width="1" opacity="0.34"/>
  <path d="M474 40 L238 724" stroke="#3b2111" stroke-width="1" opacity="0.34"/>
  <path d="M636 40 L400 724" stroke="#3b2111" stroke-width="1" opacity="0.34"/>
  <path d="M798 40 L562 724" stroke="#3b2111" stroke-width="1" opacity="0.34"/>
  <path d="M960 40 L724 724" stroke="#3b2111" stroke-width="1" opacity="0.34"/>
  <path d="M32 90 L1128 90" stroke="#3b2111" stroke-width="1" opacity="0.38"/>
  <path d="M32 192 L1128 192" stroke="#3b2111" stroke-width="1" opacity="0.38"/>
  <path d="M32 294 L1128 294" stroke="#3b2111" stroke-width="1" opacity="0.38"/>
  <path d="M32 396 L1128 396" stroke="#3b2111" stroke-width="1" opacity="0.38"/>
  <path d="M32 498 L1128 498" stroke="#3b2111" stroke-width="1" opacity="0.38"/>
  <path d="M32 600 L1128 600" stroke="#3b2111" stroke-width="1" opacity="0.38"/>
  <path d="M32 702 L1128 702" stroke="#3b2111" stroke-width="1" opacity="0.38"/>

  <path d="M36 104 H1124" stroke="#ff7a1a" stroke-width="1.4" opacity="0.8"/>
  <path d="M36 716 H1124" stroke="#ff7a1a" stroke-width="1.4" opacity="0.5"/>
  <text x="50" y="66" font-size="25" font-weight="900" fill="#ff8a22" text-anchor="start" font-family="ui-monospace, SFMono-Regular, Menlo, Consolas, monospace">:: CODEX_USAGE_DASHBOARD</text>
  <circle cx="540" cy="60" r="5" fill="#2dd4a3"/>
  <text x="552" y="64" font-size="12" font-weight="800" fill="#2dd4a3" text-anchor="start" font-family="ui-monospace, SFMono-Regular, Menlo, Consolas, monospace">LIVE</text>
  <text x="50" y="94" font-size="13" font-weight="750" fill="#ffca88" text-anchor="start" font-family="ui-monospace, SFMono-Regular, Menlo, Consolas, monospace">&gt; Past 17 days | updated just now | 2026-05-18T16:14:31+08:00</text>
  <text x="1110" y="66" font-size="13" font-weight="800" fill="#ffca88" text-anchor="end" font-family="ui-monospace, SFMono-Regular, Menlo, Consolas, monospace">17d window · aggregated</text>
  <text x="1110" y="92" font-size="11" font-weight="700" fill="#ffb057" text-anchor="end" font-family="ui-monospace, SFMono-Regular, Menlo, Consolas, monospace">README_RENDER · public dashboard</text>

  <g>
    <rect x="50" y="130" width="168" height="76" rx="8" fill="#15100c" stroke="#ff8a22" stroke-opacity="0.72"/>
    <rect x="58" y="139" width="152" height="2" fill="#ff8a22" opacity="0.72"/>
    <text x="68" y="164" font-size="12" font-weight="800" fill="#ffb057" text-anchor="start" font-family="ui-monospace, SFMono-Regular, Menlo, Consolas, monospace">&gt; TOTAL</text>
    <text x="68" y="191" font-size="22" font-weight="850" fill="#fff2df" text-anchor="start" font-family="ui-monospace, SFMono-Regular, Menlo, Consolas, monospace">8.2B</text>
  </g>

  <g>
    <rect x="232" y="130" width="168" height="76" rx="8" fill="#15100c" stroke="#ff4d00" stroke-opacity="0.72"/>
    <rect x="240" y="139" width="152" height="2" fill="#ff4d00" opacity="0.72"/>
    <text x="250" y="164" font-size="12" font-weight="800" fill="#ffb057" text-anchor="start" font-family="ui-monospace, SFMono-Regular, Menlo, Consolas, monospace">&gt; COST</text>
    <text x="250" y="191" font-size="20" font-weight="850" fill="#fff2df" text-anchor="start" font-family="ui-monospace, SFMono-Regular, Menlo, Consolas, monospace">$7,323.73</text>
  </g>

  <g>
    <rect x="414" y="130" width="168" height="76" rx="8" fill="#15100c" stroke="#ffb057" stroke-opacity="0.72"/>
    <rect x="422" y="139" width="152" height="2" fill="#ffb057" opacity="0.72"/>
    <text x="432" y="164" font-size="12" font-weight="800" fill="#ffb057" text-anchor="start" font-family="ui-monospace, SFMono-Regular, Menlo, Consolas, monospace">&gt; CACHE HIT</text>
    <text x="432" y="191" font-size="22" font-weight="850" fill="#fff2df" text-anchor="start" font-family="ui-monospace, SFMono-Regular, Menlo, Consolas, monospace">94.5%</text>
  </g>

  <g>
    <rect x="596" y="130" width="168" height="76" rx="8" fill="#15100c" stroke="#f06d19" stroke-opacity="0.72"/>
    <rect x="604" y="139" width="152" height="2" fill="#f06d19" opacity="0.72"/>
    <text x="614" y="164" font-size="12" font-weight="800" fill="#ffb057" text-anchor="start" font-family="ui-monospace, SFMono-Regular, Menlo, Consolas, monospace">&gt; SAVINGS</text>
    <text x="614" y="191" font-size="20" font-weight="850" fill="#fff2df" text-anchor="start" font-family="ui-monospace, SFMono-Regular, Menlo, Consolas, monospace">$34,881.66</text>
  </g>

  <g>
    <rect x="778" y="130" width="148" height="76" rx="8" fill="#15100c" stroke="#ff8a22" stroke-opacity="0.72"/>
    <rect x="786" y="139" width="132" height="2" fill="#ff8a22" opacity="0.72"/>
    <text x="796" y="164" font-size="12" font-weight="800" fill="#ffb057" text-anchor="start" font-family="ui-monospace, SFMono-Regular, Menlo, Consolas, monospace">&gt; SESSIONS</text>
    <text x="796" y="191" font-size="22" font-weight="850" fill="#fff2df" text-anchor="start" font-family="ui-monospace, SFMono-Regular, Menlo, Consolas, monospace">2,039</text>
  </g>

  <g>
    <rect x="940" y="130" width="148" height="76" rx="8" fill="#15100c" stroke="#ff4d00" stroke-opacity="0.72"/>
    <rect x="948" y="139" width="132" height="2" fill="#ff4d00" opacity="0.72"/>
    <text x="958" y="164" font-size="12" font-weight="800" fill="#ffb057" text-anchor="start" font-family="ui-monospace, SFMono-Regular, Menlo, Consolas, monospace">&gt; DAYS</text>
    <text x="958" y="191" font-size="22" font-weight="850" fill="#fff2df" text-anchor="start" font-family="ui-monospace, SFMono-Regular, Menlo, Consolas, monospace">17</text>
  </g>

  <rect x="50" y="244" width="560" height="402" rx="12" fill="#0d0907" stroke="#ff7a1a" stroke-opacity="0.76"/>
  <path d="M66 284 H594" stroke="#ff7a1a" stroke-width="1" opacity="0.7"/>
  <text x="66" y="276" font-size="16" font-weight="900" fill="#ff8a22" text-anchor="start" font-family="ui-monospace, SFMono-Regular, Menlo, Consolas, monospace">[01] DAILY TOKEN VOLUME</text>
  <text x="594" y="276" font-size="11" font-weight="700" fill="#ffb057" text-anchor="end" font-family="ui-monospace, SFMono-Regular, Menlo, Consolas, monospace">peak 1.7B · avg 540.2M · 14 days</text>

  <line x1="86" y1="304" x2="590" y2="304" stroke="#3b2111" stroke-width="0.7" stroke-dasharray="3,4" opacity="0.55"/>
  <line x1="86" y1="381.5" x2="590" y2="381.5" stroke="#3b2111" stroke-width="0.7" stroke-dasharray="3,4" opacity="0.55"/>
  <line x1="86" y1="459" x2="590" y2="459" stroke="#3b2111" stroke-width="0.7" stroke-dasharray="3,4" opacity="0.55"/>
  <line x1="86" y1="536.5" x2="590" y2="536.5" stroke="#3b2111" stroke-width="0.7" stroke-dasharray="3,4" opacity="0.55"/>
  <line x1="86" y1="614" x2="590" y2="614" stroke="#7a4a26" stroke-width="0.9" opacity="0.7"/>

  <text x="82" y="307" font-size="9" font-weight="700" fill="#7a4a26" text-anchor="end" font-family="ui-monospace, SFMono-Regular, Menlo, Consolas, monospace">2.0B</text>
  <text x="82" y="384.5" font-size="9" font-weight="700" fill="#7a4a26" text-anchor="end" font-family="ui-monospace, SFMono-Regular, Menlo, Consolas, monospace">1.5B</text>
  <text x="82" y="462" font-size="9" font-weight="700" fill="#7a4a26" text-anchor="end" font-family="ui-monospace, SFMono-Regular, Menlo, Consolas, monospace">1.0B</text>
  <text x="82" y="539.5" font-size="9" font-weight="700" fill="#7a4a26" text-anchor="end" font-family="ui-monospace, SFMono-Regular, Menlo, Consolas, monospace">500M</text>
  <text x="82" y="617" font-size="9" font-weight="700" fill="#7a4a26" text-anchor="end" font-family="ui-monospace, SFMono-Regular, Menlo, Consolas, monospace">0</text>

  <path d="M86,580 C92.5,583 112,603.5 125,598 C138,592.5 151.2,557.8 164,547 C176.8,536.2 189.2,538 202,533 C214.8,528 228,512.7 241,517 C254,521.3 267,547.3 280,559 C293,570.7 306.2,593.5 319,587 C331.8,580.5 344.2,527 357,520 C369.8,513 383,551 396,545 C409,539 422,486 435,484 C448,482 461.2,524.5 474,533 C486.8,541.5 499.2,545.5 512,535 C524.8,524.5 538,500.7 551,470 C564,439.3 583.5,370.8 590,351 L590,614 L86,614 Z" fill="url(#waveFill)"/>
  <path d="M86,580 C92.5,583 112,603.5 125,598 C138,592.5 151.2,557.8 164,547 C176.8,536.2 189.2,538 202,533 C214.8,528 228,512.7 241,517 C254,521.3 267,547.3 280,559 C293,570.7 306.2,593.5 319,587 C331.8,580.5 344.2,527 357,520 C369.8,513 383,551 396,545 C409,539 422,486 435,484 C448,482 461.2,524.5 474,533 C486.8,541.5 499.2,545.5 512,535 C524.8,524.5 538,500.7 551,470 C564,439.3 583.5,370.8 590,351" fill="none" stroke="#ff8a22" stroke-width="2.6" stroke-linecap="round" stroke-linejoin="round"/>

  <circle cx="86" cy="580" r="3.4" fill="#0d0907" stroke="#ffb057" stroke-width="1.4"/>
  <circle cx="125" cy="598" r="3.4" fill="#0d0907" stroke="#ffb057" stroke-width="1.4"/>
  <circle cx="164" cy="547" r="3.4" fill="#0d0907" stroke="#ffb057" stroke-width="1.4"/>
  <circle cx="202" cy="533" r="3.4" fill="#0d0907" stroke="#ffb057" stroke-width="1.4"/>
  <circle cx="241" cy="517" r="3.4" fill="#0d0907" stroke="#ffb057" stroke-width="1.4"/>
  <circle cx="280" cy="559" r="3.4" fill="#0d0907" stroke="#ffb057" stroke-width="1.4"/>
  <circle cx="319" cy="587" r="3.4" fill="#0d0907" stroke="#ffb057" stroke-width="1.4"/>
  <circle cx="357" cy="520" r="3.4" fill="#0d0907" stroke="#ffb057" stroke-width="1.4"/>
  <circle cx="396" cy="545" r="3.4" fill="#0d0907" stroke="#ffb057" stroke-width="1.4"/>
  <circle cx="435" cy="484" r="3.4" fill="#0d0907" stroke="#ffb057" stroke-width="1.4"/>
  <circle cx="474" cy="533" r="3.4" fill="#0d0907" stroke="#ffb057" stroke-width="1.4"/>
  <circle cx="512" cy="535" r="3.4" fill="#0d0907" stroke="#ffb057" stroke-width="1.4"/>
  <circle cx="551" cy="470" r="3.4" fill="#0d0907" stroke="#ffb057" stroke-width="1.4"/>
  <circle cx="590" cy="351" r="14" fill="url(#peakGlow)"/>
  <circle cx="590" cy="351" r="4.6" fill="#fff2df" stroke="#ff4d00" stroke-width="1.8"/>

  <line x1="590" y1="338" x2="590" y2="304" stroke="#ff4d00" stroke-width="0.8" stroke-dasharray="2,3" opacity="0.65"/>
  <text x="590" y="298" font-size="12" font-weight="900" fill="#fff2df" text-anchor="middle" font-family="ui-monospace, SFMono-Regular, Menlo, Consolas, monospace">1.7B</text>
  <text x="590" y="288" font-size="9" font-weight="700" fill="#ff8a22" text-anchor="middle" font-family="ui-monospace, SFMono-Regular, Menlo, Consolas, monospace">PEAK</text>

  <text x="86" y="632" font-size="10" font-weight="700" fill="#ffca88" text-anchor="middle" font-family="ui-monospace, SFMono-Regular, Menlo, Consolas, monospace">05-05</text>
  <text x="125" y="632" font-size="10" font-weight="700" fill="#ffca88" text-anchor="middle" font-family="ui-monospace, SFMono-Regular, Menlo, Consolas, monospace">05-06</text>
  <text x="164" y="632" font-size="10" font-weight="700" fill="#ffca88" text-anchor="middle" font-family="ui-monospace, SFMono-Regular, Menlo, Consolas, monospace">05-07</text>
  <text x="202" y="632" font-size="10" font-weight="700" fill="#ffca88" text-anchor="middle" font-family="ui-monospace, SFMono-Regular, Menlo, Consolas, monospace">05-08</text>
  <text x="241" y="632" font-size="10" font-weight="700" fill="#ffca88" text-anchor="middle" font-family="ui-monospace, SFMono-Regular, Menlo, Consolas, monospace">05-09</text>
  <text x="280" y="632" font-size="10" font-weight="700" fill="#ffca88" text-anchor="middle" font-family="ui-monospace, SFMono-Regular, Menlo, Consolas, monospace">05-10</text>
  <text x="319" y="632" font-size="10" font-weight="700" fill="#ffca88" text-anchor="middle" font-family="ui-monospace, SFMono-Regular, Menlo, Consolas, monospace">05-11</text>
  <text x="357" y="632" font-size="10" font-weight="700" fill="#ffca88" text-anchor="middle" font-family="ui-monospace, SFMono-Regular, Menlo, Consolas, monospace">05-12</text>
  <text x="396" y="632" font-size="10" font-weight="700" fill="#ffca88" text-anchor="middle" font-family="ui-monospace, SFMono-Regular, Menlo, Consolas, monospace">05-13</text>
  <text x="435" y="632" font-size="10" font-weight="700" fill="#ffca88" text-anchor="middle" font-family="ui-monospace, SFMono-Regular, Menlo, Consolas, monospace">05-14</text>
  <text x="474" y="632" font-size="10" font-weight="700" fill="#ffca88" text-anchor="middle" font-family="ui-monospace, SFMono-Regular, Menlo, Consolas, monospace">05-15</text>
  <text x="512" y="632" font-size="10" font-weight="700" fill="#ffca88" text-anchor="middle" font-family="ui-monospace, SFMono-Regular, Menlo, Consolas, monospace">05-16</text>
  <text x="551" y="632" font-size="10" font-weight="700" fill="#ffca88" text-anchor="middle" font-family="ui-monospace, SFMono-Regular, Menlo, Consolas, monospace">05-17</text>
  <text x="590" y="632" font-size="10" font-weight="800" fill="#fff2df" text-anchor="middle" font-family="ui-monospace, SFMono-Regular, Menlo, Consolas, monospace">05-18</text>

  <rect x="640" y="244" width="468" height="192" rx="12" fill="#0d0907" stroke="#ff7a1a" stroke-opacity="0.76"/>
  <path d="M656 284 H1092" stroke="#ff7a1a" stroke-width="1" opacity="0.7"/>
  <text x="656" y="276" font-size="16" font-weight="900" fill="#ff8a22" text-anchor="start" font-family="ui-monospace, SFMono-Regular, Menlo, Consolas, monospace">[02] MODEL SHARE</text>
  <text x="1092" y="276" font-size="11" font-weight="700" fill="#ffb057" text-anchor="end" font-family="ui-monospace, SFMono-Regular, Menlo, Consolas, monospace">share of 8.2B tokens</text>

  <g>
    <text x="662" y="316" font-size="12" font-weight="700" fill="#ffca88" text-anchor="start" font-family="ui-monospace, SFMono-Regular, Menlo, Consolas, monospace">gpt-5.5</text>
    <rect x="822" y="306" width="214" height="16" rx="4" fill="#24160d" stroke="#4b2a13" stroke-width="1"/>
    <rect x="822" y="306" width="214" height="16" rx="4" fill="#ff4d00"/>
    <text x="1082" y="316" font-size="12" font-weight="800" fill="#fff2df" text-anchor="end" font-family="ui-monospace, SFMono-Regular, Menlo, Consolas, monospace">8.2B</text>
  </g>
  <g>
    <text x="662" y="344" font-size="12" font-weight="700" fill="#ffca88" text-anchor="start" font-family="ui-monospace, SFMono-Regular, Menlo, Consolas, monospace">gpt-5.3-codex</text>
    <rect x="822" y="334" width="214" height="16" rx="4" fill="#24160d" stroke="#4b2a13" stroke-width="1"/>
    <rect x="822" y="334" width="6" height="16" rx="4" fill="#ff4d00"/>
    <text x="1082" y="344" font-size="12" font-weight="800" fill="#fff2df" text-anchor="end" font-family="ui-monospace, SFMono-Regular, Menlo, Consolas, monospace">296.0K</text>
  </g>
  <g>
    <text x="662" y="372" font-size="12" font-weight="700" fill="#ffca88" text-anchor="start" font-family="ui-monospace, SFMono-Regular, Menlo, Consolas, monospace">gpt-5.3-codex-spark</text>
    <rect x="822" y="362" width="214" height="16" rx="4" fill="#24160d" stroke="#4b2a13" stroke-width="1"/>
    <rect x="822" y="362" width="6" height="16" rx="4" fill="#ff4d00"/>
    <text x="1082" y="372" font-size="12" font-weight="800" fill="#fff2df" text-anchor="end" font-family="ui-monospace, SFMono-Regular, Menlo, Consolas, monospace">164.2K</text>
  </g>
  <g>
    <text x="662" y="406" font-size="10" font-weight="700" fill="#ffb057" text-anchor="start" font-family="ui-monospace, SFMono-Regular, Menlo, Consolas, monospace">dominant model</text>
    <text x="1082" y="406" font-size="10" font-weight="800" fill="#fff2df" text-anchor="end" font-family="ui-monospace, SFMono-Regular, Menlo, Consolas, monospace">gpt-5.5 · 99.99%</text>
  </g>

  <rect x="640" y="456" width="468" height="190" rx="12" fill="#0d0907" stroke="#ff7a1a" stroke-opacity="0.76"/>
  <path d="M656 494 H1092" stroke="#ff7a1a" stroke-width="1" opacity="0.7"/>
  <text x="656" y="486" font-size="16" font-weight="900" fill="#ff8a22" text-anchor="start" font-family="ui-monospace, SFMono-Regular, Menlo, Consolas, monospace">[03] TOKEN MIX</text>
  <text x="1092" y="486" font-size="11" font-weight="700" fill="#ffb057" text-anchor="end" font-family="ui-monospace, SFMono-Regular, Menlo, Consolas, monospace">cache hit drives savings</text>

  <g>
    <text x="662" y="526" font-size="12" font-weight="700" fill="#ffca88" text-anchor="start" font-family="ui-monospace, SFMono-Regular, Menlo, Consolas, monospace">Cached input</text>
    <rect x="822" y="516" width="214" height="16" rx="4" fill="#24160d" stroke="#4b2a13" stroke-width="1"/>
    <rect x="822" y="516" width="214" height="16" rx="4" fill="#16745b"/>
    <text x="1082" y="526" font-size="12" font-weight="800" fill="#fff2df" text-anchor="end" font-family="ui-monospace, SFMono-Regular, Menlo, Consolas, monospace">7.8B</text>
  </g>
  <g>
    <text x="662" y="554" font-size="12" font-weight="700" fill="#ffca88" text-anchor="start" font-family="ui-monospace, SFMono-Regular, Menlo, Consolas, monospace">Non-cached input</text>
    <rect x="822" y="544" width="214" height="16" rx="4" fill="#24160d" stroke="#4b2a13" stroke-width="1"/>
    <rect x="822" y="544" width="12" height="16" rx="4" fill="#2f80ed"/>
    <text x="1082" y="554" font-size="12" font-weight="800" fill="#fff2df" text-anchor="end" font-family="ui-monospace, SFMono-Regular, Menlo, Consolas, monospace">454.3M</text>
  </g>
  <g>
    <text x="662" y="582" font-size="12" font-weight="700" fill="#ffca88" text-anchor="start" font-family="ui-monospace, SFMono-Regular, Menlo, Consolas, monospace">Output</text>
    <rect x="822" y="572" width="214" height="16" rx="4" fill="#24160d" stroke="#4b2a13" stroke-width="1"/>
    <rect x="822" y="572" width="6" height="16" rx="4" fill="#c77d21"/>
    <text x="1082" y="582" font-size="12" font-weight="800" fill="#fff2df" text-anchor="end" font-family="ui-monospace, SFMono-Regular, Menlo, Consolas, monospace">39.2M</text>
  </g>
  <g>
    <text x="662" y="610" font-size="12" font-weight="700" fill="#ffca88" text-anchor="start" font-family="ui-monospace, SFMono-Regular, Menlo, Consolas, monospace">Reasoning</text>
    <rect x="822" y="600" width="214" height="16" rx="4" fill="#24160d" stroke="#4b2a13" stroke-width="1"/>
    <rect x="822" y="600" width="6" height="16" rx="4" fill="#9a5bd7"/>
    <text x="1082" y="610" font-size="12" font-weight="800" fill="#fff2df" text-anchor="end" font-family="ui-monospace, SFMono-Regular, Menlo, Consolas, monospace">13.8M</text>
  </g>

  <g filter="url(#glow)">
    <path d="M50 682 H742" stroke="#ff8a22" stroke-width="2"/>
    <path d="M50 682 h24 m10 0 h8 m10 0 h42 m10 0 h18 m10 0 h74 m10 0 h12" stroke="#ffd08a" stroke-width="2"/>
  </g>

  <g>
    <rect x="756" y="664" width="352" height="54" rx="8" fill="#0a0604" stroke="#673110" stroke-opacity="0.82"/>
    <text x="774" y="684" font-size="11" font-weight="800" fill="#ff8a22" text-anchor="start" font-family="ui-monospace, SFMono-Regular, Menlo, Consolas, monospace">SUMMARY</text>
    <text x="774" y="700" font-size="9" font-weight="700" fill="#ffca88" text-anchor="start" font-family="ui-monospace, SFMono-Regular, Menlo, Consolas, monospace">cache.hit = cached_input / total_input  →  94.5%</text>
    <text x="774" y="712" font-size="9" font-weight="700" fill="#ffca88" text-anchor="start" font-family="ui-monospace, SFMono-Regular, Menlo, Consolas, monospace">savings = (list_price - paid)  →  $34,881.66 saved</text>
  </g>
</svg>
