<svg xmlns="http://www.w3.org/2000/svg" width="1160" height="800" viewBox="0 0 1160 800" role="img" aria-labelledby="title desc">
  <title id="title">Codex Usage Dashboard</title>
  <desc id="desc">Codex usage snapshot: 40.7B tokens, 92.7% cache hit, peak 6.5B on 06-06.</desc>
  <defs>
    <linearGradient id="panel" x1="0" x2="1" y1="0" y2="1">
      <stop offset="0%" stop-color="#160b04"/>
      <stop offset="62%" stop-color="#0c0806"/>
      <stop offset="100%" stop-color="#221004"/>
    </linearGradient>
    <linearGradient id="peakArea" x1="0" x2="0" y1="0" y2="1">
      <stop offset="0%" stop-color="#ffb057" stop-opacity="0.95"/>
      <stop offset="35%" stop-color="#ff7a1a" stop-opacity="0.55"/>
      <stop offset="100%" stop-color="#ff4d00" stop-opacity="0.02"/>
    </linearGradient>
    <linearGradient id="peakStroke" x1="0" x2="1" y1="0" y2="0">
      <stop offset="0%" stop-color="#ff7a1a"/>
      <stop offset="70%" stop-color="#ffb057"/>
      <stop offset="100%" stop-color="#ffd08a"/>
    </linearGradient>
    <linearGradient id="cacheBar" x1="0" x2="1" y1="0" y2="0">
      <stop offset="0%" stop-color="#0f5b48"/>
      <stop offset="100%" stop-color="#2dd4a3"/>
    </linearGradient>
    <linearGradient id="modelBar" x1="0" x2="1" y1="0" y2="0">
      <stop offset="0%" stop-color="#cc3a00"/>
      <stop offset="100%" stop-color="#ff7a1a"/>
    </linearGradient>
    <filter id="glow" x="-40%" y="-40%" width="180%" height="180%">
      <feGaussianBlur stdDeviation="3.5" result="blur"/>
      <feColorMatrix in="blur" type="matrix" values="1 0 0 0 1  0 0.35 0 0 0.26  0 0 0.08 0 0  0 0 0 0.9 0"/>
      <feMerge><feMergeNode/><feMergeNode in="SourceGraphic"/></feMerge>
    </filter>
    <filter id="peakGlow" x="-60%" y="-60%" width="220%" height="220%">
      <feGaussianBlur stdDeviation="5" result="b"/>
      <feMerge><feMergeNode in="b"/><feMergeNode in="SourceGraphic"/></feMerge>
    </filter>
  </defs>

  <rect width="1160" height="800" rx="18" fill="#050403"/>
  <rect x="20" y="20" width="1120" height="760" rx="18" fill="url(#panel)" stroke="#ff7a1a" stroke-width="2"/>
  <path d="M32 56 L1128 56" stroke="#3b2111" stroke-width="1" opacity="0.30"/><path d="M32 90 L1128 90" stroke="#3b2111" stroke-width="1" opacity="0.30"/><path d="M32 124 L1128 124" stroke="#3b2111" stroke-width="1" opacity="0.30"/><path d="M32 158 L1128 158" stroke="#3b2111" stroke-width="1" opacity="0.30"/><path d="M32 192 L1128 192" stroke="#3b2111" stroke-width="1" opacity="0.30"/><path d="M32 226 L1128 226" stroke="#3b2111" stroke-width="1" opacity="0.30"/><path d="M32 260 L1128 260" stroke="#3b2111" stroke-width="1" opacity="0.30"/><path d="M32 294 L1128 294" stroke="#3b2111" stroke-width="1" opacity="0.30"/><path d="M32 328 L1128 328" stroke="#3b2111" stroke-width="1" opacity="0.30"/><path d="M32 362 L1128 362" stroke="#3b2111" stroke-width="1" opacity="0.30"/><path d="M32 396 L1128 396" stroke="#3b2111" stroke-width="1" opacity="0.30"/><path d="M32 430 L1128 430" stroke="#3b2111" stroke-width="1" opacity="0.30"/><path d="M32 464 L1128 464" stroke="#3b2111" stroke-width="1" opacity="0.30"/><path d="M32 498 L1128 498" stroke="#3b2111" stroke-width="1" opacity="0.30"/><path d="M32 532 L1128 532" stroke="#3b2111" stroke-width="1" opacity="0.30"/><path d="M32 566 L1128 566" stroke="#3b2111" stroke-width="1" opacity="0.30"/><path d="M32 600 L1128 600" stroke="#3b2111" stroke-width="1" opacity="0.30"/><path d="M32 634 L1128 634" stroke="#3b2111" stroke-width="1" opacity="0.30"/><path d="M32 668 L1128 668" stroke="#3b2111" stroke-width="1" opacity="0.30"/><path d="M32 702 L1128 702" stroke="#3b2111" stroke-width="1" opacity="0.30"/><path d="M32 736 L1128 736" stroke="#3b2111" stroke-width="1" opacity="0.30"/><path d="M50 40 L-200 770" stroke="#3b2111" stroke-width="1" opacity="0.18"/><path d="M158 40 L-92 770" stroke="#3b2111" stroke-width="1" opacity="0.18"/><path d="M266 40 L16 770" stroke="#3b2111" stroke-width="1" opacity="0.18"/><path d="M374 40 L124 770" stroke="#3b2111" stroke-width="1" opacity="0.18"/><path d="M482 40 L232 770" stroke="#3b2111" stroke-width="1" opacity="0.18"/><path d="M590 40 L340 770" stroke="#3b2111" stroke-width="1" opacity="0.18"/><path d="M698 40 L448 770" stroke="#3b2111" stroke-width="1" opacity="0.18"/><path d="M806 40 L556 770" stroke="#3b2111" stroke-width="1" opacity="0.18"/><path d="M914 40 L664 770" stroke="#3b2111" stroke-width="1" opacity="0.18"/><path d="M1022 40 L772 770" stroke="#3b2111" stroke-width="1" opacity="0.18"/><path d="M1130 40 L880 770" stroke="#3b2111" stroke-width="1" opacity="0.18"/>
  <path d="M36 110 H1124" stroke="#ff7a1a" stroke-width="1.4" opacity="0.8"/>
  <path d="M36 756 H1124" stroke="#ff7a1a" stroke-width="1.4" opacity="0.5"/>

  <g font-family="ui-monospace, SFMono-Regular, Menlo, Consolas, monospace">
    <text x="50" y="66" font-size="25" font-weight="900" fill="#ff8a22" text-anchor="start" font-family="ui-monospace, SFMono-Regular, Menlo, Consolas, monospace">:: CODEX_USAGE_DASHBOARD // README_RENDER</text>
    <text x="50" y="94" font-size="13" font-weight="750" fill="#ffca88" text-anchor="start" font-family="ui-monospace, SFMono-Regular, Menlo, Consolas, monospace">&gt; Past 41 days | updated just now | 2026-06-13T09:18:52+08:00</text>
    <text x="1110" y="66" font-size="12" font-weight="800" fill="#ffca88" text-anchor="end" font-family="ui-monospace, SFMono-Regular, Menlo, Consolas, monospace">ASCII // ORANGE GRID</text>
    <g>
      <circle cx="1042" cy="90" r="3.4" fill="#ff7a1a">
        <animate attributeName="opacity" values="0.25;1;0.25" dur="2s" repeatCount="indefinite"/>
      </circle>
      <text x="1052" y="94" font-size="11" font-weight="850" fill="#ff8a22" text-anchor="start" font-family="ui-monospace, SFMono-Regular, Menlo, Consolas, monospace">LIVE</text>
    </g>
  </g>

  
  <g font-family="ui-monospace, SFMono-Regular, Menlo, Consolas, monospace">
    <rect x="50" y="130" width="168" height="76" rx="8" fill="#15100c" stroke="#ff8a22" stroke-opacity="0.72"/>
    <rect x="58" y="139" width="152" height="2" fill="#ff8a22" opacity="0.72"/>
    <text x="68" y="160" font-size="11" font-weight="800" fill="#ffb057" text-anchor="start" font-family="ui-monospace, SFMono-Regular, Menlo, Consolas, monospace">&gt; TOTAL TOKENS</text>
    <text x="68" y="190" font-size="22" font-weight="850" fill="#fff2df" text-anchor="start" font-family="ui-monospace, SFMono-Regular, Menlo, Consolas, monospace">40.7B</text>
    <text x="200" y="200" font-size="9" font-weight="800" fill="#2dd4a3" text-anchor="end" font-family="ui-monospace, SFMono-Regular, Menlo, Consolas, monospace">41d window</text>
  </g>
  <g font-family="ui-monospace, SFMono-Regular, Menlo, Consolas, monospace">
    <rect x="232" y="130" width="168" height="76" rx="8" fill="#15100c" stroke="#ff4d00" stroke-opacity="0.72"/>
    <rect x="240" y="139" width="152" height="2" fill="#ff4d00" opacity="0.72"/>
    <text x="250" y="160" font-size="11" font-weight="800" fill="#ffb057" text-anchor="start" font-family="ui-monospace, SFMono-Regular, Menlo, Consolas, monospace">&gt; COST</text>
    <text x="250" y="190" font-size="20" font-weight="850" fill="#fff2df" text-anchor="start" font-family="ui-monospace, SFMono-Regular, Menlo, Consolas, monospace">$40,732.62</text>
    <text x="382" y="200" font-size="9" font-weight="800" fill="#ffd08a" text-anchor="end" font-family="ui-monospace, SFMono-Regular, Menlo, Consolas, monospace">$993.48 / day</text>
  </g>
  <g font-family="ui-monospace, SFMono-Regular, Menlo, Consolas, monospace">
    <rect x="414" y="130" width="168" height="76" rx="8" fill="#15100c" stroke="#16745b" stroke-opacity="0.72"/>
    <rect x="422" y="139" width="152" height="2" fill="#2dd4a3" opacity="0.72"/>
    <text x="432" y="160" font-size="11" font-weight="800" fill="#ffb057" text-anchor="start" font-family="ui-monospace, SFMono-Regular, Menlo, Consolas, monospace">&gt; CACHE HIT</text>
    <text x="432" y="190" font-size="22" font-weight="850" fill="#fff2df" text-anchor="start" font-family="ui-monospace, SFMono-Regular, Menlo, Consolas, monospace">92.7%</text>
    <text x="564" y="200" font-size="9" font-weight="800" fill="#2dd4a3" text-anchor="end" font-family="ui-monospace, SFMono-Regular, Menlo, Consolas, monospace">37.5B cached</text>
  </g>
  <g font-family="ui-monospace, SFMono-Regular, Menlo, Consolas, monospace">
    <rect x="596" y="130" width="168" height="76" rx="8" fill="#15100c" stroke="#f06d19" stroke-opacity="0.72"/>
    <rect x="604" y="139" width="152" height="2" fill="#f06d19" opacity="0.72"/>
    <text x="614" y="160" font-size="11" font-weight="800" fill="#ffb057" text-anchor="start" font-family="ui-monospace, SFMono-Regular, Menlo, Consolas, monospace">&gt; SAVINGS</text>
    <text x="614" y="190" font-size="18" font-weight="850" fill="#fff2df" text-anchor="start" font-family="ui-monospace, SFMono-Regular, Menlo, Consolas, monospace">$176,436.81</text>
    <text x="746" y="200" font-size="9" font-weight="800" fill="#2dd4a3" text-anchor="end" font-family="ui-monospace, SFMono-Regular, Menlo, Consolas, monospace">vs no-cache</text>
  </g>
  <g font-family="ui-monospace, SFMono-Regular, Menlo, Consolas, monospace">
    <rect x="778" y="130" width="148" height="76" rx="8" fill="#15100c" stroke="#ff8a22" stroke-opacity="0.72"/>
    <rect x="786" y="139" width="132" height="2" fill="#ff8a22" opacity="0.72"/>
    <text x="796" y="160" font-size="11" font-weight="800" fill="#ffb057" text-anchor="start" font-family="ui-monospace, SFMono-Regular, Menlo, Consolas, monospace">&gt; SESSIONS</text>
    <text x="796" y="190" font-size="22" font-weight="850" fill="#fff2df" text-anchor="start" font-family="ui-monospace, SFMono-Regular, Menlo, Consolas, monospace">10,378</text>
    <text x="908" y="200" font-size="9" font-weight="800" fill="#ffd08a" text-anchor="end" font-family="ui-monospace, SFMono-Regular, Menlo, Consolas, monospace">253 / day</text>
  </g>
  <g font-family="ui-monospace, SFMono-Regular, Menlo, Consolas, monospace">
    <rect x="940" y="130" width="148" height="76" rx="8" fill="#15100c" stroke="#ff4d00" stroke-opacity="0.72"/>
    <rect x="948" y="139" width="132" height="2" fill="#ff4d00" opacity="0.72"/>
    <text x="958" y="160" font-size="11" font-weight="800" fill="#ffb057" text-anchor="start" font-family="ui-monospace, SFMono-Regular, Menlo, Consolas, monospace">&gt; DAYS</text>
    <text x="958" y="190" font-size="22" font-weight="850" fill="#fff2df" text-anchor="start" font-family="ui-monospace, SFMono-Regular, Menlo, Consolas, monospace">41</text>
    <text x="1070" y="200" font-size="9" font-weight="800" fill="#ffd08a" text-anchor="end" font-family="ui-monospace, SFMono-Regular, Menlo, Consolas, monospace">active</text>
  </g>

  <g font-family="ui-monospace, SFMono-Regular, Menlo, Consolas, monospace">
    <rect x="50" y="226" width="1060" height="270" rx="12" fill="#0d0907" stroke="#ff7a1a" stroke-opacity="0.76"/>
    <path d="M66 270 H1094" stroke="#ff7a1a" stroke-width="1" opacity="0.7"/>
    <text x="66" y="258" font-size="16" font-weight="900" fill="#ff8a22" text-anchor="start" font-family="ui-monospace, SFMono-Regular, Menlo, Consolas, monospace">[01] DAILY TOKEN VOLUME // PEAK CHART</text>
    <g transform="translate(826,246)">
      <rect width="270" height="18" rx="9" fill="#1b0e07" stroke="#ff7a1a" stroke-opacity="0.6"/>
      <circle cx="14" cy="9" r="3.5" fill="#ff8a22"/>
      <text x="24" y="13" font-size="10" font-weight="800" fill="#ffd08a" text-anchor="start" font-family="ui-monospace, SFMono-Regular, Menlo, Consolas, monospace">peak ↑ 6.5B · 06-06 · today 5.9B</text>
    </g>

    <text x="88" y="304" font-size="10" font-weight="800" fill="#7a4318" text-anchor="end" font-family="ui-monospace, SFMono-Regular, Menlo, Consolas, monospace">10B</text><text x="88" y="335" font-size="10" font-weight="800" fill="#7a4318" text-anchor="end" font-family="ui-monospace, SFMono-Regular, Menlo, Consolas, monospace">8B</text><text x="88" y="366" font-size="10" font-weight="800" fill="#7a4318" text-anchor="end" font-family="ui-monospace, SFMono-Regular, Menlo, Consolas, monospace">6B</text><text x="88" y="398" font-size="10" font-weight="800" fill="#7a4318" text-anchor="end" font-family="ui-monospace, SFMono-Regular, Menlo, Consolas, monospace">4B</text><text x="88" y="429" font-size="10" font-weight="800" fill="#7a4318" text-anchor="end" font-family="ui-monospace, SFMono-Regular, Menlo, Consolas, monospace">2B</text><text x="88" y="460" font-size="10" font-weight="800" fill="#7a4318" text-anchor="end" font-family="ui-monospace, SFMono-Regular, Menlo, Consolas, monospace">0</text>
    <path d="M94 331.20 H1090" stroke="#4b2a13" stroke-width="1" opacity="0.55" stroke-dasharray="2 4"/><path d="M94 362.40 H1090" stroke="#4b2a13" stroke-width="1" opacity="0.55" stroke-dasharray="2 4"/><path d="M94 393.60 H1090" stroke="#4b2a13" stroke-width="1" opacity="0.55" stroke-dasharray="2 4"/><path d="M94 424.80 H1090" stroke="#4b2a13" stroke-width="1" opacity="0.55" stroke-dasharray="2 4"/>
    <path d="M94 456 H1090" stroke="#6c3a16" stroke-width="1.3"/>

    <path d="M94.00,456.00 L94.00,450.16 L143.60,447.58 L193.20,438.07 L242.80,447.21 L292.40,439.15 L342.00,434.98 L391.60,433.59 L441.20,435.11 L490.80,391.80 L540.40,439.00 L590.00,437.10 L639.60,436.17 L689.20,416.28 L738.80,403.45 L788.40,429.38 L838.00,424.40 L887.60,333.62 L937.20,452.17 L986.80,449.58 L1036.40,438.87 L1086.00,364.31 L1086.00,456.00 Z" fill="url(#peakArea)"/><path d="M94.00,450.16 L143.60,447.58 L193.20,438.07 L242.80,447.21 L292.40,439.15 L342.00,434.98 L391.60,433.59 L441.20,435.11 L490.80,391.80 L540.40,439.00 L590.00,437.10 L639.60,436.17 L689.20,416.28 L738.80,403.45 L788.40,429.38 L838.00,424.40 L887.60,333.62 L937.20,452.17 L986.80,449.58 L1036.40,438.87 L1086.00,364.31" fill="none" stroke="url(#peakStroke)" stroke-width="2.6" stroke-linejoin="round" stroke-linecap="round"/>
    <circle cx="94.00" cy="450.16" r="2.6" fill="#0d0907" stroke="#ffb057" stroke-width="1.4"/><circle cx="143.60" cy="447.58" r="2.6" fill="#0d0907" stroke="#ffb057" stroke-width="1.4"/><circle cx="193.20" cy="438.07" r="2.6" fill="#0d0907" stroke="#ffb057" stroke-width="1.4"/><circle cx="242.80" cy="447.21" r="2.6" fill="#0d0907" stroke="#ffb057" stroke-width="1.4"/><circle cx="292.40" cy="439.15" r="2.6" fill="#0d0907" stroke="#ffb057" stroke-width="1.4"/><circle cx="342.00" cy="434.98" r="2.6" fill="#0d0907" stroke="#ffb057" stroke-width="1.4"/><circle cx="391.60" cy="433.59" r="2.6" fill="#0d0907" stroke="#ffb057" stroke-width="1.4"/><circle cx="441.20" cy="435.11" r="2.6" fill="#0d0907" stroke="#ffb057" stroke-width="1.4"/><circle cx="490.80" cy="391.80" r="2.6" fill="#0d0907" stroke="#ffb057" stroke-width="1.4"/><circle cx="540.40" cy="439.00" r="2.6" fill="#0d0907" stroke="#ffb057" stroke-width="1.4"/><circle cx="590.00" cy="437.10" r="2.6" fill="#0d0907" stroke="#ffb057" stroke-width="1.4"/><circle cx="639.60" cy="436.17" r="2.6" fill="#0d0907" stroke="#ffb057" stroke-width="1.4"/><circle cx="689.20" cy="416.28" r="2.6" fill="#0d0907" stroke="#ffb057" stroke-width="1.4"/><circle cx="738.80" cy="403.45" r="2.6" fill="#0d0907" stroke="#ffb057" stroke-width="1.4"/><circle cx="788.40" cy="429.38" r="2.6" fill="#0d0907" stroke="#ffb057" stroke-width="1.4"/><circle cx="838.00" cy="424.40" r="2.6" fill="#0d0907" stroke="#ffb057" stroke-width="1.4"/><circle cx="937.20" cy="452.17" r="2.6" fill="#0d0907" stroke="#ffb057" stroke-width="1.4"/><circle cx="986.80" cy="449.58" r="2.6" fill="#0d0907" stroke="#ffb057" stroke-width="1.4"/><circle cx="1036.40" cy="438.87" r="2.6" fill="#0d0907" stroke="#ffb057" stroke-width="1.4"/>
    <circle cx="1086.00" cy="364.31" r="4.5" fill="#1b0e07" stroke="#ffd08a" stroke-width="1.6"/><text x="1086.00" y="355.31" font-size="9" font-weight="800" fill="#ffd08a" text-anchor="middle" font-family="ui-monospace, SFMono-Regular, Menlo, Consolas, monospace">today 5.9B</text><circle cx="937.20" cy="452.17" r="4.5" fill="#1b0e07" stroke="#7a4318" stroke-width="1.6"/><path d="M937.20 458.17 V468.17" stroke="#7a4318" stroke-width="1" stroke-dasharray="2 2"/><text x="937.20" y="482.17" font-size="9" font-weight="800" fill="#cc6b2c" text-anchor="middle" font-family="ui-monospace, SFMono-Regular, Menlo, Consolas, monospace">low 245.7M</text><circle cx="887.60" cy="333.62" r="11" fill="#ff4d00" opacity="0.30"/><circle cx="887.60" cy="333.62" r="6.5" fill="#ff8a22" filter="url(#peakGlow)"/><circle cx="887.60" cy="333.62" r="3" fill="#fff2df"/><rect x="814.10" y="306.00" width="147" height="20" rx="5" fill="#1b0e07" stroke="#ff7a1a" stroke-opacity="0.85"/><text x="887.60" y="320.00" font-size="11" font-weight="900" fill="#ffd08a" text-anchor="middle" font-family="ui-monospace, SFMono-Regular, Menlo, Consolas, monospace">↑ 7.8B · 06-05-06</text>

    <text x="94" y="471" font-size="10" font-weight="800" fill="#ffca88" text-anchor="middle" font-family="ui-monospace, SFMono-Regular, Menlo, Consolas, monospace">05-04</text><text x="242" y="471" font-size="10" font-weight="800" fill="#ffca88" text-anchor="middle" font-family="ui-monospace, SFMono-Regular, Menlo, Consolas, monospace">05-10</text><text x="441" y="471" font-size="10" font-weight="800" fill="#ffca88" text-anchor="middle" font-family="ui-monospace, SFMono-Regular, Menlo, Consolas, monospace">05-18</text><text x="590" y="471" font-size="10" font-weight="800" fill="#ffca88" text-anchor="middle" font-family="ui-monospace, SFMono-Regular, Menlo, Consolas, monospace">05-24</text><text x="738" y="471" font-size="10" font-weight="800" fill="#ffca88" text-anchor="middle" font-family="ui-monospace, SFMono-Regular, Menlo, Consolas, monospace">05-30</text><text x="937" y="471" font-size="10" font-weight="800" fill="#ffca88" text-anchor="middle" font-family="ui-monospace, SFMono-Regular, Menlo, Consolas, monospace">06-07</text><text x="1086" y="471" font-size="10" font-weight="800" fill="#ffca88" text-anchor="middle" font-family="ui-monospace, SFMono-Regular, Menlo, Consolas, monospace">06-13</text>
    <text x="66" y="488" font-size="10" font-weight="800" fill="#cc6b2c" text-anchor="start" font-family="ui-monospace, SFMono-Regular, Menlo, Consolas, monospace">avg</text><text x="100" y="488" font-size="10" font-weight="850" fill="#fff2df" text-anchor="start" font-family="ui-monospace, SFMono-Regular, Menlo, Consolas, monospace">991.3M</text><text x="170" y="488" font-size="10" font-weight="800" fill="#cc6b2c" text-anchor="start" font-family="ui-monospace, SFMono-Regular, Menlo, Consolas, monospace">median</text><text x="212" y="488" font-size="10" font-weight="850" fill="#fff2df" text-anchor="start" font-family="ui-monospace, SFMono-Regular, Menlo, Consolas, monospace">524.2M</text><text x="282" y="488" font-size="10" font-weight="800" fill="#cc6b2c" text-anchor="start" font-family="ui-monospace, SFMono-Regular, Menlo, Consolas, monospace">range</text><text x="317" y="488" font-size="10" font-weight="850" fill="#fff2df" text-anchor="start" font-family="ui-monospace, SFMono-Regular, Menlo, Consolas, monospace">653.1K ↔ 6.5B</text><text x="420" y="488" font-size="10" font-weight="800" fill="#cc6b2c" text-anchor="start" font-family="ui-monospace, SFMono-Regular, Menlo, Consolas, monospace">peak vs avg</text><text x="497" y="488" font-size="10" font-weight="850" fill="#2dd4a3" text-anchor="start" font-family="ui-monospace, SFMono-Regular, Menlo, Consolas, monospace">+553%</text><text x="567" y="488" font-size="10" font-weight="800" fill="#cc6b2c" text-anchor="start" font-family="ui-monospace, SFMono-Regular, Menlo, Consolas, monospace">last 7d</text><text x="616" y="488" font-size="10" font-weight="850" fill="#fff2df" text-anchor="start" font-family="ui-monospace, SFMono-Regular, Menlo, Consolas, monospace">7.6B</text><text x="686" y="488" font-size="10" font-weight="800" fill="#cc6b2c" text-anchor="start" font-family="ui-monospace, SFMono-Regular, Menlo, Consolas, monospace">Δ vs prev 7d</text><text x="770" y="488" font-size="10" font-weight="850" fill="#ff4d00" text-anchor="start" font-family="ui-monospace, SFMono-Regular, Menlo, Consolas, monospace">-49%</text><text x="840" y="488" font-size="10" font-weight="800" fill="#cc6b2c" text-anchor="start" font-family="ui-monospace, SFMono-Regular, Menlo, Consolas, monospace">trend</text><text x="875" y="488" font-size="10" font-weight="850" fill="#ff4d00" text-anchor="start" font-family="ui-monospace, SFMono-Regular, Menlo, Consolas, monospace">▼ slowing</text>
  </g>

  <g font-family="ui-monospace, SFMono-Regular, Menlo, Consolas, monospace">
    <rect x="50" y="514" width="530" height="234" rx="12" fill="#0d0907" stroke="#ff7a1a" stroke-opacity="0.76"/>
    <path d="M66 558 H564" stroke="#ff7a1a" stroke-width="1" opacity="0.7"/>
    <text x="66" y="548" font-size="16" font-weight="900" fill="#ff8a22" text-anchor="start" font-family="ui-monospace, SFMono-Regular, Menlo, Consolas, monospace">[02] MODEL SHARE</text>
    <text x="564" y="548" font-size="11" font-weight="800" fill="#ffd08a" text-anchor="end" font-family="ui-monospace, SFMono-Regular, Menlo, Consolas, monospace">11 models</text>
    <g><text x="74" y="592" font-size="12" font-weight="800" fill="#fff2df" font-family="ui-monospace, SFMono-Regular, Menlo, Consolas, monospace">gpt-5.5</text><text x="74" y="606" font-size="9" font-weight="700" fill="#cc6b2c" font-family="ui-monospace, SFMono-Regular, Menlo, Consolas, monospace">flagship</text><rect x="220" y="582" width="280" height="20" rx="6" fill="#24160d" stroke="#4b2a13" stroke-width="1"/><rect x="220" y="582" width="259" height="20" rx="6" fill="url(#modelBar)"/><text x="556" y="595" font-size="12" font-weight="900" fill="#fff2df" text-anchor="end" font-family="ui-monospace, SFMono-Regular, Menlo, Consolas, monospace">37.7B</text><text x="556" y="609" font-size="10" font-weight="800" fill="#ffb057" text-anchor="end" font-family="ui-monospace, SFMono-Regular, Menlo, Consolas, monospace">92.70%</text></g><g><text x="74" y="626" font-size="12" font-weight="800" fill="#fff2df" font-family="ui-monospace, SFMono-Regular, Menlo, Consolas, monospace">claude-fable-5</text><text x="74" y="640" font-size="9" font-weight="700" fill="#cc6b2c" font-family="ui-monospace, SFMono-Regular, Menlo, Consolas, monospace">secondary</text><rect x="220" y="616" width="280" height="20" rx="6" fill="#24160d" stroke="#4b2a13" stroke-width="1"/><rect x="220" y="616" width="6" height="20" rx="6" fill="url(#modelBar)"/><text x="556" y="629" font-size="12" font-weight="900" fill="#fff2df" text-anchor="end" font-family="ui-monospace, SFMono-Regular, Menlo, Consolas, monospace">1.0B</text><text x="556" y="643" font-size="10" font-weight="800" fill="#ffb057" text-anchor="end" font-family="ui-monospace, SFMono-Regular, Menlo, Consolas, monospace">2.49%</text></g><g><text x="74" y="660" font-size="12" font-weight="800" fill="#fff2df" font-family="ui-monospace, SFMono-Regular, Menlo, Consolas, monospace">claude-opus-4-8</text><text x="74" y="674" font-size="9" font-weight="700" fill="#cc6b2c" font-family="ui-monospace, SFMono-Regular, Menlo, Consolas, monospace">long tail</text><rect x="220" y="650" width="280" height="20" rx="6" fill="#24160d" stroke="#4b2a13" stroke-width="1"/><rect x="220" y="650" width="5" height="20" rx="6" fill="url(#modelBar)"/><text x="556" y="663" font-size="12" font-weight="900" fill="#fff2df" text-anchor="end" font-family="ui-monospace, SFMono-Regular, Menlo, Consolas, monospace">858.6M</text><text x="556" y="677" font-size="10" font-weight="800" fill="#ffb057" text-anchor="end" font-family="ui-monospace, SFMono-Regular, Menlo, Consolas, monospace">2.11%</text></g><g><text x="74" y="694" font-size="12" font-weight="800" fill="#fff2df" font-family="ui-monospace, SFMono-Regular, Menlo, Consolas, monospace">claude-opus-4-7</text><text x="74" y="708" font-size="9" font-weight="700" fill="#cc6b2c" font-family="ui-monospace, SFMono-Regular, Menlo, Consolas, monospace">long tail</text><rect x="220" y="684" width="280" height="20" rx="6" fill="#24160d" stroke="#4b2a13" stroke-width="1"/><rect x="220" y="684" width="3" height="20" rx="6" fill="url(#modelBar)"/><text x="556" y="697" font-size="12" font-weight="900" fill="#fff2df" text-anchor="end" font-family="ui-monospace, SFMono-Regular, Menlo, Consolas, monospace">543.3M</text><text x="556" y="711" font-size="10" font-weight="800" fill="#ffb057" text-anchor="end" font-family="ui-monospace, SFMono-Regular, Menlo, Consolas, monospace">1.34%</text></g><g><text x="74" y="728" font-size="12" font-weight="800" fill="#fff2df" font-family="ui-monospace, SFMono-Regular, Menlo, Consolas, monospace">gpt-5.3-codex-spark</text><text x="74" y="742" font-size="9" font-weight="700" fill="#cc6b2c" font-family="ui-monospace, SFMono-Regular, Menlo, Consolas, monospace">long tail</text><rect x="220" y="718" width="280" height="20" rx="6" fill="#24160d" stroke="#4b2a13" stroke-width="1"/><rect x="220" y="718" width="3" height="20" rx="6" fill="url(#modelBar)"/><text x="556" y="731" font-size="12" font-weight="900" fill="#fff2df" text-anchor="end" font-family="ui-monospace, SFMono-Regular, Menlo, Consolas, monospace">499.9M</text><text x="556" y="745" font-size="10" font-weight="800" fill="#ffb057" text-anchor="end" font-family="ui-monospace, SFMono-Regular, Menlo, Consolas, monospace">1.23%</text></g>
  </g>

  <g font-family="ui-monospace, SFMono-Regular, Menlo, Consolas, monospace">
    <rect x="600" y="514" width="510" height="234" rx="12" fill="#0d0907" stroke="#ff7a1a" stroke-opacity="0.76"/>
    <path d="M616 558 H1094" stroke="#ff7a1a" stroke-width="1" opacity="0.7"/>
    <text x="616" y="548" font-size="16" font-weight="900" fill="#ff8a22" text-anchor="start" font-family="ui-monospace, SFMono-Regular, Menlo, Consolas, monospace">[03] TOKEN MIX</text>
    <text x="1094" y="548" font-size="11" font-weight="800" fill="#ffd08a" text-anchor="end" font-family="ui-monospace, SFMono-Regular, Menlo, Consolas, monospace">40.7B total</text>
    <rect x="616.0" y="572.0" width="478.0" height="14" rx="5" fill="#24160d" stroke="#4b2a13"/><rect x="616.00" y="572.0" width="440.36" height="14" rx="5" fill="url(#cacheBar)"/><rect x="1056.36" y="572.0" width="34.44" height="14" fill="#58a6ff"/><rect x="1090.80" y="572.0" width="2.39" height="14" fill="#ff8a22"/><rect x="1093.18" y="572.0" width="0.82" height="14" fill="#b779ff"/>
    <rect x="616" y="606" width="10" height="10" rx="2" fill="#2dd4a3"/><text x="632" y="615" font-size="11" font-weight="800" fill="#fff2df" font-family="ui-monospace, SFMono-Regular, Menlo, Consolas, monospace">Cached input</text><text x="1086" y="615" font-size="12" font-weight="900" fill="#fff2df" text-anchor="end" font-family="ui-monospace, SFMono-Regular, Menlo, Consolas, monospace">37.5B</text><text x="1086" y="628" font-size="9" font-weight="800" fill="#2dd4a3" text-anchor="end" font-family="ui-monospace, SFMono-Regular, Menlo, Consolas, monospace">92.13%</text><rect x="616" y="638" width="10" height="10" rx="2" fill="#58a6ff"/><text x="632" y="647" font-size="11" font-weight="800" fill="#fff2df" font-family="ui-monospace, SFMono-Regular, Menlo, Consolas, monospace">Non-cached input</text><text x="1086" y="647" font-size="12" font-weight="900" fill="#fff2df" text-anchor="end" font-family="ui-monospace, SFMono-Regular, Menlo, Consolas, monospace">2.9B</text><text x="1086" y="660" font-size="9" font-weight="800" fill="#58a6ff" text-anchor="end" font-family="ui-monospace, SFMono-Regular, Menlo, Consolas, monospace">7.20%</text><rect x="616" y="670" width="10" height="10" rx="2" fill="#ff8a22"/><text x="632" y="679" font-size="11" font-weight="800" fill="#fff2df" font-family="ui-monospace, SFMono-Regular, Menlo, Consolas, monospace">Output</text><text x="1086" y="679" font-size="12" font-weight="900" fill="#fff2df" text-anchor="end" font-family="ui-monospace, SFMono-Regular, Menlo, Consolas, monospace">203.4M</text><text x="1086" y="692" font-size="9" font-weight="800" fill="#ff8a22" text-anchor="end" font-family="ui-monospace, SFMono-Regular, Menlo, Consolas, monospace">0.50%</text><rect x="616" y="702" width="10" height="10" rx="2" fill="#b779ff"/><text x="632" y="711" font-size="11" font-weight="800" fill="#fff2df" font-family="ui-monospace, SFMono-Regular, Menlo, Consolas, monospace">Reasoning</text><text x="1086" y="711" font-size="12" font-weight="900" fill="#fff2df" text-anchor="end" font-family="ui-monospace, SFMono-Regular, Menlo, Consolas, monospace">69.6M</text><text x="1086" y="724" font-size="9" font-weight="800" fill="#b779ff" text-anchor="end" font-family="ui-monospace, SFMono-Regular, Menlo, Consolas, monospace">0.17%</text>
    <rect x="616" y="730" width="478" height="12" rx="4" fill="#0a1714" stroke="#16745b" stroke-opacity="0.45"/>
    <circle cx="626" cy="736" r="2.6" fill="#2dd4a3"/>
    <text x="634" y="739" font-size="10" font-weight="800" fill="#9adfca" text-anchor="start" font-family="ui-monospace, SFMono-Regular, Menlo, Consolas, monospace">cache hit · 92.7% — savings $176,436.81</text>
  </g>

  <g font-family="ui-monospace, SFMono-Regular, Menlo, Consolas, monospace">
    <g filter="url(#glow)">
      <path d="M50 768 H742" stroke="#ff8a22" stroke-width="2"/>
      <path d="M50 768 h24 m10 0 h8 m10 0 h42 m10 0 h18 m10 0 h74 m10 0 h12" stroke="#ffd08a" stroke-width="2"/>
    </g>
    <rect x="756" y="754" width="352" height="22" rx="6" fill="#0a0604" stroke="#673110" stroke-opacity="0.82"/>
    <text x="774" y="769" font-size="10" font-weight="650" fill="#cc6b2c" text-anchor="start" font-family="ui-monospace, SFMono-Regular, Menlo, Consolas, monospace">01001100 // peak.chart = max(daily) | window=41d | avg=991.3M</text>
  </g>
</svg>
