<svg xmlns="http://www.w3.org/2000/svg" width="1160" height="800" viewBox="0 0 1160 800" role="img" aria-labelledby="title desc">
  <title id="title">Codex Usage Dashboard</title>
  <desc id="desc">Codex usage snapshot: 14.4B tokens, 93.5% cache hit, $13,437.98 cost, with a 14-day peak chart and side-by-side breakdowns of model share, token mix, and cost by model.</desc>
  <defs>
    <linearGradient id="panel" x1="0" x2="1" y1="0" y2="1">
      <stop offset="0%" stop-color="#160b04"/>
      <stop offset="62%" stop-color="#0c0806"/>
      <stop offset="100%" stop-color="#221004"/>
    </linearGradient>
    <linearGradient id="peakArea" x1="0" x2="0" y1="0" y2="1">
      <stop offset="0%" stop-color="#ffb057" stop-opacity="0.95"/>
      <stop offset="35%" stop-color="#ff7a1a" stop-opacity="0.55"/>
      <stop offset="100%" stop-color="#ff4d00" stop-opacity="0.02"/>
    </linearGradient>
    <linearGradient id="peakStroke" x1="0" x2="1" y1="0" y2="0">
      <stop offset="0%" stop-color="#ff7a1a"/>
      <stop offset="70%" stop-color="#ffb057"/>
      <stop offset="100%" stop-color="#ffd08a"/>
    </linearGradient>
    <linearGradient id="cacheBar" x1="0" x2="1" y1="0" y2="0">
      <stop offset="0%" stop-color="#0f5b48"/>
      <stop offset="100%" stop-color="#2dd4a3"/>
    </linearGradient>
    <linearGradient id="m1" x1="0" x2="1" y1="0" y2="0"><stop offset="0%" stop-color="#cc3a00"/><stop offset="100%" stop-color="#ff7a1a"/></linearGradient>
    <linearGradient id="m2" x1="0" x2="1" y1="0" y2="0"><stop offset="0%" stop-color="#cc6a16"/><stop offset="100%" stop-color="#ffb057"/></linearGradient>
    <linearGradient id="m3" x1="0" x2="1" y1="0" y2="0"><stop offset="0%" stop-color="#c98b3f"/><stop offset="100%" stop-color="#ffd08a"/></linearGradient>
    <linearGradient id="m4" x1="0" x2="1" y1="0" y2="0"><stop offset="0%" stop-color="#1a5fc2"/><stop offset="100%" stop-color="#58a6ff"/></linearGradient>
    <linearGradient id="m5" x1="0" x2="1" y1="0" y2="0"><stop offset="0%" stop-color="#0f9476"/><stop offset="100%" stop-color="#2dd4a3"/></linearGradient>
    <filter id="glow" x="-40%" y="-40%" width="180%" height="180%">
      <feGaussianBlur stdDeviation="3.5" result="blur"/>
      <feColorMatrix in="blur" type="matrix" values="1 0 0 0 1  0 0.35 0 0 0.26  0 0 0.08 0 0  0 0 0 0.9 0"/>
      <feMerge><feMergeNode/><feMergeNode in="SourceGraphic"/></feMerge>
    </filter>
    <filter id="peakGlow" x="-60%" y="-60%" width="220%" height="220%">
      <feGaussianBlur stdDeviation="5" result="b"/>
      <feMerge><feMergeNode in="b"/><feMergeNode in="SourceGraphic"/></feMerge>
    </filter>
  </defs>

  <rect width="1160" height="800" rx="18" fill="#050403"/>
  <rect x="20" y="20" width="1120" height="760" rx="18" fill="url(#panel)" stroke="#ff7a1a" stroke-width="2"/>

  <g stroke="#3b2111" stroke-width="1" opacity="0.30">
    <path d="M32 56 L1128 56"/><path d="M32 90 L1128 90"/><path d="M32 124 L1128 124"/><path d="M32 158 L1128 158"/><path d="M32 192 L1128 192"/><path d="M32 226 L1128 226"/><path d="M32 260 L1128 260"/><path d="M32 294 L1128 294"/><path d="M32 328 L1128 328"/><path d="M32 362 L1128 362"/><path d="M32 396 L1128 396"/><path d="M32 430 L1128 430"/><path d="M32 464 L1128 464"/><path d="M32 498 L1128 498"/><path d="M32 532 L1128 532"/><path d="M32 566 L1128 566"/><path d="M32 600 L1128 600"/><path d="M32 634 L1128 634"/><path d="M32 668 L1128 668"/><path d="M32 702 L1128 702"/><path d="M32 736 L1128 736"/><path d="M32 770 L1128 770"/>
  </g>
  <g stroke="#3b2111" stroke-width="1" opacity="0.18">
    <path d="M50 40 L-200 770"/><path d="M158 40 L-92 770"/><path d="M266 40 L16 770"/><path d="M374 40 L124 770"/><path d="M482 40 L232 770"/><path d="M590 40 L340 770"/><path d="M698 40 L448 770"/><path d="M806 40 L556 770"/><path d="M914 40 L664 770"/><path d="M1022 40 L772 770"/><path d="M1130 40 L880 770"/>
  </g>

  <path d="M36 110 H1124" stroke="#ff7a1a" stroke-width="1.4" opacity="0.8"/>
  <path d="M36 756 H1124" stroke="#ff7a1a" stroke-width="1.4" opacity="0.5"/>

  <g font-family="ui-monospace, SFMono-Regular, Menlo, Consolas, monospace">
    <text x="50" y="66" font-size="25" font-weight="900" fill="#ff8a22">:: CODEX_USAGE_DASHBOARD // README_RENDER</text>
    <text x="50" y="94" font-size="13" font-weight="750" fill="#ffca88">&gt; Past 20 days | updated just now | 2026-05-21T13:00:00+08:00</text>
    <text x="1110" y="66" font-size="12" font-weight="800" fill="#ffca88" text-anchor="end">ASCII // ORANGE GRID</text>
    <g>
      <circle cx="1042" cy="90" r="3.4" fill="#ff7a1a">
        <animate attributeName="opacity" values="0.25;1;0.25" dur="2s" repeatCount="indefinite"/>
      </circle>
      <text x="1052" y="94" font-size="11" font-weight="850" fill="#ff8a22">LIVE</text>
    </g>
  </g>

  <g font-family="ui-monospace, SFMono-Regular, Menlo, Consolas, monospace">
    <g>
      <rect x="50" y="130" width="168" height="76" rx="8" fill="#15100c" stroke="#ff8a22" stroke-opacity="0.72"/>
      <rect x="58" y="139" width="152" height="2" fill="#ff8a22" opacity="0.72"/>
      <text x="68" y="160" font-size="11" font-weight="800" fill="#ffb057">&gt; TOTAL TOKENS</text>
      <text x="68" y="190" font-size="22" font-weight="850" fill="#fff2df">14.4B</text>
      <text x="200" y="200" font-size="9" font-weight="800" fill="#2dd4a3" text-anchor="end">20d window</text>
    </g>
    <g>
      <rect x="232" y="130" width="168" height="76" rx="8" fill="#15100c" stroke="#ff4d00" stroke-opacity="0.72"/>
      <rect x="240" y="139" width="152" height="2" fill="#ff4d00" opacity="0.72"/>
      <text x="250" y="160" font-size="11" font-weight="800" fill="#ffb057">&gt; COST</text>
      <text x="250" y="190" font-size="20" font-weight="850" fill="#fff2df">$13,437.98</text>
      <text x="382" y="200" font-size="9" font-weight="800" fill="#ffd08a" text-anchor="end">$671.90 / day</text>
    </g>
    <g>
      <rect x="414" y="130" width="168" height="76" rx="8" fill="#15100c" stroke="#16745b" stroke-opacity="0.85"/>
      <rect x="422" y="139" width="152" height="2" fill="#2dd4a3" opacity="0.85"/>
      <text x="432" y="160" font-size="11" font-weight="800" fill="#ffb057">&gt; CACHE HIT</text>
      <text x="432" y="190" font-size="22" font-weight="850" fill="#fff2df">93.5%</text>
      <text x="564" y="200" font-size="9" font-weight="800" fill="#2dd4a3" text-anchor="end">13.4B cached</text>
    </g>
    <g>
      <rect x="596" y="130" width="168" height="76" rx="8" fill="#15100c" stroke="#f06d19" stroke-opacity="0.72"/>
      <rect x="604" y="139" width="152" height="2" fill="#f06d19" opacity="0.72"/>
      <text x="614" y="160" font-size="11" font-weight="800" fill="#ffb057">&gt; SAVINGS</text>
      <text x="614" y="190" font-size="20" font-weight="850" fill="#fff2df">$60,427.68</text>
      <text x="746" y="200" font-size="9" font-weight="800" fill="#2dd4a3" text-anchor="end">vs no-cache</text>
    </g>
    <g>
      <rect x="778" y="130" width="148" height="76" rx="8" fill="#15100c" stroke="#ff8a22" stroke-opacity="0.72"/>
      <rect x="786" y="139" width="132" height="2" fill="#ff8a22" opacity="0.72"/>
      <text x="796" y="160" font-size="11" font-weight="800" fill="#ffb057">&gt; SESSIONS</text>
      <text x="796" y="190" font-size="22" font-weight="850" fill="#fff2df">3,858</text>
      <text x="908" y="200" font-size="9" font-weight="800" fill="#ffd08a" text-anchor="end">193 / day</text>
    </g>
    <g>
      <rect x="940" y="130" width="148" height="76" rx="8" fill="#15100c" stroke="#ff4d00" stroke-opacity="0.72"/>
      <rect x="948" y="139" width="132" height="2" fill="#ff4d00" opacity="0.72"/>
      <text x="958" y="160" font-size="11" font-weight="800" fill="#ffb057">&gt; DAYS</text>
      <text x="958" y="190" font-size="22" font-weight="850" fill="#fff2df">20</text>
      <text x="1070" y="200" font-size="9" font-weight="800" fill="#ffd08a" text-anchor="end">active</text>
    </g>
  </g>

  <g font-family="ui-monospace, SFMono-Regular, Menlo, Consolas, monospace">
    <rect x="50" y="226" width="1060" height="270" rx="12" fill="#0d0907" stroke="#ff7a1a" stroke-opacity="0.76"/>
    <path d="M66 270 H1094" stroke="#ff7a1a" stroke-width="1" opacity="0.7"/>
    <text x="66" y="258" font-size="16" font-weight="900" fill="#ff8a22">[01] DAILY TOKEN VOLUME // PEAK CHART</text>
    <g transform="translate(852,246)">
      <rect width="244" height="18" rx="9" fill="#1b0e07" stroke="#ff7a1a" stroke-opacity="0.6"/>
      <circle cx="14" cy="9" r="3.5" fill="#ff8a22"/>
      <text x="24" y="13" font-size="10" font-weight="800" fill="#ffd08a">peak ↑ 3.6B · today · 05-21</text>
    </g>

    <g font-size="10" font-weight="800" fill="#7a4318">
      <text x="88" y="304" text-anchor="end">5B</text>
      <text x="88" y="335" text-anchor="end">4B</text>
      <text x="88" y="367" text-anchor="end">3B</text>
      <text x="88" y="398" text-anchor="end">2B</text>
      <text x="88" y="429" text-anchor="end">1B</text>
      <text x="88" y="461" text-anchor="end">0</text>
    </g>
    <g stroke="#4b2a13" stroke-width="1" opacity="0.55" stroke-dasharray="2 4">
      <path d="M94 300 H1090"/>
      <path d="M94 331.2 H1090"/>
      <path d="M94 362.4 H1090"/>
      <path d="M94 393.6 H1090"/>
      <path d="M94 424.8 H1090"/>
    </g>
    <path d="M94 456 H1090" stroke="#6c3a16" stroke-width="1.3"/>

    <path d="M94,456 L94,439.64 L170.31,436.49 L246.62,445.02 L322.92,450.54 L399.23,437.09 L475.54,442.09 L551.85,429.73 L628.15,440.35 L704.46,440.03 L780.77,427.14 L857.08,437.36 L933.38,432.01 L1009.69,365.52 L1086,343.68 L1086,456 Z" fill="url(#peakArea)"/>
    <path d="M94,439.64 L170.31,436.49 L246.62,445.02 L322.92,450.54 L399.23,437.09 L475.54,442.09 L551.85,429.73 L628.15,440.35 L704.46,440.03 L780.77,427.14 L857.08,437.36 L933.38,432.01 L1009.69,365.52 L1086,343.68" fill="none" stroke="url(#peakStroke)" stroke-width="2.6" stroke-linejoin="round" stroke-linecap="round"/>

    <g fill="#0d0907" stroke="#ffb057" stroke-width="1.4">
      <circle cx="94" cy="439.64" r="2.6"/>
      <circle cx="170.31" cy="436.49" r="2.6"/>
      <circle cx="246.62" cy="445.02" r="2.6"/>
      <circle cx="399.23" cy="437.09" r="2.6"/>
      <circle cx="475.54" cy="442.09" r="2.6"/>
      <circle cx="551.85" cy="429.73" r="2.6"/>
      <circle cx="628.15" cy="440.35" r="2.6"/>
      <circle cx="704.46" cy="440.03" r="2.6"/>
      <circle cx="857.08" cy="437.36" r="2.6"/>
      <circle cx="933.38" cy="432.01" r="2.6"/>
    </g>

    <g>
      <circle cx="322.92" cy="450.54" r="4.5" fill="#1b0e07" stroke="#7a4318" stroke-width="1.6"/>
      <path d="M322.92 462 V472" stroke="#7a4318" stroke-width="1" stroke-dasharray="2 2"/>
      <text x="322.92" y="488" font-size="9" font-weight="800" fill="#cc6b2c" text-anchor="middle">low 175M</text>
    </g>
    <g>
      <circle cx="780.77" cy="427.14" r="4.5" fill="#1b0e07" stroke="#ffb057" stroke-width="1.6"/>
      <path d="M780.77 421 V408" stroke="#ffb057" stroke-width="1" stroke-dasharray="2 2"/>
      <text x="780.77" y="402" font-size="9" font-weight="800" fill="#ffd08a" text-anchor="middle">925M</text>
    </g>

    <g>
      <circle cx="1009.69" cy="365.52" r="4.5" fill="#1b0e07" stroke="#ffb057" stroke-width="1.6"/>
      <path d="M1009.69 360 V348" stroke="#ffb057" stroke-width="1" stroke-dasharray="2 2"/>
      <text x="1009.69" y="342" font-size="9" font-weight="800" fill="#ffd08a" text-anchor="middle">2.9B · 05-20</text>
    </g>

    <g>
      <circle cx="1086" cy="343.68" r="11" fill="#ff4d00" opacity="0.30"/>
      <circle cx="1086" cy="343.68" r="6.5" fill="#ff8a22" filter="url(#peakGlow)"/>
      <circle cx="1086" cy="343.68" r="3" fill="#fff2df"/>
      <rect x="1024" y="319" width="62" height="20" rx="5" fill="#1b0e07" stroke="#ff7a1a" stroke-opacity="0.85"/>
      <text x="1055" y="333" font-size="11" font-weight="900" fill="#ffd08a" text-anchor="middle">↑ 3.6B</text>
    </g>

    <g font-size="10" font-weight="800" fill="#ffca88">
      <text x="94" y="471" text-anchor="middle">05-08</text>
      <text x="246.62" y="471" text-anchor="middle">05-10</text>
      <text x="399.23" y="471" text-anchor="middle">05-12</text>
      <text x="551.85" y="471" text-anchor="middle">05-14</text>
      <text x="704.46" y="471" text-anchor="middle">05-16</text>
      <text x="857.08" y="471" text-anchor="middle">05-18</text>
      <text x="1009.69" y="471" text-anchor="middle">05-20</text>
    </g>

    <g>
      <text x="66" y="488" font-size="10" font-weight="800" fill="#cc6b2c">avg</text>
      <text x="98" y="488" font-size="10" font-weight="850" fill="#fff2df">955.4M</text>
      <text x="166" y="488" font-size="10" font-weight="800" fill="#cc6b2c">median</text>
      <text x="216" y="488" font-size="10" font-weight="850" fill="#fff2df">601.9M</text>
      <text x="294" y="488" font-size="10" font-weight="800" fill="#cc6b2c">range</text>
      <text x="334" y="488" font-size="10" font-weight="850" fill="#fff2df">175.1M ↔ 3.60B</text>
      <text x="478" y="488" font-size="10" font-weight="800" fill="#cc6b2c">peak vs avg</text>
      <text x="556" y="488" font-size="10" font-weight="850" fill="#2dd4a3">+277%</text>
      <text x="630" y="488" font-size="10" font-weight="800" fill="#cc6b2c">last 7d</text>
      <text x="676" y="488" font-size="10" font-weight="850" fill="#fff2df">9.80B</text>
      <text x="730" y="488" font-size="10" font-weight="800" fill="#cc6b2c">last 7d vs prev</text>
      <text x="836" y="488" font-size="10" font-weight="850" fill="#2dd4a3">+175%</text>
      <text x="920" y="488" font-size="10" font-weight="800" fill="#cc6b2c">trend</text>
      <text x="960" y="488" font-size="10" font-weight="850" fill="#2dd4a3">▲ accelerating</text>
    </g>
  </g>

  <g font-family="ui-monospace, SFMono-Regular, Menlo, Consolas, monospace">
    <rect x="50" y="514" width="342" height="234" rx="12" fill="#0d0907" stroke="#ff7a1a" stroke-opacity="0.76"/>
    <path d="M68 558 H374" stroke="#ff7a1a" stroke-width="1" opacity="0.7"/>
    <text x="68" y="548" font-size="15" font-weight="900" fill="#ff8a22">[02] MODEL SHARE</text>
    <text x="374" y="548" font-size="10" font-weight="800" fill="#ffd08a" text-anchor="end">14.4B total</text>

    <rect x="68" y="572" width="306" height="14" rx="5" fill="#24160d" stroke="#4b2a13"/>
    <rect x="68" y="572" width="294" height="14" rx="5" fill="url(#m1)"/>
    <rect x="362" y="572" width="4" height="14" fill="#ffb057"/>
    <rect x="366" y="572" width="3" height="14" fill="#ffd08a"/>
    <rect x="369" y="572" width="3" height="14" fill="#58a6ff"/>
    <rect x="372" y="572" width="2" height="14" fill="#2dd4a3"/>

    <g>
      <rect x="68" y="606" width="10" height="10" rx="2" fill="#ff7a1a"/>
      <text x="84" y="615" font-size="11" font-weight="800" fill="#fff2df">gpt-5.5</text>
      <text x="372" y="615" font-size="12" font-weight="900" fill="#fff2df" text-anchor="end">14.4B</text>
      <text x="372" y="627" font-size="9" font-weight="800" fill="#ffb057" text-anchor="end">99.847%</text>
    </g>
    <g>
      <rect x="68" y="634" width="10" height="10" rx="2" fill="#ffb057"/>
      <text x="84" y="643" font-size="11" font-weight="800" fill="#fff2df">gpt-5.2</text>
      <text x="372" y="643" font-size="12" font-weight="900" fill="#fff2df" text-anchor="end">17.8M</text>
      <text x="372" y="655" font-size="9" font-weight="800" fill="#ffb057" text-anchor="end">0.123%</text>
    </g>
    <g>
      <rect x="68" y="662" width="10" height="10" rx="2" fill="#ffd08a"/>
      <text x="84" y="671" font-size="11" font-weight="800" fill="#fff2df">gpt-5.4</text>
      <text x="372" y="671" font-size="12" font-weight="900" fill="#fff2df" text-anchor="end">3.8M</text>
      <text x="372" y="683" font-size="9" font-weight="800" fill="#ffb057" text-anchor="end">0.026%</text>
    </g>
    <g>
      <rect x="68" y="690" width="10" height="10" rx="2" fill="#58a6ff"/>
      <text x="84" y="699" font-size="11" font-weight="800" fill="#fff2df">gpt-5.3-codex</text>
      <text x="372" y="699" font-size="12" font-weight="900" fill="#fff2df" text-anchor="end">308.8K</text>
      <text x="372" y="711" font-size="9" font-weight="800" fill="#58a6ff" text-anchor="end">&lt; 0.01%</text>
    </g>
    <g>
      <rect x="68" y="718" width="10" height="10" rx="2" fill="#2dd4a3"/>
      <text x="84" y="727" font-size="11" font-weight="800" fill="#fff2df">gpt-5.3-codex-spark</text>
      <text x="372" y="727" font-size="12" font-weight="900" fill="#fff2df" text-anchor="end">164.2K</text>
      <text x="372" y="739" font-size="9" font-weight="800" fill="#2dd4a3" text-anchor="end">&lt; 0.01%</text>
    </g>
  </g>

  <g font-family="ui-monospace, SFMono-Regular, Menlo, Consolas, monospace">
    <rect x="406" y="514" width="342" height="234" rx="12" fill="#0d0907" stroke="#ff7a1a" stroke-opacity="0.76"/>
    <path d="M424 558 H730" stroke="#ff7a1a" stroke-width="1" opacity="0.7"/>
    <text x="424" y="548" font-size="15" font-weight="900" fill="#ff8a22">[03] TOKEN MIX</text>
    <text x="730" y="548" font-size="10" font-weight="800" fill="#ffd08a" text-anchor="end">14.4B total</text>

    <rect x="424" y="572" width="306" height="14" rx="5" fill="#24160d" stroke="#4b2a13"/>
    <rect x="424" y="572" width="283" height="14" rx="5" fill="url(#cacheBar)"/>
    <rect x="707" y="572" width="20" height="14" fill="#58a6ff"/>
    <rect x="727" y="572" width="2" height="14" fill="#ff8a22"/>
    <rect x="729" y="572" width="1" height="14" fill="#b779ff"/>

    <g>
      <rect x="424" y="608" width="10" height="10" rx="2" fill="#2dd4a3"/>
      <text x="440" y="617" font-size="11" font-weight="800" fill="#fff2df">Cached input</text>
      <text x="728" y="617" font-size="12" font-weight="900" fill="#fff2df" text-anchor="end">13.40B</text>
      <text x="728" y="629" font-size="9" font-weight="800" fill="#2dd4a3" text-anchor="end">92.91%</text>
    </g>
    <g>
      <rect x="424" y="640" width="10" height="10" rx="2" fill="#58a6ff"/>
      <text x="440" y="649" font-size="11" font-weight="800" fill="#fff2df">Non-cached input</text>
      <text x="728" y="649" font-size="12" font-weight="900" fill="#fff2df" text-anchor="end">928.3M</text>
      <text x="728" y="661" font-size="9" font-weight="800" fill="#58a6ff" text-anchor="end">6.44%</text>
    </g>
    <g>
      <rect x="424" y="672" width="10" height="10" rx="2" fill="#ff8a22"/>
      <text x="440" y="681" font-size="11" font-weight="800" fill="#fff2df">Output</text>
      <text x="728" y="681" font-size="12" font-weight="900" fill="#fff2df" text-anchor="end">69.6M</text>
      <text x="728" y="693" font-size="9" font-weight="800" fill="#ff8a22" text-anchor="end">0.48%</text>
    </g>
    <g>
      <rect x="424" y="704" width="10" height="10" rx="2" fill="#b779ff"/>
      <text x="440" y="713" font-size="11" font-weight="800" fill="#fff2df">Reasoning</text>
      <text x="728" y="713" font-size="12" font-weight="900" fill="#fff2df" text-anchor="end">24.9M</text>
      <text x="728" y="725" font-size="9" font-weight="800" fill="#b779ff" text-anchor="end">0.17%</text>
    </g>

    <rect x="424" y="732" width="306" height="12" rx="4" fill="#0a1714" stroke="#16745b" stroke-opacity="0.45"/>
    <circle cx="432" cy="738" r="2.4" fill="#2dd4a3"/>
    <text x="440" y="741" font-size="9" font-weight="800" fill="#9adfca">cache hit · 93.5% — savings $60,427.68</text>
  </g>

  <g font-family="ui-monospace, SFMono-Regular, Menlo, Consolas, monospace">
    <rect x="762" y="514" width="342" height="234" rx="12" fill="#0d0907" stroke="#ff7a1a" stroke-opacity="0.76"/>
    <path d="M780 558 H1086" stroke="#ff7a1a" stroke-width="1" opacity="0.7"/>
    <text x="780" y="548" font-size="15" font-weight="900" fill="#ff8a22">[04] COST BY MODEL</text>
    <text x="1086" y="548" font-size="10" font-weight="800" fill="#ffd08a" text-anchor="end">$13,437.98 total</text>

    <rect x="780" y="572" width="306" height="14" rx="5" fill="#24160d" stroke="#4b2a13"/>
    <rect x="780" y="572" width="294" height="14" rx="5" fill="url(#m1)"/>
    <rect x="1074" y="572" width="4" height="14" fill="#ffb057"/>
    <rect x="1078" y="572" width="3" height="14" fill="#ffd08a"/>
    <rect x="1081" y="572" width="3" height="14" fill="#58a6ff"/>
    <rect x="1084" y="572" width="2" height="14" fill="#2dd4a3"/>

    <g>
      <rect x="780" y="606" width="10" height="10" rx="2" fill="#ff7a1a"/>
      <text x="796" y="615" font-size="11" font-weight="800" fill="#fff2df">gpt-5.5</text>
      <text x="1084" y="615" font-size="12" font-weight="900" fill="#fff2df" text-anchor="end">$13,417.41</text>
      <text x="1084" y="627" font-size="9" font-weight="800" fill="#ffb057" text-anchor="end">99.847%</text>
    </g>
    <g>
      <rect x="780" y="634" width="10" height="10" rx="2" fill="#ffb057"/>
      <text x="796" y="643" font-size="11" font-weight="800" fill="#fff2df">gpt-5.2</text>
      <text x="1084" y="643" font-size="12" font-weight="900" fill="#fff2df" text-anchor="end">$16.59</text>
      <text x="1084" y="655" font-size="9" font-weight="800" fill="#ffb057" text-anchor="end">0.123%</text>
    </g>
    <g>
      <rect x="780" y="662" width="10" height="10" rx="2" fill="#ffd08a"/>
      <text x="796" y="671" font-size="11" font-weight="800" fill="#fff2df">gpt-5.4</text>
      <text x="1084" y="671" font-size="12" font-weight="900" fill="#fff2df" text-anchor="end">$3.54</text>
      <text x="1084" y="683" font-size="9" font-weight="800" fill="#ffb057" text-anchor="end">0.026%</text>
    </g>
    <g>
      <rect x="780" y="690" width="10" height="10" rx="2" fill="#58a6ff"/>
      <text x="796" y="699" font-size="11" font-weight="800" fill="#fff2df">gpt-5.3-codex</text>
      <text x="1084" y="699" font-size="12" font-weight="900" fill="#fff2df" text-anchor="end">$0.29</text>
      <text x="1084" y="711" font-size="9" font-weight="800" fill="#58a6ff" text-anchor="end">&lt; 0.01%</text>
    </g>
    <g>
      <rect x="780" y="718" width="10" height="10" rx="2" fill="#2dd4a3"/>
      <text x="796" y="727" font-size="11" font-weight="800" fill="#fff2df">gpt-5.3-codex-spark</text>
      <text x="1084" y="727" font-size="12" font-weight="900" fill="#fff2df" text-anchor="end">$0.15</text>
      <text x="1084" y="739" font-size="9" font-weight="800" fill="#2dd4a3" text-anchor="end">&lt; 0.01%</text>
    </g>
  </g>

  <g font-family="ui-monospace, SFMono-Regular, Menlo, Consolas, monospace">
    <g filter="url(#glow)">
      <path d="M50 768 H742" stroke="#ff8a22" stroke-width="2"/>
      <path d="M50 768 h24 m10 0 h8 m10 0 h42 m10 0 h18 m10 0 h74 m10 0 h12" stroke="#ffd08a" stroke-width="2"/>
    </g>
    <rect x="756" y="754" width="352" height="22" rx="6" fill="#0a0604" stroke="#673110" stroke-opacity="0.82"/>
    <text x="774" y="769" font-size="10" font-weight="650" fill="#cc6b2c">01001100 // peak.chart = max(daily) | window=20d</text>
  </g>
</svg>
