<svg xmlns="http://www.w3.org/2000/svg" width="420" height="820" viewBox="0 0 420 820" role="img" aria-labelledby="title desc">
  <title id="title">Codex Usage Dashboard Mobile</title>
  <desc id="desc">Mobile Codex usage snapshot: 39.2B tokens, 92.7% cache hit, peak 6.5B on 06-06.</desc>
  <defs>
    <linearGradient id="panel" x1="0" x2="1" y1="0" y2="1">
      <stop offset="0%" stop-color="#160b04"/>
      <stop offset="64%" stop-color="#0c0806"/>
      <stop offset="100%" stop-color="#221004"/>
    </linearGradient>
    <linearGradient id="peakArea" x1="0" x2="0" y1="0" y2="1">
      <stop offset="0%" stop-color="#ffb057" stop-opacity="0.95"/>
      <stop offset="40%" stop-color="#ff7a1a" stop-opacity="0.50"/>
      <stop offset="100%" stop-color="#ff4d00" stop-opacity="0.02"/>
    </linearGradient>
    <linearGradient id="peakStroke" x1="0" x2="1" y1="0" y2="0">
      <stop offset="0%" stop-color="#ff7a1a"/>
      <stop offset="80%" stop-color="#ffb057"/>
      <stop offset="100%" stop-color="#ffd08a"/>
    </linearGradient>
    <linearGradient id="cacheBar" x1="0" x2="1" y1="0" y2="0">
      <stop offset="0%" stop-color="#0f5b48"/>
      <stop offset="100%" stop-color="#2dd4a3"/>
    </linearGradient>
    <filter id="peakGlow" x="-60%" y="-60%" width="220%" height="220%">
      <feGaussianBlur stdDeviation="3.5" result="b"/>
      <feMerge><feMergeNode in="b"/><feMergeNode in="SourceGraphic"/></feMerge>
    </filter>
  </defs>

  <rect width="420" height="820" rx="16" fill="#050403"/>
  <rect x="12" y="12" width="396" height="796" rx="16" fill="url(#panel)" stroke="#ff7a1a" stroke-width="1.6"/>
  <path d="M18 58 H402" stroke="#3b2111" stroke-width="1" opacity="0.22"/><path d="M18 90 H402" stroke="#3b2111" stroke-width="1" opacity="0.22"/><path d="M18 122 H402" stroke="#3b2111" stroke-width="1" opacity="0.22"/><path d="M18 154 H402" stroke="#3b2111" stroke-width="1" opacity="0.22"/><path d="M18 186 H402" stroke="#3b2111" stroke-width="1" opacity="0.22"/><path d="M18 218 H402" stroke="#3b2111" stroke-width="1" opacity="0.22"/><path d="M18 250 H402" stroke="#3b2111" stroke-width="1" opacity="0.22"/><path d="M18 282 H402" stroke="#3b2111" stroke-width="1" opacity="0.22"/><path d="M18 314 H402" stroke="#3b2111" stroke-width="1" opacity="0.22"/><path d="M18 346 H402" stroke="#3b2111" stroke-width="1" opacity="0.22"/><path d="M18 378 H402" stroke="#3b2111" stroke-width="1" opacity="0.22"/><path d="M18 410 H402" stroke="#3b2111" stroke-width="1" opacity="0.22"/><path d="M18 442 H402" stroke="#3b2111" stroke-width="1" opacity="0.22"/><path d="M18 474 H402" stroke="#3b2111" stroke-width="1" opacity="0.22"/><path d="M18 506 H402" stroke="#3b2111" stroke-width="1" opacity="0.22"/><path d="M18 538 H402" stroke="#3b2111" stroke-width="1" opacity="0.22"/><path d="M18 570 H402" stroke="#3b2111" stroke-width="1" opacity="0.22"/><path d="M18 602 H402" stroke="#3b2111" stroke-width="1" opacity="0.22"/><path d="M18 634 H402" stroke="#3b2111" stroke-width="1" opacity="0.22"/><path d="M18 666 H402" stroke="#3b2111" stroke-width="1" opacity="0.22"/><path d="M18 698 H402" stroke="#3b2111" stroke-width="1" opacity="0.22"/><path d="M18 730 H402" stroke="#3b2111" stroke-width="1" opacity="0.22"/><path d="M18 762 H402" stroke="#3b2111" stroke-width="1" opacity="0.22"/><path d="M18 794 H402" stroke="#3b2111" stroke-width="1" opacity="0.22"/><path d="M28 42 L-136 800" stroke="#3b2111" stroke-width="1" opacity="0.16"/><path d="M76 42 L-88 800" stroke="#3b2111" stroke-width="1" opacity="0.16"/><path d="M124 42 L-40 800" stroke="#3b2111" stroke-width="1" opacity="0.16"/><path d="M172 42 L8 800" stroke="#3b2111" stroke-width="1" opacity="0.16"/><path d="M220 42 L56 800" stroke="#3b2111" stroke-width="1" opacity="0.16"/><path d="M268 42 L104 800" stroke="#3b2111" stroke-width="1" opacity="0.16"/><path d="M316 42 L152 800" stroke="#3b2111" stroke-width="1" opacity="0.16"/><path d="M364 42 L200 800" stroke="#3b2111" stroke-width="1" opacity="0.16"/><path d="M412 42 L248 800" stroke="#3b2111" stroke-width="1" opacity="0.16"/>

  <g font-family="ui-monospace, SFMono-Regular, Menlo, Consolas, monospace">
    <text x="24" y="42" font-size="22" font-weight="900" fill="#ff8a22" text-anchor="start" font-family="ui-monospace, SFMono-Regular, Menlo, Consolas, monospace">:: CODEX_USAGE</text>
    <text x="24" y="62" font-size="10" font-weight="750" fill="#ffca88" text-anchor="start" font-family="ui-monospace, SFMono-Regular, Menlo, Consolas, monospace">&gt; Past 37 days · 37 active · 06-07T20:22</text>
    <g>
      <circle cx="378" cy="38" r="3" fill="#ff7a1a">
        <animate attributeName="opacity" values="0.25;1;0.25" dur="2s" repeatCount="indefinite"/>
      </circle>
      <text x="388" y="42" font-size="10" font-weight="900" fill="#ff8a22" text-anchor="end" font-family="ui-monospace, SFMono-Regular, Menlo, Consolas, monospace">LIVE</text>
    </g>
  </g>

  <g font-family="ui-monospace, SFMono-Regular, Menlo, Consolas, monospace">
    <rect x="24" y="82" width="372" height="86" rx="10" fill="#15100c" stroke="#ff8a22" stroke-opacity="0.78"/>
    <rect x="36" y="94" width="348" height="2" fill="#ff8a22" opacity="0.75"/>
    <text x="40" y="120" font-size="11" font-weight="850" fill="#ffb057" text-anchor="start" font-family="ui-monospace, SFMono-Regular, Menlo, Consolas, monospace">TOTAL TOKENS</text>
    <text x="40" y="152" font-size="34" font-weight="900" fill="#fff2df" text-anchor="start" font-family="ui-monospace, SFMono-Regular, Menlo, Consolas, monospace">39.2B</text>
    <text x="380" y="120" font-size="10" font-weight="800" fill="#2dd4a3" text-anchor="end" font-family="ui-monospace, SFMono-Regular, Menlo, Consolas, monospace">▲ accelerating</text>
    <text x="380" y="138" font-size="9" font-weight="800" fill="#ffd08a" text-anchor="end" font-family="ui-monospace, SFMono-Regular, Menlo, Consolas, monospace">1.1B / day</text>
    <text x="380" y="156" font-size="9" font-weight="800" fill="#ffd08a" text-anchor="end" font-family="ui-monospace, SFMono-Regular, Menlo, Consolas, monospace">↑ 6.5B · 06-06</text>
  </g>

  
  <g font-family="ui-monospace, SFMono-Regular, Menlo, Consolas, monospace">
    <rect x="24" y="180" width="181" height="60" rx="8" fill="#15100c" stroke="#16745b" stroke-opacity="0.78"/>
    <rect x="32" y="188" width="165" height="2" fill="#2dd4a3" opacity="0.78"/>
    <text x="38" y="208" font-size="10" font-weight="800" fill="#ffb057" text-anchor="start" font-family="ui-monospace, SFMono-Regular, Menlo, Consolas, monospace">CACHE HIT</text>
    <text x="38" y="230" font-size="20" font-weight="900" fill="#fff2df" text-anchor="start" font-family="ui-monospace, SFMono-Regular, Menlo, Consolas, monospace">92.7%</text>
    <text x="197" y="234" font-size="8" font-weight="800" fill="#2dd4a3" text-anchor="end" font-family="ui-monospace, SFMono-Regular, Menlo, Consolas, monospace">36.2B cached</text>
  </g>
  
  <g font-family="ui-monospace, SFMono-Regular, Menlo, Consolas, monospace">
    <rect x="215" y="180" width="181" height="60" rx="8" fill="#15100c" stroke="#ff4d00" stroke-opacity="0.78"/>
    <rect x="223" y="188" width="165" height="2" fill="#ff4d00" opacity="0.78"/>
    <text x="229" y="208" font-size="10" font-weight="800" fill="#ffb057" text-anchor="start" font-family="ui-monospace, SFMono-Regular, Menlo, Consolas, monospace">COST</text>
    <text x="229" y="230" font-size="18" font-weight="900" fill="#fff2df" text-anchor="start" font-family="ui-monospace, SFMono-Regular, Menlo, Consolas, monospace">$38,686.53</text>
    <text x="388" y="234" font-size="8" font-weight="800" fill="#ffd08a" text-anchor="end" font-family="ui-monospace, SFMono-Regular, Menlo, Consolas, monospace">$1,046 / day</text>
  </g>
  
  <g font-family="ui-monospace, SFMono-Regular, Menlo, Consolas, monospace">
    <rect x="24" y="250" width="181" height="60" rx="8" fill="#15100c" stroke="#f06d19" stroke-opacity="0.78"/>
    <rect x="32" y="258" width="165" height="2" fill="#f06d19" opacity="0.78"/>
    <text x="38" y="278" font-size="10" font-weight="800" fill="#ffb057" text-anchor="start" font-family="ui-monospace, SFMono-Regular, Menlo, Consolas, monospace">SAVINGS</text>
    <text x="38" y="300" font-size="18" font-weight="900" fill="#fff2df" text-anchor="start" font-family="ui-monospace, SFMono-Regular, Menlo, Consolas, monospace">$166,517.60</text>
    <text x="197" y="304" font-size="8" font-weight="800" fill="#ffd08a" text-anchor="end" font-family="ui-monospace, SFMono-Regular, Menlo, Consolas, monospace">vs no-cache</text>
  </g>
  
  <g font-family="ui-monospace, SFMono-Regular, Menlo, Consolas, monospace">
    <rect x="215" y="250" width="181" height="60" rx="8" fill="#15100c" stroke="#ff8a22" stroke-opacity="0.78"/>
    <rect x="223" y="258" width="165" height="2" fill="#ff8a22" opacity="0.78"/>
    <text x="229" y="278" font-size="10" font-weight="800" fill="#ffb057" text-anchor="start" font-family="ui-monospace, SFMono-Regular, Menlo, Consolas, monospace">SESSIONS</text>
    <text x="229" y="300" font-size="20" font-weight="900" fill="#fff2df" text-anchor="start" font-family="ui-monospace, SFMono-Regular, Menlo, Consolas, monospace">10,247</text>
    <text x="388" y="304" font-size="8" font-weight="800" fill="#ffd08a" text-anchor="end" font-family="ui-monospace, SFMono-Regular, Menlo, Consolas, monospace">277 / day</text>
  </g>

  <g font-family="ui-monospace, SFMono-Regular, Menlo, Consolas, monospace">
    <rect x="24" y="322" width="372" height="184" rx="10" fill="#0d0907" stroke="#ff7a1a" stroke-opacity="0.76"/>
    <path d="M38 358 H382" stroke="#ff7a1a" stroke-width="1" opacity="0.7"/>
    <text x="38" y="348" font-size="13" font-weight="900" fill="#ff8a22" text-anchor="start" font-family="ui-monospace, SFMono-Regular, Menlo, Consolas, monospace">[01] PEAK CHART · 37d</text>
    <text x="382" y="348" font-size="9" font-weight="800" fill="#ffd08a" text-anchor="end" font-family="ui-monospace, SFMono-Regular, Menlo, Consolas, monospace">↑ 6.5B · 06-06</text>

    <text x="40" y="365" font-size="8" font-weight="800" fill="#7a4318" text-anchor="end" font-family="ui-monospace, SFMono-Regular, Menlo, Consolas, monospace">10B</text><text x="40" y="419" font-size="8" font-weight="800" fill="#7a4318" text-anchor="end" font-family="ui-monospace, SFMono-Regular, Menlo, Consolas, monospace">5B</text><text x="40" y="473" font-size="8" font-weight="800" fill="#7a4318" text-anchor="end" font-family="ui-monospace, SFMono-Regular, Menlo, Consolas, monospace">0</text>
    <path d="M46 416.00 H388" stroke="#4b2a13" stroke-width="1" opacity="0.55" stroke-dasharray="2 4"/>
    <path d="M46 470 H388" stroke="#6c3a16" stroke-width="1"/>

    <path d="M46.00,470.00 L46.00,468.57 L65.00,465.96 L84.00,464.17 L103.00,457.59 L122.00,463.92 L141.00,458.33 L160.00,455.45 L179.00,454.48 L198.00,455.53 L217.00,425.55 L236.00,458.23 L255.00,456.92 L274.00,456.27 L293.00,442.07 L312.00,433.62 L331.00,451.57 L350.00,448.12 L369.00,385.27 L388.00,405.07 L388.00,470.00 Z" fill="url(#peakArea)"/><path d="M46.00,468.57 L65.00,465.96 L84.00,464.17 L103.00,457.59 L122.00,463.92 L141.00,458.33 L160.00,455.45 L179.00,454.48 L198.00,455.53 L217.00,425.55 L236.00,458.23 L255.00,456.92 L274.00,456.27 L293.00,442.07 L312.00,433.62 L331.00,451.57 L350.00,448.12 L369.00,385.27 L388.00,405.07" fill="none" stroke="url(#peakStroke)" stroke-width="2" stroke-linejoin="round" stroke-linecap="round"/>
    <circle cx="65.00" cy="465.96" r="1.8" fill="#0d0907" stroke="#ffb057" stroke-width="1.1"/><circle cx="84.00" cy="464.17" r="1.8" fill="#0d0907" stroke="#ffb057" stroke-width="1.1"/><circle cx="103.00" cy="457.59" r="1.8" fill="#0d0907" stroke="#ffb057" stroke-width="1.1"/><circle cx="122.00" cy="463.92" r="1.8" fill="#0d0907" stroke="#ffb057" stroke-width="1.1"/><circle cx="141.00" cy="458.33" r="1.8" fill="#0d0907" stroke="#ffb057" stroke-width="1.1"/><circle cx="160.00" cy="455.45" r="1.8" fill="#0d0907" stroke="#ffb057" stroke-width="1.1"/><circle cx="179.00" cy="454.48" r="1.8" fill="#0d0907" stroke="#ffb057" stroke-width="1.1"/><circle cx="198.00" cy="455.53" r="1.8" fill="#0d0907" stroke="#ffb057" stroke-width="1.1"/><circle cx="217.00" cy="425.55" r="1.8" fill="#0d0907" stroke="#ffb057" stroke-width="1.1"/><circle cx="236.00" cy="458.23" r="1.8" fill="#0d0907" stroke="#ffb057" stroke-width="1.1"/><circle cx="255.00" cy="456.92" r="1.8" fill="#0d0907" stroke="#ffb057" stroke-width="1.1"/><circle cx="274.00" cy="456.27" r="1.8" fill="#0d0907" stroke="#ffb057" stroke-width="1.1"/><circle cx="293.00" cy="442.07" r="1.8" fill="#0d0907" stroke="#ffb057" stroke-width="1.1"/><circle cx="312.00" cy="433.62" r="1.8" fill="#0d0907" stroke="#ffb057" stroke-width="1.1"/><circle cx="331.00" cy="451.57" r="1.8" fill="#0d0907" stroke="#ffb057" stroke-width="1.1"/><circle cx="350.00" cy="448.12" r="1.8" fill="#0d0907" stroke="#ffb057" stroke-width="1.1"/>
    <circle cx="46.00" cy="468.57" r="3" fill="#1b0e07" stroke="#7a4318" stroke-width="1.2"/><circle cx="388.00" cy="405.07" r="3" fill="#1b0e07" stroke="#ffd08a" stroke-width="1.2"/><circle cx="369.00" cy="385.27" r="9" fill="#ff4d00" opacity="0.30"/><circle cx="369.00" cy="385.27" r="5.5" fill="#ff8a22" filter="url(#peakGlow)"/><circle cx="369.00" cy="385.27" r="2.5" fill="#fff2df"/>

    <text x="46" y="484" font-size="9" font-weight="800" fill="#ffca88" text-anchor="middle" font-family="ui-monospace, SFMono-Regular, Menlo, Consolas, monospace">05-02</text><text x="122" y="484" font-size="9" font-weight="800" fill="#ffca88" text-anchor="middle" font-family="ui-monospace, SFMono-Regular, Menlo, Consolas, monospace">05-10</text><text x="217" y="484" font-size="9" font-weight="800" fill="#ffca88" text-anchor="middle" font-family="ui-monospace, SFMono-Regular, Menlo, Consolas, monospace">05-20</text><text x="312" y="484" font-size="9" font-weight="800" fill="#ffca88" text-anchor="middle" font-family="ui-monospace, SFMono-Regular, Menlo, Consolas, monospace">05-30</text><text x="388" y="484" font-size="9" font-weight="800" fill="#ffca88" text-anchor="middle" font-family="ui-monospace, SFMono-Regular, Menlo, Consolas, monospace">06-07</text>
    <text x="38" y="499" font-size="9" font-weight="850" fill="#cc6b2c" text-anchor="start" font-family="ui-monospace, SFMono-Regular, Menlo, Consolas, monospace">avg</text><text x="62" y="499" font-size="9" font-weight="850" fill="#fff2df" text-anchor="start" font-family="ui-monospace, SFMono-Regular, Menlo, Consolas, monospace">1.1B</text><text x="120" y="499" font-size="9" font-weight="850" fill="#cc6b2c" text-anchor="start" font-family="ui-monospace, SFMono-Regular, Menlo, Consolas, monospace">7d</text><text x="138" y="499" font-size="9" font-weight="850" fill="#fff2df" text-anchor="start" font-family="ui-monospace, SFMono-Regular, Menlo, Consolas, monospace">17.6B</text><text x="192" y="499" font-size="9" font-weight="850" fill="#cc6b2c" text-anchor="start" font-family="ui-monospace, SFMono-Regular, Menlo, Consolas, monospace">peak vs avg</text><text x="266" y="499" font-size="9" font-weight="850" fill="#2dd4a3" text-anchor="start" font-family="ui-monospace, SFMono-Regular, Menlo, Consolas, monospace">+511%</text><text x="382" y="499" font-size="10" font-weight="850" fill="#2dd4a3" text-anchor="end" font-family="ui-monospace, SFMono-Regular, Menlo, Consolas, monospace">▲</text>
  </g>

  <g font-family="ui-monospace, SFMono-Regular, Menlo, Consolas, monospace">
    <rect x="24" y="516" width="372" height="146" rx="10" fill="#0d0907" stroke="#ff7a1a" stroke-opacity="0.76"/>
    <path d="M38 550 H382" stroke="#ff7a1a" stroke-width="1" opacity="0.7"/>
    <text x="38" y="540" font-size="13" font-weight="900" fill="#ff8a22" text-anchor="start" font-family="ui-monospace, SFMono-Regular, Menlo, Consolas, monospace">[02] TOKEN MIX</text>
    <text x="382" y="540" font-size="9" font-weight="800" fill="#ffd08a" text-anchor="end" font-family="ui-monospace, SFMono-Regular, Menlo, Consolas, monospace">39.2B total</text>
    <rect x="38.0" y="560.0" width="344.0" height="10" rx="3" fill="#24160d" stroke="#4b2a13"/><rect x="38.00" y="560.0" width="316.79" height="10" rx="3" fill="url(#cacheBar)"/><rect x="354.79" y="560.0" width="24.89" height="10" fill="#58a6ff"/><rect x="379.68" y="560.0" width="1.72" height="10" fill="#ff8a22"/><rect x="381.39" y="560.0" width="0.61" height="10" fill="#b779ff"/>
    <g><rect x="38" y="582" width="9" height="9" rx="2" fill="#2dd4a3"/><text x="52" y="591" font-size="11" font-weight="800" fill="#fff2df" font-family="ui-monospace, SFMono-Regular, Menlo, Consolas, monospace">Cached</text><text x="380" y="591" font-size="11" font-weight="900" fill="#fff2df" text-anchor="end" font-family="ui-monospace, SFMono-Regular, Menlo, Consolas, monospace">36.2B</text><text x="380" y="602" font-size="8" font-weight="800" fill="#2dd4a3" text-anchor="end" font-family="ui-monospace, SFMono-Regular, Menlo, Consolas, monospace">92.09%</text></g><g><rect x="38" y="608" width="9" height="9" rx="2" fill="#58a6ff"/><text x="52" y="617" font-size="11" font-weight="800" fill="#fff2df" font-family="ui-monospace, SFMono-Regular, Menlo, Consolas, monospace">Non-cached</text><text x="380" y="617" font-size="11" font-weight="900" fill="#fff2df" text-anchor="end" font-family="ui-monospace, SFMono-Regular, Menlo, Consolas, monospace">2.8B</text><text x="380" y="628" font-size="8" font-weight="800" fill="#58a6ff" text-anchor="end" font-family="ui-monospace, SFMono-Regular, Menlo, Consolas, monospace">7.23%</text></g><g><rect x="38" y="634" width="9" height="9" rx="2" fill="#ff8a22"/><text x="52" y="643" font-size="11" font-weight="800" fill="#fff2df" font-family="ui-monospace, SFMono-Regular, Menlo, Consolas, monospace">Output</text><text x="220" y="643" font-size="11" font-weight="900" fill="#fff2df" text-anchor="end" font-family="ui-monospace, SFMono-Regular, Menlo, Consolas, monospace">196.1M</text></g><g><rect x="232" y="634" width="9" height="9" rx="2" fill="#b779ff"/><text x="246" y="643" font-size="11" font-weight="800" fill="#fff2df" font-family="ui-monospace, SFMono-Regular, Menlo, Consolas, monospace">Reason</text><text x="380" y="643" font-size="11" font-weight="900" fill="#fff2df" text-anchor="end" font-family="ui-monospace, SFMono-Regular, Menlo, Consolas, monospace">69.2M</text></g>
  </g>

  <g font-family="ui-monospace, SFMono-Regular, Menlo, Consolas, monospace">
    <rect x="24" y="672" width="372" height="98" rx="10" fill="#0d0907" stroke="#ff7a1a" stroke-opacity="0.76"/>
    <path d="M38 706 H382" stroke="#ff7a1a" stroke-width="1" opacity="0.7"/>
    <text x="38" y="696" font-size="13" font-weight="900" fill="#ff8a22" text-anchor="start" font-family="ui-monospace, SFMono-Regular, Menlo, Consolas, monospace">[03] MODEL SHARE</text>
    <text x="382" y="696" font-size="9" font-weight="800" fill="#ffd08a" text-anchor="end" font-family="ui-monospace, SFMono-Regular, Menlo, Consolas, monospace">8 models</text>
    <g><text x="38" y="728" font-size="11" font-weight="800" fill="#fff2df" font-family="ui-monospace, SFMono-Regular, Menlo, Consolas, monospace">gpt-5.5</text><rect x="150" y="720" width="170" height="12" rx="4" fill="#24160d" stroke="#4b2a13"/><rect x="150" y="720" width="163" height="12" rx="4" fill="#ff4d00"/><text x="382" y="729" font-size="10" font-weight="900" fill="#fff2df" text-anchor="end" font-family="ui-monospace, SFMono-Regular, Menlo, Consolas, monospace">37.7B · 96.2%</text></g><g><text x="38" y="754" font-size="11" font-weight="800" fill="#fff2df" font-family="ui-monospace, SFMono-Regular, Menlo, Consolas, monospace">claude-opus-4-8</text><rect x="150" y="746" width="170" height="12" rx="4" fill="#24160d" stroke="#4b2a13"/><rect x="150" y="746" width="2" height="12" rx="4" fill="#ffb057"/><text x="382" y="755" font-size="10" font-weight="900" fill="#fff2df" text-anchor="end" font-family="ui-monospace, SFMono-Regular, Menlo, Consolas, monospace">602.0M · 1.5%</text></g>
  </g>

  <text x="28" y="794" font-size="9" font-weight="650" fill="#cc6b2c" text-anchor="start" font-family="ui-monospace, SFMono-Regular, Menlo, Consolas, monospace">01001100 // peak.chart · window=37d</text>
</svg>
